%TF.GenerationSoftware,KiCad,Pcbnew,9.0.7*%
%TF.CreationDate,2026-04-02T21:59:26+03:00*%
%TF.ProjectId,stm32,73746d33-322e-46b6-9963-61645f706362,rev?*%
%TF.SameCoordinates,PX5204180PY58c97e0*%
%TF.FileFunction,Legend,Top*%
%TF.FilePolarity,Positive*%
%FSLAX46Y46*%
G04 Gerber Fmt 4.6, Leading zero omitted, Abs format (unit mm)*
G04 Created by KiCad (PCBNEW 9.0.7) date 2026-04-02 21:59:26*
%MOMM*%
%LPD*%
G01*
G04 APERTURE LIST*
%ADD10C,0.150000*%
%ADD11C,0.100000*%
%ADD12C,0.120000*%
%ADD13C,0.110000*%
G04 APERTURE END LIST*
D10*
X8054819Y5441667D02*
X8769104Y5441667D01*
X8769104Y5441667D02*
X8911961Y5394048D01*
X8911961Y5394048D02*
X9007200Y5298810D01*
X9007200Y5298810D02*
X9054819Y5155953D01*
X9054819Y5155953D02*
X9054819Y5060715D01*
X8150057Y5870239D02*
X8102438Y5917858D01*
X8102438Y5917858D02*
X8054819Y6013096D01*
X8054819Y6013096D02*
X8054819Y6251191D01*
X8054819Y6251191D02*
X8102438Y6346429D01*
X8102438Y6346429D02*
X8150057Y6394048D01*
X8150057Y6394048D02*
X8245295Y6441667D01*
X8245295Y6441667D02*
X8340533Y6441667D01*
X8340533Y6441667D02*
X8483390Y6394048D01*
X8483390Y6394048D02*
X9054819Y5822620D01*
X9054819Y5822620D02*
X9054819Y6441667D01*
X35404819Y8783334D02*
X34928628Y8450001D01*
X35404819Y8211906D02*
X34404819Y8211906D01*
X34404819Y8211906D02*
X34404819Y8592858D01*
X34404819Y8592858D02*
X34452438Y8688096D01*
X34452438Y8688096D02*
X34500057Y8735715D01*
X34500057Y8735715D02*
X34595295Y8783334D01*
X34595295Y8783334D02*
X34738152Y8783334D01*
X34738152Y8783334D02*
X34833390Y8735715D01*
X34833390Y8735715D02*
X34881009Y8688096D01*
X34881009Y8688096D02*
X34928628Y8592858D01*
X34928628Y8592858D02*
X34928628Y8211906D01*
X34738152Y9640477D02*
X35404819Y9640477D01*
X34357200Y9402382D02*
X35071485Y9164287D01*
X35071485Y9164287D02*
X35071485Y9783334D01*
X8404819Y10633334D02*
X7928628Y10300001D01*
X8404819Y10061906D02*
X7404819Y10061906D01*
X7404819Y10061906D02*
X7404819Y10442858D01*
X7404819Y10442858D02*
X7452438Y10538096D01*
X7452438Y10538096D02*
X7500057Y10585715D01*
X7500057Y10585715D02*
X7595295Y10633334D01*
X7595295Y10633334D02*
X7738152Y10633334D01*
X7738152Y10633334D02*
X7833390Y10585715D01*
X7833390Y10585715D02*
X7881009Y10538096D01*
X7881009Y10538096D02*
X7928628Y10442858D01*
X7928628Y10442858D02*
X7928628Y10061906D01*
X7500057Y11014287D02*
X7452438Y11061906D01*
X7452438Y11061906D02*
X7404819Y11157144D01*
X7404819Y11157144D02*
X7404819Y11395239D01*
X7404819Y11395239D02*
X7452438Y11490477D01*
X7452438Y11490477D02*
X7500057Y11538096D01*
X7500057Y11538096D02*
X7595295Y11585715D01*
X7595295Y11585715D02*
X7690533Y11585715D01*
X7690533Y11585715D02*
X7833390Y11538096D01*
X7833390Y11538096D02*
X8404819Y10966668D01*
X8404819Y10966668D02*
X8404819Y11585715D01*
X38084580Y14207143D02*
X38132200Y14159524D01*
X38132200Y14159524D02*
X38179819Y14016667D01*
X38179819Y14016667D02*
X38179819Y13921429D01*
X38179819Y13921429D02*
X38132200Y13778572D01*
X38132200Y13778572D02*
X38036961Y13683334D01*
X38036961Y13683334D02*
X37941723Y13635715D01*
X37941723Y13635715D02*
X37751247Y13588096D01*
X37751247Y13588096D02*
X37608390Y13588096D01*
X37608390Y13588096D02*
X37417914Y13635715D01*
X37417914Y13635715D02*
X37322676Y13683334D01*
X37322676Y13683334D02*
X37227438Y13778572D01*
X37227438Y13778572D02*
X37179819Y13921429D01*
X37179819Y13921429D02*
X37179819Y14016667D01*
X37179819Y14016667D02*
X37227438Y14159524D01*
X37227438Y14159524D02*
X37275057Y14207143D01*
X38179819Y15159524D02*
X38179819Y14588096D01*
X38179819Y14873810D02*
X37179819Y14873810D01*
X37179819Y14873810D02*
X37322676Y14778572D01*
X37322676Y14778572D02*
X37417914Y14683334D01*
X37417914Y14683334D02*
X37465533Y14588096D01*
X37179819Y16064286D02*
X37179819Y15588096D01*
X37179819Y15588096D02*
X37656009Y15540477D01*
X37656009Y15540477D02*
X37608390Y15588096D01*
X37608390Y15588096D02*
X37560771Y15683334D01*
X37560771Y15683334D02*
X37560771Y15921429D01*
X37560771Y15921429D02*
X37608390Y16016667D01*
X37608390Y16016667D02*
X37656009Y16064286D01*
X37656009Y16064286D02*
X37751247Y16111905D01*
X37751247Y16111905D02*
X37989342Y16111905D01*
X37989342Y16111905D02*
X38084580Y16064286D01*
X38084580Y16064286D02*
X38132200Y16016667D01*
X38132200Y16016667D02*
X38179819Y15921429D01*
X38179819Y15921429D02*
X38179819Y15683334D01*
X38179819Y15683334D02*
X38132200Y15588096D01*
X38132200Y15588096D02*
X38084580Y15540477D01*
X39595238Y24418991D02*
X39261905Y24418991D01*
X39261905Y23895181D02*
X39261905Y24895181D01*
X39261905Y24895181D02*
X39738095Y24895181D01*
X40119048Y23895181D02*
X40119048Y24895181D01*
X40119048Y24895181D02*
X40452381Y24180896D01*
X40452381Y24180896D02*
X40785714Y24895181D01*
X40785714Y24895181D02*
X40785714Y23895181D01*
X41214286Y24799943D02*
X41261905Y24847562D01*
X41261905Y24847562D02*
X41357143Y24895181D01*
X41357143Y24895181D02*
X41595238Y24895181D01*
X41595238Y24895181D02*
X41690476Y24847562D01*
X41690476Y24847562D02*
X41738095Y24799943D01*
X41738095Y24799943D02*
X41785714Y24704705D01*
X41785714Y24704705D02*
X41785714Y24609467D01*
X41785714Y24609467D02*
X41738095Y24466610D01*
X41738095Y24466610D02*
X41166667Y23895181D01*
X41166667Y23895181D02*
X41785714Y23895181D01*
X37254819Y11333334D02*
X36778628Y11000001D01*
X37254819Y10761906D02*
X36254819Y10761906D01*
X36254819Y10761906D02*
X36254819Y11142858D01*
X36254819Y11142858D02*
X36302438Y11238096D01*
X36302438Y11238096D02*
X36350057Y11285715D01*
X36350057Y11285715D02*
X36445295Y11333334D01*
X36445295Y11333334D02*
X36588152Y11333334D01*
X36588152Y11333334D02*
X36683390Y11285715D01*
X36683390Y11285715D02*
X36731009Y11238096D01*
X36731009Y11238096D02*
X36778628Y11142858D01*
X36778628Y11142858D02*
X36778628Y10761906D01*
X36254819Y12238096D02*
X36254819Y11761906D01*
X36254819Y11761906D02*
X36731009Y11714287D01*
X36731009Y11714287D02*
X36683390Y11761906D01*
X36683390Y11761906D02*
X36635771Y11857144D01*
X36635771Y11857144D02*
X36635771Y12095239D01*
X36635771Y12095239D02*
X36683390Y12190477D01*
X36683390Y12190477D02*
X36731009Y12238096D01*
X36731009Y12238096D02*
X36826247Y12285715D01*
X36826247Y12285715D02*
X37064342Y12285715D01*
X37064342Y12285715D02*
X37159580Y12238096D01*
X37159580Y12238096D02*
X37207200Y12190477D01*
X37207200Y12190477D02*
X37254819Y12095239D01*
X37254819Y12095239D02*
X37254819Y11857144D01*
X37254819Y11857144D02*
X37207200Y11761906D01*
X37207200Y11761906D02*
X37159580Y11714287D01*
X40004819Y16433334D02*
X40004819Y15957144D01*
X40004819Y15957144D02*
X39004819Y15957144D01*
X39004819Y16671430D02*
X39004819Y17290477D01*
X39004819Y17290477D02*
X39385771Y16957144D01*
X39385771Y16957144D02*
X39385771Y17100001D01*
X39385771Y17100001D02*
X39433390Y17195239D01*
X39433390Y17195239D02*
X39481009Y17242858D01*
X39481009Y17242858D02*
X39576247Y17290477D01*
X39576247Y17290477D02*
X39814342Y17290477D01*
X39814342Y17290477D02*
X39909580Y17242858D01*
X39909580Y17242858D02*
X39957200Y17195239D01*
X39957200Y17195239D02*
X40004819Y17100001D01*
X40004819Y17100001D02*
X40004819Y16814287D01*
X40004819Y16814287D02*
X39957200Y16719049D01*
X39957200Y16719049D02*
X39909580Y16671430D01*
X38809580Y19407143D02*
X38857200Y19359524D01*
X38857200Y19359524D02*
X38904819Y19216667D01*
X38904819Y19216667D02*
X38904819Y19121429D01*
X38904819Y19121429D02*
X38857200Y18978572D01*
X38857200Y18978572D02*
X38761961Y18883334D01*
X38761961Y18883334D02*
X38666723Y18835715D01*
X38666723Y18835715D02*
X38476247Y18788096D01*
X38476247Y18788096D02*
X38333390Y18788096D01*
X38333390Y18788096D02*
X38142914Y18835715D01*
X38142914Y18835715D02*
X38047676Y18883334D01*
X38047676Y18883334D02*
X37952438Y18978572D01*
X37952438Y18978572D02*
X37904819Y19121429D01*
X37904819Y19121429D02*
X37904819Y19216667D01*
X37904819Y19216667D02*
X37952438Y19359524D01*
X37952438Y19359524D02*
X38000057Y19407143D01*
X38904819Y20359524D02*
X38904819Y19788096D01*
X38904819Y20073810D02*
X37904819Y20073810D01*
X37904819Y20073810D02*
X38047676Y19978572D01*
X38047676Y19978572D02*
X38142914Y19883334D01*
X38142914Y19883334D02*
X38190533Y19788096D01*
X37904819Y21216667D02*
X37904819Y21026191D01*
X37904819Y21026191D02*
X37952438Y20930953D01*
X37952438Y20930953D02*
X38000057Y20883334D01*
X38000057Y20883334D02*
X38142914Y20788096D01*
X38142914Y20788096D02*
X38333390Y20740477D01*
X38333390Y20740477D02*
X38714342Y20740477D01*
X38714342Y20740477D02*
X38809580Y20788096D01*
X38809580Y20788096D02*
X38857200Y20835715D01*
X38857200Y20835715D02*
X38904819Y20930953D01*
X38904819Y20930953D02*
X38904819Y21121429D01*
X38904819Y21121429D02*
X38857200Y21216667D01*
X38857200Y21216667D02*
X38809580Y21264286D01*
X38809580Y21264286D02*
X38714342Y21311905D01*
X38714342Y21311905D02*
X38476247Y21311905D01*
X38476247Y21311905D02*
X38381009Y21264286D01*
X38381009Y21264286D02*
X38333390Y21216667D01*
X38333390Y21216667D02*
X38285771Y21121429D01*
X38285771Y21121429D02*
X38285771Y20930953D01*
X38285771Y20930953D02*
X38333390Y20835715D01*
X38333390Y20835715D02*
X38381009Y20788096D01*
X38381009Y20788096D02*
X38476247Y20740477D01*
X3595238Y25218991D02*
X3261905Y25218991D01*
X3261905Y24695181D02*
X3261905Y25695181D01*
X3261905Y25695181D02*
X3738095Y25695181D01*
X4119048Y24695181D02*
X4119048Y25695181D01*
X4119048Y25695181D02*
X4452381Y24980896D01*
X4452381Y24980896D02*
X4785714Y25695181D01*
X4785714Y25695181D02*
X4785714Y24695181D01*
X5785714Y24695181D02*
X5214286Y24695181D01*
X5500000Y24695181D02*
X5500000Y25695181D01*
X5500000Y25695181D02*
X5404762Y25552324D01*
X5404762Y25552324D02*
X5309524Y25457086D01*
X5309524Y25457086D02*
X5214286Y25409467D01*
X24033333Y21040420D02*
X23985714Y20992800D01*
X23985714Y20992800D02*
X23842857Y20945181D01*
X23842857Y20945181D02*
X23747619Y20945181D01*
X23747619Y20945181D02*
X23604762Y20992800D01*
X23604762Y20992800D02*
X23509524Y21088039D01*
X23509524Y21088039D02*
X23461905Y21183277D01*
X23461905Y21183277D02*
X23414286Y21373753D01*
X23414286Y21373753D02*
X23414286Y21516610D01*
X23414286Y21516610D02*
X23461905Y21707086D01*
X23461905Y21707086D02*
X23509524Y21802324D01*
X23509524Y21802324D02*
X23604762Y21897562D01*
X23604762Y21897562D02*
X23747619Y21945181D01*
X23747619Y21945181D02*
X23842857Y21945181D01*
X23842857Y21945181D02*
X23985714Y21897562D01*
X23985714Y21897562D02*
X24033333Y21849943D01*
X24509524Y20945181D02*
X24700000Y20945181D01*
X24700000Y20945181D02*
X24795238Y20992800D01*
X24795238Y20992800D02*
X24842857Y21040420D01*
X24842857Y21040420D02*
X24938095Y21183277D01*
X24938095Y21183277D02*
X24985714Y21373753D01*
X24985714Y21373753D02*
X24985714Y21754705D01*
X24985714Y21754705D02*
X24938095Y21849943D01*
X24938095Y21849943D02*
X24890476Y21897562D01*
X24890476Y21897562D02*
X24795238Y21945181D01*
X24795238Y21945181D02*
X24604762Y21945181D01*
X24604762Y21945181D02*
X24509524Y21897562D01*
X24509524Y21897562D02*
X24461905Y21849943D01*
X24461905Y21849943D02*
X24414286Y21754705D01*
X24414286Y21754705D02*
X24414286Y21516610D01*
X24414286Y21516610D02*
X24461905Y21421372D01*
X24461905Y21421372D02*
X24509524Y21373753D01*
X24509524Y21373753D02*
X24604762Y21326134D01*
X24604762Y21326134D02*
X24795238Y21326134D01*
X24795238Y21326134D02*
X24890476Y21373753D01*
X24890476Y21373753D02*
X24938095Y21421372D01*
X24938095Y21421372D02*
X24985714Y21516610D01*
X40724819Y11593334D02*
X40248628Y11260001D01*
X40724819Y11021906D02*
X39724819Y11021906D01*
X39724819Y11021906D02*
X39724819Y11402858D01*
X39724819Y11402858D02*
X39772438Y11498096D01*
X39772438Y11498096D02*
X39820057Y11545715D01*
X39820057Y11545715D02*
X39915295Y11593334D01*
X39915295Y11593334D02*
X40058152Y11593334D01*
X40058152Y11593334D02*
X40153390Y11545715D01*
X40153390Y11545715D02*
X40201009Y11498096D01*
X40201009Y11498096D02*
X40248628Y11402858D01*
X40248628Y11402858D02*
X40248628Y11021906D01*
X39724819Y11926668D02*
X39724819Y12545715D01*
X39724819Y12545715D02*
X40105771Y12212382D01*
X40105771Y12212382D02*
X40105771Y12355239D01*
X40105771Y12355239D02*
X40153390Y12450477D01*
X40153390Y12450477D02*
X40201009Y12498096D01*
X40201009Y12498096D02*
X40296247Y12545715D01*
X40296247Y12545715D02*
X40534342Y12545715D01*
X40534342Y12545715D02*
X40629580Y12498096D01*
X40629580Y12498096D02*
X40677200Y12450477D01*
X40677200Y12450477D02*
X40724819Y12355239D01*
X40724819Y12355239D02*
X40724819Y12069525D01*
X40724819Y12069525D02*
X40677200Y11974287D01*
X40677200Y11974287D02*
X40629580Y11926668D01*
X10638095Y20445181D02*
X10638095Y19635658D01*
X10638095Y19635658D02*
X10685714Y19540420D01*
X10685714Y19540420D02*
X10733333Y19492800D01*
X10733333Y19492800D02*
X10828571Y19445181D01*
X10828571Y19445181D02*
X11019047Y19445181D01*
X11019047Y19445181D02*
X11114285Y19492800D01*
X11114285Y19492800D02*
X11161904Y19540420D01*
X11161904Y19540420D02*
X11209523Y19635658D01*
X11209523Y19635658D02*
X11209523Y20445181D01*
X12209523Y19445181D02*
X11638095Y19445181D01*
X11923809Y19445181D02*
X11923809Y20445181D01*
X11923809Y20445181D02*
X11828571Y20302324D01*
X11828571Y20302324D02*
X11733333Y20207086D01*
X11733333Y20207086D02*
X11638095Y20159467D01*
X32633333Y9440420D02*
X32585714Y9392800D01*
X32585714Y9392800D02*
X32442857Y9345181D01*
X32442857Y9345181D02*
X32347619Y9345181D01*
X32347619Y9345181D02*
X32204762Y9392800D01*
X32204762Y9392800D02*
X32109524Y9488039D01*
X32109524Y9488039D02*
X32061905Y9583277D01*
X32061905Y9583277D02*
X32014286Y9773753D01*
X32014286Y9773753D02*
X32014286Y9916610D01*
X32014286Y9916610D02*
X32061905Y10107086D01*
X32061905Y10107086D02*
X32109524Y10202324D01*
X32109524Y10202324D02*
X32204762Y10297562D01*
X32204762Y10297562D02*
X32347619Y10345181D01*
X32347619Y10345181D02*
X32442857Y10345181D01*
X32442857Y10345181D02*
X32585714Y10297562D01*
X32585714Y10297562D02*
X32633333Y10249943D01*
X32966667Y10345181D02*
X33585714Y10345181D01*
X33585714Y10345181D02*
X33252381Y9964229D01*
X33252381Y9964229D02*
X33395238Y9964229D01*
X33395238Y9964229D02*
X33490476Y9916610D01*
X33490476Y9916610D02*
X33538095Y9868991D01*
X33538095Y9868991D02*
X33585714Y9773753D01*
X33585714Y9773753D02*
X33585714Y9535658D01*
X33585714Y9535658D02*
X33538095Y9440420D01*
X33538095Y9440420D02*
X33490476Y9392800D01*
X33490476Y9392800D02*
X33395238Y9345181D01*
X33395238Y9345181D02*
X33109524Y9345181D01*
X33109524Y9345181D02*
X33014286Y9392800D01*
X33014286Y9392800D02*
X32966667Y9440420D01*
X13509580Y13407143D02*
X13557200Y13359524D01*
X13557200Y13359524D02*
X13604819Y13216667D01*
X13604819Y13216667D02*
X13604819Y13121429D01*
X13604819Y13121429D02*
X13557200Y12978572D01*
X13557200Y12978572D02*
X13461961Y12883334D01*
X13461961Y12883334D02*
X13366723Y12835715D01*
X13366723Y12835715D02*
X13176247Y12788096D01*
X13176247Y12788096D02*
X13033390Y12788096D01*
X13033390Y12788096D02*
X12842914Y12835715D01*
X12842914Y12835715D02*
X12747676Y12883334D01*
X12747676Y12883334D02*
X12652438Y12978572D01*
X12652438Y12978572D02*
X12604819Y13121429D01*
X12604819Y13121429D02*
X12604819Y13216667D01*
X12604819Y13216667D02*
X12652438Y13359524D01*
X12652438Y13359524D02*
X12700057Y13407143D01*
X13604819Y14359524D02*
X13604819Y13788096D01*
X13604819Y14073810D02*
X12604819Y14073810D01*
X12604819Y14073810D02*
X12747676Y13978572D01*
X12747676Y13978572D02*
X12842914Y13883334D01*
X12842914Y13883334D02*
X12890533Y13788096D01*
X13033390Y14930953D02*
X12985771Y14835715D01*
X12985771Y14835715D02*
X12938152Y14788096D01*
X12938152Y14788096D02*
X12842914Y14740477D01*
X12842914Y14740477D02*
X12795295Y14740477D01*
X12795295Y14740477D02*
X12700057Y14788096D01*
X12700057Y14788096D02*
X12652438Y14835715D01*
X12652438Y14835715D02*
X12604819Y14930953D01*
X12604819Y14930953D02*
X12604819Y15121429D01*
X12604819Y15121429D02*
X12652438Y15216667D01*
X12652438Y15216667D02*
X12700057Y15264286D01*
X12700057Y15264286D02*
X12795295Y15311905D01*
X12795295Y15311905D02*
X12842914Y15311905D01*
X12842914Y15311905D02*
X12938152Y15264286D01*
X12938152Y15264286D02*
X12985771Y15216667D01*
X12985771Y15216667D02*
X13033390Y15121429D01*
X13033390Y15121429D02*
X13033390Y14930953D01*
X13033390Y14930953D02*
X13081009Y14835715D01*
X13081009Y14835715D02*
X13128628Y14788096D01*
X13128628Y14788096D02*
X13223866Y14740477D01*
X13223866Y14740477D02*
X13414342Y14740477D01*
X13414342Y14740477D02*
X13509580Y14788096D01*
X13509580Y14788096D02*
X13557200Y14835715D01*
X13557200Y14835715D02*
X13604819Y14930953D01*
X13604819Y14930953D02*
X13604819Y15121429D01*
X13604819Y15121429D02*
X13557200Y15216667D01*
X13557200Y15216667D02*
X13509580Y15264286D01*
X13509580Y15264286D02*
X13414342Y15311905D01*
X13414342Y15311905D02*
X13223866Y15311905D01*
X13223866Y15311905D02*
X13128628Y15264286D01*
X13128628Y15264286D02*
X13081009Y15216667D01*
X13081009Y15216667D02*
X13033390Y15121429D01*
D11*
X40933609Y14780953D02*
X40933609Y14447620D01*
X41457419Y14447620D02*
X40457419Y14447620D01*
X40457419Y14447620D02*
X40457419Y14923810D01*
X41457419Y15780953D02*
X41457419Y15304763D01*
X41457419Y15304763D02*
X40457419Y15304763D01*
X40457419Y15971430D02*
X40457419Y16542858D01*
X41457419Y16257144D02*
X40457419Y16257144D01*
X41457419Y17400001D02*
X41457419Y16828573D01*
X41457419Y17114287D02*
X40457419Y17114287D01*
X40457419Y17114287D02*
X40600276Y17019049D01*
X40600276Y17019049D02*
X40695514Y16923811D01*
X40695514Y16923811D02*
X40743133Y16828573D01*
D10*
X25409580Y16433334D02*
X25457200Y16385715D01*
X25457200Y16385715D02*
X25504819Y16242858D01*
X25504819Y16242858D02*
X25504819Y16147620D01*
X25504819Y16147620D02*
X25457200Y16004763D01*
X25457200Y16004763D02*
X25361961Y15909525D01*
X25361961Y15909525D02*
X25266723Y15861906D01*
X25266723Y15861906D02*
X25076247Y15814287D01*
X25076247Y15814287D02*
X24933390Y15814287D01*
X24933390Y15814287D02*
X24742914Y15861906D01*
X24742914Y15861906D02*
X24647676Y15909525D01*
X24647676Y15909525D02*
X24552438Y16004763D01*
X24552438Y16004763D02*
X24504819Y16147620D01*
X24504819Y16147620D02*
X24504819Y16242858D01*
X24504819Y16242858D02*
X24552438Y16385715D01*
X24552438Y16385715D02*
X24600057Y16433334D01*
X24933390Y17004763D02*
X24885771Y16909525D01*
X24885771Y16909525D02*
X24838152Y16861906D01*
X24838152Y16861906D02*
X24742914Y16814287D01*
X24742914Y16814287D02*
X24695295Y16814287D01*
X24695295Y16814287D02*
X24600057Y16861906D01*
X24600057Y16861906D02*
X24552438Y16909525D01*
X24552438Y16909525D02*
X24504819Y17004763D01*
X24504819Y17004763D02*
X24504819Y17195239D01*
X24504819Y17195239D02*
X24552438Y17290477D01*
X24552438Y17290477D02*
X24600057Y17338096D01*
X24600057Y17338096D02*
X24695295Y17385715D01*
X24695295Y17385715D02*
X24742914Y17385715D01*
X24742914Y17385715D02*
X24838152Y17338096D01*
X24838152Y17338096D02*
X24885771Y17290477D01*
X24885771Y17290477D02*
X24933390Y17195239D01*
X24933390Y17195239D02*
X24933390Y17004763D01*
X24933390Y17004763D02*
X24981009Y16909525D01*
X24981009Y16909525D02*
X25028628Y16861906D01*
X25028628Y16861906D02*
X25123866Y16814287D01*
X25123866Y16814287D02*
X25314342Y16814287D01*
X25314342Y16814287D02*
X25409580Y16861906D01*
X25409580Y16861906D02*
X25457200Y16909525D01*
X25457200Y16909525D02*
X25504819Y17004763D01*
X25504819Y17004763D02*
X25504819Y17195239D01*
X25504819Y17195239D02*
X25457200Y17290477D01*
X25457200Y17290477D02*
X25409580Y17338096D01*
X25409580Y17338096D02*
X25314342Y17385715D01*
X25314342Y17385715D02*
X25123866Y17385715D01*
X25123866Y17385715D02*
X25028628Y17338096D01*
X25028628Y17338096D02*
X24981009Y17290477D01*
X24981009Y17290477D02*
X24933390Y17195239D01*
X31059580Y10382143D02*
X31107200Y10334524D01*
X31107200Y10334524D02*
X31154819Y10191667D01*
X31154819Y10191667D02*
X31154819Y10096429D01*
X31154819Y10096429D02*
X31107200Y9953572D01*
X31107200Y9953572D02*
X31011961Y9858334D01*
X31011961Y9858334D02*
X30916723Y9810715D01*
X30916723Y9810715D02*
X30726247Y9763096D01*
X30726247Y9763096D02*
X30583390Y9763096D01*
X30583390Y9763096D02*
X30392914Y9810715D01*
X30392914Y9810715D02*
X30297676Y9858334D01*
X30297676Y9858334D02*
X30202438Y9953572D01*
X30202438Y9953572D02*
X30154819Y10096429D01*
X30154819Y10096429D02*
X30154819Y10191667D01*
X30154819Y10191667D02*
X30202438Y10334524D01*
X30202438Y10334524D02*
X30250057Y10382143D01*
X31154819Y11334524D02*
X31154819Y10763096D01*
X31154819Y11048810D02*
X30154819Y11048810D01*
X30154819Y11048810D02*
X30297676Y10953572D01*
X30297676Y10953572D02*
X30392914Y10858334D01*
X30392914Y10858334D02*
X30440533Y10763096D01*
X31154819Y12286905D02*
X31154819Y11715477D01*
X31154819Y12001191D02*
X30154819Y12001191D01*
X30154819Y12001191D02*
X30297676Y11905953D01*
X30297676Y11905953D02*
X30392914Y11810715D01*
X30392914Y11810715D02*
X30440533Y11715477D01*
X21516667Y6817800D02*
X21659524Y6770181D01*
X21659524Y6770181D02*
X21897619Y6770181D01*
X21897619Y6770181D02*
X21992857Y6817800D01*
X21992857Y6817800D02*
X22040476Y6865420D01*
X22040476Y6865420D02*
X22088095Y6960658D01*
X22088095Y6960658D02*
X22088095Y7055896D01*
X22088095Y7055896D02*
X22040476Y7151134D01*
X22040476Y7151134D02*
X21992857Y7198753D01*
X21992857Y7198753D02*
X21897619Y7246372D01*
X21897619Y7246372D02*
X21707143Y7293991D01*
X21707143Y7293991D02*
X21611905Y7341610D01*
X21611905Y7341610D02*
X21564286Y7389229D01*
X21564286Y7389229D02*
X21516667Y7484467D01*
X21516667Y7484467D02*
X21516667Y7579705D01*
X21516667Y7579705D02*
X21564286Y7674943D01*
X21564286Y7674943D02*
X21611905Y7722562D01*
X21611905Y7722562D02*
X21707143Y7770181D01*
X21707143Y7770181D02*
X21945238Y7770181D01*
X21945238Y7770181D02*
X22088095Y7722562D01*
X22421429Y7770181D02*
X22659524Y6770181D01*
X22659524Y6770181D02*
X22850000Y7484467D01*
X22850000Y7484467D02*
X23040476Y6770181D01*
X23040476Y6770181D02*
X23278572Y7770181D01*
X24183333Y6770181D02*
X23611905Y6770181D01*
X23897619Y6770181D02*
X23897619Y7770181D01*
X23897619Y7770181D02*
X23802381Y7627324D01*
X23802381Y7627324D02*
X23707143Y7532086D01*
X23707143Y7532086D02*
X23611905Y7484467D01*
X24383333Y19240420D02*
X24335714Y19192800D01*
X24335714Y19192800D02*
X24192857Y19145181D01*
X24192857Y19145181D02*
X24097619Y19145181D01*
X24097619Y19145181D02*
X23954762Y19192800D01*
X23954762Y19192800D02*
X23859524Y19288039D01*
X23859524Y19288039D02*
X23811905Y19383277D01*
X23811905Y19383277D02*
X23764286Y19573753D01*
X23764286Y19573753D02*
X23764286Y19716610D01*
X23764286Y19716610D02*
X23811905Y19907086D01*
X23811905Y19907086D02*
X23859524Y20002324D01*
X23859524Y20002324D02*
X23954762Y20097562D01*
X23954762Y20097562D02*
X24097619Y20145181D01*
X24097619Y20145181D02*
X24192857Y20145181D01*
X24192857Y20145181D02*
X24335714Y20097562D01*
X24335714Y20097562D02*
X24383333Y20049943D01*
X24764286Y20049943D02*
X24811905Y20097562D01*
X24811905Y20097562D02*
X24907143Y20145181D01*
X24907143Y20145181D02*
X25145238Y20145181D01*
X25145238Y20145181D02*
X25240476Y20097562D01*
X25240476Y20097562D02*
X25288095Y20049943D01*
X25288095Y20049943D02*
X25335714Y19954705D01*
X25335714Y19954705D02*
X25335714Y19859467D01*
X25335714Y19859467D02*
X25288095Y19716610D01*
X25288095Y19716610D02*
X24716667Y19145181D01*
X24716667Y19145181D02*
X25335714Y19145181D01*
X12854819Y10538096D02*
X13664342Y10538096D01*
X13664342Y10538096D02*
X13759580Y10585715D01*
X13759580Y10585715D02*
X13807200Y10633334D01*
X13807200Y10633334D02*
X13854819Y10728572D01*
X13854819Y10728572D02*
X13854819Y10919048D01*
X13854819Y10919048D02*
X13807200Y11014286D01*
X13807200Y11014286D02*
X13759580Y11061905D01*
X13759580Y11061905D02*
X13664342Y11109524D01*
X13664342Y11109524D02*
X12854819Y11109524D01*
X12854819Y11490477D02*
X12854819Y12109524D01*
X12854819Y12109524D02*
X13235771Y11776191D01*
X13235771Y11776191D02*
X13235771Y11919048D01*
X13235771Y11919048D02*
X13283390Y12014286D01*
X13283390Y12014286D02*
X13331009Y12061905D01*
X13331009Y12061905D02*
X13426247Y12109524D01*
X13426247Y12109524D02*
X13664342Y12109524D01*
X13664342Y12109524D02*
X13759580Y12061905D01*
X13759580Y12061905D02*
X13807200Y12014286D01*
X13807200Y12014286D02*
X13854819Y11919048D01*
X13854819Y11919048D02*
X13854819Y11633334D01*
X13854819Y11633334D02*
X13807200Y11538096D01*
X13807200Y11538096D02*
X13759580Y11490477D01*
X35057142Y4615420D02*
X35009523Y4567800D01*
X35009523Y4567800D02*
X34866666Y4520181D01*
X34866666Y4520181D02*
X34771428Y4520181D01*
X34771428Y4520181D02*
X34628571Y4567800D01*
X34628571Y4567800D02*
X34533333Y4663039D01*
X34533333Y4663039D02*
X34485714Y4758277D01*
X34485714Y4758277D02*
X34438095Y4948753D01*
X34438095Y4948753D02*
X34438095Y5091610D01*
X34438095Y5091610D02*
X34485714Y5282086D01*
X34485714Y5282086D02*
X34533333Y5377324D01*
X34533333Y5377324D02*
X34628571Y5472562D01*
X34628571Y5472562D02*
X34771428Y5520181D01*
X34771428Y5520181D02*
X34866666Y5520181D01*
X34866666Y5520181D02*
X35009523Y5472562D01*
X35009523Y5472562D02*
X35057142Y5424943D01*
X36009523Y4520181D02*
X35438095Y4520181D01*
X35723809Y4520181D02*
X35723809Y5520181D01*
X35723809Y5520181D02*
X35628571Y5377324D01*
X35628571Y5377324D02*
X35533333Y5282086D01*
X35533333Y5282086D02*
X35438095Y5234467D01*
X36342857Y5520181D02*
X37009523Y5520181D01*
X37009523Y5520181D02*
X36580952Y4520181D01*
X37578628Y22523810D02*
X38054819Y22523810D01*
X37054819Y22190477D02*
X37578628Y22523810D01*
X37578628Y22523810D02*
X37054819Y22857143D01*
X38054819Y23714286D02*
X38054819Y23142858D01*
X38054819Y23428572D02*
X37054819Y23428572D01*
X37054819Y23428572D02*
X37197676Y23333334D01*
X37197676Y23333334D02*
X37292914Y23238096D01*
X37292914Y23238096D02*
X37340533Y23142858D01*
X12819819Y16896667D02*
X13534104Y16896667D01*
X13534104Y16896667D02*
X13676961Y16849048D01*
X13676961Y16849048D02*
X13772200Y16753810D01*
X13772200Y16753810D02*
X13819819Y16610953D01*
X13819819Y16610953D02*
X13819819Y16515715D01*
X12819819Y17277620D02*
X12819819Y17896667D01*
X12819819Y17896667D02*
X13200771Y17563334D01*
X13200771Y17563334D02*
X13200771Y17706191D01*
X13200771Y17706191D02*
X13248390Y17801429D01*
X13248390Y17801429D02*
X13296009Y17849048D01*
X13296009Y17849048D02*
X13391247Y17896667D01*
X13391247Y17896667D02*
X13629342Y17896667D01*
X13629342Y17896667D02*
X13724580Y17849048D01*
X13724580Y17849048D02*
X13772200Y17801429D01*
X13772200Y17801429D02*
X13819819Y17706191D01*
X13819819Y17706191D02*
X13819819Y17420477D01*
X13819819Y17420477D02*
X13772200Y17325239D01*
X13772200Y17325239D02*
X13724580Y17277620D01*
X7308333Y24695181D02*
X6975000Y25171372D01*
X6736905Y24695181D02*
X6736905Y25695181D01*
X6736905Y25695181D02*
X7117857Y25695181D01*
X7117857Y25695181D02*
X7213095Y25647562D01*
X7213095Y25647562D02*
X7260714Y25599943D01*
X7260714Y25599943D02*
X7308333Y25504705D01*
X7308333Y25504705D02*
X7308333Y25361848D01*
X7308333Y25361848D02*
X7260714Y25266610D01*
X7260714Y25266610D02*
X7213095Y25218991D01*
X7213095Y25218991D02*
X7117857Y25171372D01*
X7117857Y25171372D02*
X6736905Y25171372D01*
X8260714Y24695181D02*
X7689286Y24695181D01*
X7975000Y24695181D02*
X7975000Y25695181D01*
X7975000Y25695181D02*
X7879762Y25552324D01*
X7879762Y25552324D02*
X7784524Y25457086D01*
X7784524Y25457086D02*
X7689286Y25409467D01*
X34982142Y20515420D02*
X34934523Y20467800D01*
X34934523Y20467800D02*
X34791666Y20420181D01*
X34791666Y20420181D02*
X34696428Y20420181D01*
X34696428Y20420181D02*
X34553571Y20467800D01*
X34553571Y20467800D02*
X34458333Y20563039D01*
X34458333Y20563039D02*
X34410714Y20658277D01*
X34410714Y20658277D02*
X34363095Y20848753D01*
X34363095Y20848753D02*
X34363095Y20991610D01*
X34363095Y20991610D02*
X34410714Y21182086D01*
X34410714Y21182086D02*
X34458333Y21277324D01*
X34458333Y21277324D02*
X34553571Y21372562D01*
X34553571Y21372562D02*
X34696428Y21420181D01*
X34696428Y21420181D02*
X34791666Y21420181D01*
X34791666Y21420181D02*
X34934523Y21372562D01*
X34934523Y21372562D02*
X34982142Y21324943D01*
X35934523Y20420181D02*
X35363095Y20420181D01*
X35648809Y20420181D02*
X35648809Y21420181D01*
X35648809Y21420181D02*
X35553571Y21277324D01*
X35553571Y21277324D02*
X35458333Y21182086D01*
X35458333Y21182086D02*
X35363095Y21134467D01*
X36553571Y21420181D02*
X36648809Y21420181D01*
X36648809Y21420181D02*
X36744047Y21372562D01*
X36744047Y21372562D02*
X36791666Y21324943D01*
X36791666Y21324943D02*
X36839285Y21229705D01*
X36839285Y21229705D02*
X36886904Y21039229D01*
X36886904Y21039229D02*
X36886904Y20801134D01*
X36886904Y20801134D02*
X36839285Y20610658D01*
X36839285Y20610658D02*
X36791666Y20515420D01*
X36791666Y20515420D02*
X36744047Y20467800D01*
X36744047Y20467800D02*
X36648809Y20420181D01*
X36648809Y20420181D02*
X36553571Y20420181D01*
X36553571Y20420181D02*
X36458333Y20467800D01*
X36458333Y20467800D02*
X36410714Y20515420D01*
X36410714Y20515420D02*
X36363095Y20610658D01*
X36363095Y20610658D02*
X36315476Y20801134D01*
X36315476Y20801134D02*
X36315476Y21039229D01*
X36315476Y21039229D02*
X36363095Y21229705D01*
X36363095Y21229705D02*
X36410714Y21324943D01*
X36410714Y21324943D02*
X36458333Y21372562D01*
X36458333Y21372562D02*
X36553571Y21420181D01*
X36059580Y14358334D02*
X36107200Y14310715D01*
X36107200Y14310715D02*
X36154819Y14167858D01*
X36154819Y14167858D02*
X36154819Y14072620D01*
X36154819Y14072620D02*
X36107200Y13929763D01*
X36107200Y13929763D02*
X36011961Y13834525D01*
X36011961Y13834525D02*
X35916723Y13786906D01*
X35916723Y13786906D02*
X35726247Y13739287D01*
X35726247Y13739287D02*
X35583390Y13739287D01*
X35583390Y13739287D02*
X35392914Y13786906D01*
X35392914Y13786906D02*
X35297676Y13834525D01*
X35297676Y13834525D02*
X35202438Y13929763D01*
X35202438Y13929763D02*
X35154819Y14072620D01*
X35154819Y14072620D02*
X35154819Y14167858D01*
X35154819Y14167858D02*
X35202438Y14310715D01*
X35202438Y14310715D02*
X35250057Y14358334D01*
X36154819Y15310715D02*
X36154819Y14739287D01*
X36154819Y15025001D02*
X35154819Y15025001D01*
X35154819Y15025001D02*
X35297676Y14929763D01*
X35297676Y14929763D02*
X35392914Y14834525D01*
X35392914Y14834525D02*
X35440533Y14739287D01*
X34588095Y13395181D02*
X34588095Y12585658D01*
X34588095Y12585658D02*
X34635714Y12490420D01*
X34635714Y12490420D02*
X34683333Y12442800D01*
X34683333Y12442800D02*
X34778571Y12395181D01*
X34778571Y12395181D02*
X34969047Y12395181D01*
X34969047Y12395181D02*
X35064285Y12442800D01*
X35064285Y12442800D02*
X35111904Y12490420D01*
X35111904Y12490420D02*
X35159523Y12585658D01*
X35159523Y12585658D02*
X35159523Y13395181D01*
X35588095Y13299943D02*
X35635714Y13347562D01*
X35635714Y13347562D02*
X35730952Y13395181D01*
X35730952Y13395181D02*
X35969047Y13395181D01*
X35969047Y13395181D02*
X36064285Y13347562D01*
X36064285Y13347562D02*
X36111904Y13299943D01*
X36111904Y13299943D02*
X36159523Y13204705D01*
X36159523Y13204705D02*
X36159523Y13109467D01*
X36159523Y13109467D02*
X36111904Y12966610D01*
X36111904Y12966610D02*
X35540476Y12395181D01*
X35540476Y12395181D02*
X36159523Y12395181D01*
X31407142Y7040420D02*
X31359523Y6992800D01*
X31359523Y6992800D02*
X31216666Y6945181D01*
X31216666Y6945181D02*
X31121428Y6945181D01*
X31121428Y6945181D02*
X30978571Y6992800D01*
X30978571Y6992800D02*
X30883333Y7088039D01*
X30883333Y7088039D02*
X30835714Y7183277D01*
X30835714Y7183277D02*
X30788095Y7373753D01*
X30788095Y7373753D02*
X30788095Y7516610D01*
X30788095Y7516610D02*
X30835714Y7707086D01*
X30835714Y7707086D02*
X30883333Y7802324D01*
X30883333Y7802324D02*
X30978571Y7897562D01*
X30978571Y7897562D02*
X31121428Y7945181D01*
X31121428Y7945181D02*
X31216666Y7945181D01*
X31216666Y7945181D02*
X31359523Y7897562D01*
X31359523Y7897562D02*
X31407142Y7849943D01*
X32359523Y6945181D02*
X31788095Y6945181D01*
X32073809Y6945181D02*
X32073809Y7945181D01*
X32073809Y7945181D02*
X31978571Y7802324D01*
X31978571Y7802324D02*
X31883333Y7707086D01*
X31883333Y7707086D02*
X31788095Y7659467D01*
X32740476Y7849943D02*
X32788095Y7897562D01*
X32788095Y7897562D02*
X32883333Y7945181D01*
X32883333Y7945181D02*
X33121428Y7945181D01*
X33121428Y7945181D02*
X33216666Y7897562D01*
X33216666Y7897562D02*
X33264285Y7849943D01*
X33264285Y7849943D02*
X33311904Y7754705D01*
X33311904Y7754705D02*
X33311904Y7659467D01*
X33311904Y7659467D02*
X33264285Y7516610D01*
X33264285Y7516610D02*
X32692857Y6945181D01*
X32692857Y6945181D02*
X33311904Y6945181D01*
X24433333Y24690420D02*
X24385714Y24642800D01*
X24385714Y24642800D02*
X24242857Y24595181D01*
X24242857Y24595181D02*
X24147619Y24595181D01*
X24147619Y24595181D02*
X24004762Y24642800D01*
X24004762Y24642800D02*
X23909524Y24738039D01*
X23909524Y24738039D02*
X23861905Y24833277D01*
X23861905Y24833277D02*
X23814286Y25023753D01*
X23814286Y25023753D02*
X23814286Y25166610D01*
X23814286Y25166610D02*
X23861905Y25357086D01*
X23861905Y25357086D02*
X23909524Y25452324D01*
X23909524Y25452324D02*
X24004762Y25547562D01*
X24004762Y25547562D02*
X24147619Y25595181D01*
X24147619Y25595181D02*
X24242857Y25595181D01*
X24242857Y25595181D02*
X24385714Y25547562D01*
X24385714Y25547562D02*
X24433333Y25499943D01*
X25338095Y25595181D02*
X24861905Y25595181D01*
X24861905Y25595181D02*
X24814286Y25118991D01*
X24814286Y25118991D02*
X24861905Y25166610D01*
X24861905Y25166610D02*
X24957143Y25214229D01*
X24957143Y25214229D02*
X25195238Y25214229D01*
X25195238Y25214229D02*
X25290476Y25166610D01*
X25290476Y25166610D02*
X25338095Y25118991D01*
X25338095Y25118991D02*
X25385714Y25023753D01*
X25385714Y25023753D02*
X25385714Y24785658D01*
X25385714Y24785658D02*
X25338095Y24690420D01*
X25338095Y24690420D02*
X25290476Y24642800D01*
X25290476Y24642800D02*
X25195238Y24595181D01*
X25195238Y24595181D02*
X24957143Y24595181D01*
X24957143Y24595181D02*
X24861905Y24642800D01*
X24861905Y24642800D02*
X24814286Y24690420D01*
X39195238Y5068991D02*
X38861905Y5068991D01*
X38861905Y4545181D02*
X38861905Y5545181D01*
X38861905Y5545181D02*
X39338095Y5545181D01*
X39719048Y4545181D02*
X39719048Y5545181D01*
X39719048Y5545181D02*
X40052381Y4830896D01*
X40052381Y4830896D02*
X40385714Y5545181D01*
X40385714Y5545181D02*
X40385714Y4545181D01*
X40766667Y5545181D02*
X41385714Y5545181D01*
X41385714Y5545181D02*
X41052381Y5164229D01*
X41052381Y5164229D02*
X41195238Y5164229D01*
X41195238Y5164229D02*
X41290476Y5116610D01*
X41290476Y5116610D02*
X41338095Y5068991D01*
X41338095Y5068991D02*
X41385714Y4973753D01*
X41385714Y4973753D02*
X41385714Y4735658D01*
X41385714Y4735658D02*
X41338095Y4640420D01*
X41338095Y4640420D02*
X41290476Y4592800D01*
X41290476Y4592800D02*
X41195238Y4545181D01*
X41195238Y4545181D02*
X40909524Y4545181D01*
X40909524Y4545181D02*
X40814286Y4592800D01*
X40814286Y4592800D02*
X40766667Y4640420D01*
X34754819Y3133334D02*
X34278628Y2800001D01*
X34754819Y2561906D02*
X33754819Y2561906D01*
X33754819Y2561906D02*
X33754819Y2942858D01*
X33754819Y2942858D02*
X33802438Y3038096D01*
X33802438Y3038096D02*
X33850057Y3085715D01*
X33850057Y3085715D02*
X33945295Y3133334D01*
X33945295Y3133334D02*
X34088152Y3133334D01*
X34088152Y3133334D02*
X34183390Y3085715D01*
X34183390Y3085715D02*
X34231009Y3038096D01*
X34231009Y3038096D02*
X34278628Y2942858D01*
X34278628Y2942858D02*
X34278628Y2561906D01*
X33754819Y3990477D02*
X33754819Y3800001D01*
X33754819Y3800001D02*
X33802438Y3704763D01*
X33802438Y3704763D02*
X33850057Y3657144D01*
X33850057Y3657144D02*
X33992914Y3561906D01*
X33992914Y3561906D02*
X34183390Y3514287D01*
X34183390Y3514287D02*
X34564342Y3514287D01*
X34564342Y3514287D02*
X34659580Y3561906D01*
X34659580Y3561906D02*
X34707200Y3609525D01*
X34707200Y3609525D02*
X34754819Y3704763D01*
X34754819Y3704763D02*
X34754819Y3895239D01*
X34754819Y3895239D02*
X34707200Y3990477D01*
X34707200Y3990477D02*
X34659580Y4038096D01*
X34659580Y4038096D02*
X34564342Y4085715D01*
X34564342Y4085715D02*
X34326247Y4085715D01*
X34326247Y4085715D02*
X34231009Y4038096D01*
X34231009Y4038096D02*
X34183390Y3990477D01*
X34183390Y3990477D02*
X34135771Y3895239D01*
X34135771Y3895239D02*
X34135771Y3704763D01*
X34135771Y3704763D02*
X34183390Y3609525D01*
X34183390Y3609525D02*
X34231009Y3561906D01*
X34231009Y3561906D02*
X34326247Y3514287D01*
X13457142Y7465420D02*
X13409523Y7417800D01*
X13409523Y7417800D02*
X13266666Y7370181D01*
X13266666Y7370181D02*
X13171428Y7370181D01*
X13171428Y7370181D02*
X13028571Y7417800D01*
X13028571Y7417800D02*
X12933333Y7513039D01*
X12933333Y7513039D02*
X12885714Y7608277D01*
X12885714Y7608277D02*
X12838095Y7798753D01*
X12838095Y7798753D02*
X12838095Y7941610D01*
X12838095Y7941610D02*
X12885714Y8132086D01*
X12885714Y8132086D02*
X12933333Y8227324D01*
X12933333Y8227324D02*
X13028571Y8322562D01*
X13028571Y8322562D02*
X13171428Y8370181D01*
X13171428Y8370181D02*
X13266666Y8370181D01*
X13266666Y8370181D02*
X13409523Y8322562D01*
X13409523Y8322562D02*
X13457142Y8274943D01*
X14409523Y7370181D02*
X13838095Y7370181D01*
X14123809Y7370181D02*
X14123809Y8370181D01*
X14123809Y8370181D02*
X14028571Y8227324D01*
X14028571Y8227324D02*
X13933333Y8132086D01*
X13933333Y8132086D02*
X13838095Y8084467D01*
X14885714Y7370181D02*
X15076190Y7370181D01*
X15076190Y7370181D02*
X15171428Y7417800D01*
X15171428Y7417800D02*
X15219047Y7465420D01*
X15219047Y7465420D02*
X15314285Y7608277D01*
X15314285Y7608277D02*
X15361904Y7798753D01*
X15361904Y7798753D02*
X15361904Y8179705D01*
X15361904Y8179705D02*
X15314285Y8274943D01*
X15314285Y8274943D02*
X15266666Y8322562D01*
X15266666Y8322562D02*
X15171428Y8370181D01*
X15171428Y8370181D02*
X14980952Y8370181D01*
X14980952Y8370181D02*
X14885714Y8322562D01*
X14885714Y8322562D02*
X14838095Y8274943D01*
X14838095Y8274943D02*
X14790476Y8179705D01*
X14790476Y8179705D02*
X14790476Y7941610D01*
X14790476Y7941610D02*
X14838095Y7846372D01*
X14838095Y7846372D02*
X14885714Y7798753D01*
X14885714Y7798753D02*
X14980952Y7751134D01*
X14980952Y7751134D02*
X15171428Y7751134D01*
X15171428Y7751134D02*
X15266666Y7798753D01*
X15266666Y7798753D02*
X15314285Y7846372D01*
X15314285Y7846372D02*
X15361904Y7941610D01*
X32104819Y1133334D02*
X31628628Y800001D01*
X32104819Y561906D02*
X31104819Y561906D01*
X31104819Y561906D02*
X31104819Y942858D01*
X31104819Y942858D02*
X31152438Y1038096D01*
X31152438Y1038096D02*
X31200057Y1085715D01*
X31200057Y1085715D02*
X31295295Y1133334D01*
X31295295Y1133334D02*
X31438152Y1133334D01*
X31438152Y1133334D02*
X31533390Y1085715D01*
X31533390Y1085715D02*
X31581009Y1038096D01*
X31581009Y1038096D02*
X31628628Y942858D01*
X31628628Y942858D02*
X31628628Y561906D01*
X31104819Y1466668D02*
X31104819Y2133334D01*
X31104819Y2133334D02*
X32104819Y1704763D01*
X32132142Y23740420D02*
X32084523Y23692800D01*
X32084523Y23692800D02*
X31941666Y23645181D01*
X31941666Y23645181D02*
X31846428Y23645181D01*
X31846428Y23645181D02*
X31703571Y23692800D01*
X31703571Y23692800D02*
X31608333Y23788039D01*
X31608333Y23788039D02*
X31560714Y23883277D01*
X31560714Y23883277D02*
X31513095Y24073753D01*
X31513095Y24073753D02*
X31513095Y24216610D01*
X31513095Y24216610D02*
X31560714Y24407086D01*
X31560714Y24407086D02*
X31608333Y24502324D01*
X31608333Y24502324D02*
X31703571Y24597562D01*
X31703571Y24597562D02*
X31846428Y24645181D01*
X31846428Y24645181D02*
X31941666Y24645181D01*
X31941666Y24645181D02*
X32084523Y24597562D01*
X32084523Y24597562D02*
X32132142Y24549943D01*
X33084523Y23645181D02*
X32513095Y23645181D01*
X32798809Y23645181D02*
X32798809Y24645181D01*
X32798809Y24645181D02*
X32703571Y24502324D01*
X32703571Y24502324D02*
X32608333Y24407086D01*
X32608333Y24407086D02*
X32513095Y24359467D01*
X33941666Y24311848D02*
X33941666Y23645181D01*
X33703571Y24692800D02*
X33465476Y23978515D01*
X33465476Y23978515D02*
X34084523Y23978515D01*
X1454819Y11066667D02*
X2169104Y11066667D01*
X2169104Y11066667D02*
X2311961Y11019048D01*
X2311961Y11019048D02*
X2407200Y10923810D01*
X2407200Y10923810D02*
X2454819Y10780953D01*
X2454819Y10780953D02*
X2454819Y10685715D01*
X2454819Y12066667D02*
X2454819Y11495239D01*
X2454819Y11780953D02*
X1454819Y11780953D01*
X1454819Y11780953D02*
X1597676Y11685715D01*
X1597676Y11685715D02*
X1692914Y11590477D01*
X1692914Y11590477D02*
X1740533Y11495239D01*
D11*
X30458333Y21270153D02*
X29982143Y21270153D01*
X29982143Y21270153D02*
X29982143Y21670153D01*
X31315476Y21270153D02*
X30744048Y21270153D01*
X31029762Y21270153D02*
X31029762Y21670153D01*
X31029762Y21670153D02*
X30934524Y21613010D01*
X30934524Y21613010D02*
X30839286Y21574915D01*
X30839286Y21574915D02*
X30744048Y21555867D01*
D10*
X24083333Y22490420D02*
X24035714Y22442800D01*
X24035714Y22442800D02*
X23892857Y22395181D01*
X23892857Y22395181D02*
X23797619Y22395181D01*
X23797619Y22395181D02*
X23654762Y22442800D01*
X23654762Y22442800D02*
X23559524Y22538039D01*
X23559524Y22538039D02*
X23511905Y22633277D01*
X23511905Y22633277D02*
X23464286Y22823753D01*
X23464286Y22823753D02*
X23464286Y22966610D01*
X23464286Y22966610D02*
X23511905Y23157086D01*
X23511905Y23157086D02*
X23559524Y23252324D01*
X23559524Y23252324D02*
X23654762Y23347562D01*
X23654762Y23347562D02*
X23797619Y23395181D01*
X23797619Y23395181D02*
X23892857Y23395181D01*
X23892857Y23395181D02*
X24035714Y23347562D01*
X24035714Y23347562D02*
X24083333Y23299943D01*
X24416667Y23395181D02*
X25083333Y23395181D01*
X25083333Y23395181D02*
X24654762Y22395181D01*
X37954819Y8961906D02*
X36954819Y8961906D01*
X36954819Y8961906D02*
X36954819Y9200001D01*
X36954819Y9200001D02*
X37002438Y9342858D01*
X37002438Y9342858D02*
X37097676Y9438096D01*
X37097676Y9438096D02*
X37192914Y9485715D01*
X37192914Y9485715D02*
X37383390Y9533334D01*
X37383390Y9533334D02*
X37526247Y9533334D01*
X37526247Y9533334D02*
X37716723Y9485715D01*
X37716723Y9485715D02*
X37811961Y9438096D01*
X37811961Y9438096D02*
X37907200Y9342858D01*
X37907200Y9342858D02*
X37954819Y9200001D01*
X37954819Y9200001D02*
X37954819Y8961906D01*
X37954819Y10485715D02*
X37954819Y9914287D01*
X37954819Y10200001D02*
X36954819Y10200001D01*
X36954819Y10200001D02*
X37097676Y10104763D01*
X37097676Y10104763D02*
X37192914Y10009525D01*
X37192914Y10009525D02*
X37240533Y9914287D01*
X20608333Y5640420D02*
X20560714Y5592800D01*
X20560714Y5592800D02*
X20417857Y5545181D01*
X20417857Y5545181D02*
X20322619Y5545181D01*
X20322619Y5545181D02*
X20179762Y5592800D01*
X20179762Y5592800D02*
X20084524Y5688039D01*
X20084524Y5688039D02*
X20036905Y5783277D01*
X20036905Y5783277D02*
X19989286Y5973753D01*
X19989286Y5973753D02*
X19989286Y6116610D01*
X19989286Y6116610D02*
X20036905Y6307086D01*
X20036905Y6307086D02*
X20084524Y6402324D01*
X20084524Y6402324D02*
X20179762Y6497562D01*
X20179762Y6497562D02*
X20322619Y6545181D01*
X20322619Y6545181D02*
X20417857Y6545181D01*
X20417857Y6545181D02*
X20560714Y6497562D01*
X20560714Y6497562D02*
X20608333Y6449943D01*
X21465476Y6211848D02*
X21465476Y5545181D01*
X21227381Y6592800D02*
X20989286Y5878515D01*
X20989286Y5878515D02*
X21608333Y5878515D01*
X41138095Y20145181D02*
X41138095Y21145181D01*
X41138095Y20668991D02*
X41709523Y20668991D01*
X41709523Y20145181D02*
X41709523Y21145181D01*
X42090476Y21145181D02*
X42709523Y21145181D01*
X42709523Y21145181D02*
X42376190Y20764229D01*
X42376190Y20764229D02*
X42519047Y20764229D01*
X42519047Y20764229D02*
X42614285Y20716610D01*
X42614285Y20716610D02*
X42661904Y20668991D01*
X42661904Y20668991D02*
X42709523Y20573753D01*
X42709523Y20573753D02*
X42709523Y20335658D01*
X42709523Y20335658D02*
X42661904Y20240420D01*
X42661904Y20240420D02*
X42614285Y20192800D01*
X42614285Y20192800D02*
X42519047Y20145181D01*
X42519047Y20145181D02*
X42233333Y20145181D01*
X42233333Y20145181D02*
X42138095Y20192800D01*
X42138095Y20192800D02*
X42090476Y20240420D01*
X26940476Y8495181D02*
X27607142Y7495181D01*
X27607142Y8495181D02*
X26940476Y7495181D01*
X28511904Y7495181D02*
X27940476Y7495181D01*
X28226190Y7495181D02*
X28226190Y8495181D01*
X28226190Y8495181D02*
X28130952Y8352324D01*
X28130952Y8352324D02*
X28035714Y8257086D01*
X28035714Y8257086D02*
X27940476Y8209467D01*
X44991666Y13820181D02*
X44991666Y13105896D01*
X44991666Y13105896D02*
X44944047Y12963039D01*
X44944047Y12963039D02*
X44848809Y12867800D01*
X44848809Y12867800D02*
X44705952Y12820181D01*
X44705952Y12820181D02*
X44610714Y12820181D01*
X45896428Y13486848D02*
X45896428Y12820181D01*
X45658333Y13867800D02*
X45420238Y13153515D01*
X45420238Y13153515D02*
X46039285Y13153515D01*
X24784580Y10182143D02*
X24832200Y10134524D01*
X24832200Y10134524D02*
X24879819Y9991667D01*
X24879819Y9991667D02*
X24879819Y9896429D01*
X24879819Y9896429D02*
X24832200Y9753572D01*
X24832200Y9753572D02*
X24736961Y9658334D01*
X24736961Y9658334D02*
X24641723Y9610715D01*
X24641723Y9610715D02*
X24451247Y9563096D01*
X24451247Y9563096D02*
X24308390Y9563096D01*
X24308390Y9563096D02*
X24117914Y9610715D01*
X24117914Y9610715D02*
X24022676Y9658334D01*
X24022676Y9658334D02*
X23927438Y9753572D01*
X23927438Y9753572D02*
X23879819Y9896429D01*
X23879819Y9896429D02*
X23879819Y9991667D01*
X23879819Y9991667D02*
X23927438Y10134524D01*
X23927438Y10134524D02*
X23975057Y10182143D01*
X24879819Y11134524D02*
X24879819Y10563096D01*
X24879819Y10848810D02*
X23879819Y10848810D01*
X23879819Y10848810D02*
X24022676Y10753572D01*
X24022676Y10753572D02*
X24117914Y10658334D01*
X24117914Y10658334D02*
X24165533Y10563096D01*
X23879819Y11467858D02*
X23879819Y12086905D01*
X23879819Y12086905D02*
X24260771Y11753572D01*
X24260771Y11753572D02*
X24260771Y11896429D01*
X24260771Y11896429D02*
X24308390Y11991667D01*
X24308390Y11991667D02*
X24356009Y12039286D01*
X24356009Y12039286D02*
X24451247Y12086905D01*
X24451247Y12086905D02*
X24689342Y12086905D01*
X24689342Y12086905D02*
X24784580Y12039286D01*
X24784580Y12039286D02*
X24832200Y11991667D01*
X24832200Y11991667D02*
X24879819Y11896429D01*
X24879819Y11896429D02*
X24879819Y11610715D01*
X24879819Y11610715D02*
X24832200Y11515477D01*
X24832200Y11515477D02*
X24784580Y11467858D01*
X13788095Y22845181D02*
X13788095Y23845181D01*
X13788095Y23368991D02*
X14359523Y23368991D01*
X14359523Y22845181D02*
X14359523Y23845181D01*
X15359523Y22845181D02*
X14788095Y22845181D01*
X15073809Y22845181D02*
X15073809Y23845181D01*
X15073809Y23845181D02*
X14978571Y23702324D01*
X14978571Y23702324D02*
X14883333Y23607086D01*
X14883333Y23607086D02*
X14788095Y23559467D01*
X14638095Y4195181D02*
X14638095Y5195181D01*
X14638095Y4718991D02*
X15209523Y4718991D01*
X15209523Y4195181D02*
X15209523Y5195181D01*
X15638095Y5099943D02*
X15685714Y5147562D01*
X15685714Y5147562D02*
X15780952Y5195181D01*
X15780952Y5195181D02*
X16019047Y5195181D01*
X16019047Y5195181D02*
X16114285Y5147562D01*
X16114285Y5147562D02*
X16161904Y5099943D01*
X16161904Y5099943D02*
X16209523Y5004705D01*
X16209523Y5004705D02*
X16209523Y4909467D01*
X16209523Y4909467D02*
X16161904Y4766610D01*
X16161904Y4766610D02*
X15590476Y4195181D01*
X15590476Y4195181D02*
X16209523Y4195181D01*
X42913095Y6045181D02*
X42913095Y7045181D01*
X42913095Y6568991D02*
X43484523Y6568991D01*
X43484523Y6045181D02*
X43484523Y7045181D01*
X44389285Y6711848D02*
X44389285Y6045181D01*
X44151190Y7092800D02*
X43913095Y6378515D01*
X43913095Y6378515D02*
X44532142Y6378515D01*
X23809580Y16383334D02*
X23857200Y16335715D01*
X23857200Y16335715D02*
X23904819Y16192858D01*
X23904819Y16192858D02*
X23904819Y16097620D01*
X23904819Y16097620D02*
X23857200Y15954763D01*
X23857200Y15954763D02*
X23761961Y15859525D01*
X23761961Y15859525D02*
X23666723Y15811906D01*
X23666723Y15811906D02*
X23476247Y15764287D01*
X23476247Y15764287D02*
X23333390Y15764287D01*
X23333390Y15764287D02*
X23142914Y15811906D01*
X23142914Y15811906D02*
X23047676Y15859525D01*
X23047676Y15859525D02*
X22952438Y15954763D01*
X22952438Y15954763D02*
X22904819Y16097620D01*
X22904819Y16097620D02*
X22904819Y16192858D01*
X22904819Y16192858D02*
X22952438Y16335715D01*
X22952438Y16335715D02*
X23000057Y16383334D01*
X22904819Y17240477D02*
X22904819Y17050001D01*
X22904819Y17050001D02*
X22952438Y16954763D01*
X22952438Y16954763D02*
X23000057Y16907144D01*
X23000057Y16907144D02*
X23142914Y16811906D01*
X23142914Y16811906D02*
X23333390Y16764287D01*
X23333390Y16764287D02*
X23714342Y16764287D01*
X23714342Y16764287D02*
X23809580Y16811906D01*
X23809580Y16811906D02*
X23857200Y16859525D01*
X23857200Y16859525D02*
X23904819Y16954763D01*
X23904819Y16954763D02*
X23904819Y17145239D01*
X23904819Y17145239D02*
X23857200Y17240477D01*
X23857200Y17240477D02*
X23809580Y17288096D01*
X23809580Y17288096D02*
X23714342Y17335715D01*
X23714342Y17335715D02*
X23476247Y17335715D01*
X23476247Y17335715D02*
X23381009Y17288096D01*
X23381009Y17288096D02*
X23333390Y17240477D01*
X23333390Y17240477D02*
X23285771Y17145239D01*
X23285771Y17145239D02*
X23285771Y16954763D01*
X23285771Y16954763D02*
X23333390Y16859525D01*
X23333390Y16859525D02*
X23381009Y16811906D01*
X23381009Y16811906D02*
X23476247Y16764287D01*
X30333333Y24895181D02*
X29857143Y24895181D01*
X29857143Y24895181D02*
X29857143Y25895181D01*
X30619048Y25799943D02*
X30666667Y25847562D01*
X30666667Y25847562D02*
X30761905Y25895181D01*
X30761905Y25895181D02*
X31000000Y25895181D01*
X31000000Y25895181D02*
X31095238Y25847562D01*
X31095238Y25847562D02*
X31142857Y25799943D01*
X31142857Y25799943D02*
X31190476Y25704705D01*
X31190476Y25704705D02*
X31190476Y25609467D01*
X31190476Y25609467D02*
X31142857Y25466610D01*
X31142857Y25466610D02*
X30571429Y24895181D01*
X30571429Y24895181D02*
X31190476Y24895181D01*
D12*
%TO.C,J2*%
X1790000Y8565000D02*
X1790000Y2635000D01*
X4760000Y9885000D02*
X6410000Y9885000D01*
X4760000Y1315000D02*
X6410000Y1315000D01*
X6410000Y9885000D02*
X6410000Y8035000D01*
X6410000Y8035000D02*
X7200000Y8035000D01*
X6410000Y1315000D02*
X6410000Y3165000D01*
%TO.C,R4*%
X33870000Y10956359D02*
X33870000Y11263641D01*
X34630000Y10956359D02*
X34630000Y11263641D01*
%TO.C,R2*%
X6403641Y11480000D02*
X6096359Y11480000D01*
X6403641Y10720000D02*
X6096359Y10720000D01*
%TO.C,C15*%
X36890000Y17707836D02*
X36890000Y17492164D01*
X37610000Y17707836D02*
X37610000Y17492164D01*
%TO.C,R5*%
X35120000Y10956359D02*
X35120000Y11263641D01*
X35880000Y10956359D02*
X35880000Y11263641D01*
%TO.C,C16*%
X40107836Y19960000D02*
X39892164Y19960000D01*
X40107836Y19240000D02*
X39892164Y19240000D01*
%TO.C,C9*%
X27607836Y22210000D02*
X27392164Y22210000D01*
X27607836Y21490000D02*
X27392164Y21490000D01*
%TO.C,R3*%
X38720000Y11913641D02*
X38720000Y11606359D01*
X39480000Y11913641D02*
X39480000Y11606359D01*
%TO.C,U1*%
X9490000Y18960000D02*
X11310000Y18960000D01*
X9490000Y18910000D02*
X9490000Y18960000D01*
X9490000Y15840000D02*
X9490000Y15890000D01*
X11310000Y18960000D02*
X11310000Y18910000D01*
X11310000Y15890000D02*
X11310000Y15840000D01*
X11310000Y15840000D02*
X9490000Y15840000D01*
X8950000Y18910000D02*
X8710000Y19240000D01*
X9190000Y19240000D01*
X8950000Y18910000D01*
G36*
X8950000Y18910000D02*
G01*
X8710000Y19240000D01*
X9190000Y19240000D01*
X8950000Y18910000D01*
G37*
%TO.C,C3*%
X32142164Y11710000D02*
X32357836Y11710000D01*
X32142164Y10990000D02*
X32357836Y10990000D01*
%TO.C,C18*%
X10540580Y14810000D02*
X10259420Y14810000D01*
X10540580Y13790000D02*
X10259420Y13790000D01*
D11*
%TO.C,FLT1*%
X40112500Y18600000D02*
X42112500Y18600000D01*
X42112500Y18600000D02*
X42112500Y17600000D01*
X42112500Y17600000D02*
X40112500Y17600000D01*
X40212500Y18100000D02*
G75*
G02*
X40012500Y18100000I-100000J0D01*
G01*
X40012500Y18100000D02*
G75*
G02*
X40212500Y18100000I100000J0D01*
G01*
D12*
%TO.C,C8*%
X24640000Y14072164D02*
X24640000Y14287836D01*
X25360000Y14072164D02*
X25360000Y14287836D01*
%TO.C,C11*%
X28892164Y12060000D02*
X29107836Y12060000D01*
X28892164Y11340000D02*
X29107836Y11340000D01*
D13*
%TO.C,SW1*%
X22640000Y6050000D02*
X28760000Y6050000D01*
X22640000Y2350000D02*
X22640000Y6050000D01*
X28760000Y6050000D02*
X28760000Y2350000D01*
X28760000Y2350000D02*
X22640000Y2350000D01*
D12*
%TO.C,C2*%
X24157836Y18360000D02*
X23942164Y18360000D01*
X24157836Y17640000D02*
X23942164Y17640000D01*
%TO.C,U3*%
X8740000Y12310000D02*
X8790000Y12310000D01*
X8740000Y10490000D02*
X8740000Y12310000D01*
X8790000Y10490000D02*
X8740000Y10490000D01*
X10690000Y10490000D02*
X9910000Y10490000D01*
X11810000Y12310000D02*
X11860000Y12310000D01*
X11860000Y12310000D02*
X11860000Y10490000D01*
X11860000Y10490000D02*
X11810000Y10490000D01*
X12140000Y12610000D02*
X11810000Y12850000D01*
X12140000Y13090000D01*
X12140000Y12610000D01*
G36*
X12140000Y12610000D02*
G01*
X11810000Y12850000D01*
X12140000Y13090000D01*
X12140000Y12610000D01*
G37*
%TO.C,C17*%
X32052164Y5360000D02*
X32267836Y5360000D01*
X32052164Y4640000D02*
X32267836Y4640000D01*
%TO.C,Y1*%
X34290000Y21940000D02*
X36710000Y21940000D01*
X36710000Y21940000D02*
X36710000Y24760000D01*
%TO.C,J3*%
X17095000Y19135000D02*
X17730000Y19135000D01*
X17095000Y18500000D02*
X17095000Y19135000D01*
%TO.C,R1*%
X5596359Y24230000D02*
X5903641Y24230000D01*
X5596359Y23470000D02*
X5903641Y23470000D01*
%TO.C,C10*%
X35140000Y19457836D02*
X35140000Y19242164D01*
X35860000Y19457836D02*
X35860000Y19242164D01*
%TO.C,C1*%
X35140000Y16957836D02*
X35140000Y16742164D01*
X35860000Y16957836D02*
X35860000Y16742164D01*
%TO.C,U2*%
X26790000Y20460000D02*
X27265000Y20460000D01*
X26790000Y19985000D02*
X26790000Y20460000D01*
X26790000Y13240000D02*
X26790000Y13715000D01*
X27265000Y13240000D02*
X26790000Y13240000D01*
X33535000Y20460000D02*
X34010000Y20460000D01*
X34010000Y20460000D02*
X34010000Y19985000D01*
X34010000Y13715000D02*
X34010000Y13240000D01*
X34010000Y13240000D02*
X33535000Y13240000D01*
X27890000Y12380000D02*
X27410000Y12380000D01*
X27650000Y12710000D01*
X27890000Y12380000D01*
G36*
X27890000Y12380000D02*
G01*
X27410000Y12380000D01*
X27650000Y12710000D01*
X27890000Y12380000D01*
G37*
%TO.C,C12*%
X31592164Y9160000D02*
X31807836Y9160000D01*
X31592164Y8440000D02*
X31807836Y8440000D01*
%TO.C,C5*%
X27607836Y24960000D02*
X27392164Y24960000D01*
X27607836Y24240000D02*
X27392164Y24240000D01*
%TO.C,R6*%
X32520000Y3563641D02*
X32520000Y3256359D01*
X33280000Y3563641D02*
X33280000Y3256359D01*
%TO.C,C19*%
X10615580Y8510000D02*
X10334420Y8510000D01*
X10615580Y7490000D02*
X10334420Y7490000D01*
%TO.C,R7*%
X31220000Y3563641D02*
X31220000Y3256359D01*
X31980000Y3563641D02*
X31980000Y3256359D01*
%TO.C,C14*%
X31609420Y23110000D02*
X31890580Y23110000D01*
X31609420Y22090000D02*
X31890580Y22090000D01*
%TO.C,J1*%
X2495000Y22330000D02*
X4195000Y22330000D01*
X2495000Y12990000D02*
X4195000Y12990000D01*
%TO.C,C7*%
X27653641Y23480000D02*
X27346359Y23480000D01*
X27653641Y22720000D02*
X27346359Y22720000D01*
%TO.C,C4*%
X19707836Y4610000D02*
X19492164Y4610000D01*
X19707836Y3890000D02*
X19492164Y3890000D01*
%TO.C,X1*%
X26440000Y9090000D02*
X28960000Y9090000D01*
X28960000Y10810000D02*
X26440000Y10810000D01*
X28960000Y9090000D02*
X28960000Y10810000D01*
%TO.C,J4*%
X43940000Y18700000D02*
X43940000Y18060000D01*
X43940000Y18060000D02*
X43310000Y18060000D01*
X43940000Y15900000D02*
X43940000Y16540000D01*
X46660000Y18650000D02*
X46660000Y15950000D01*
%TO.C,C13*%
X26607836Y12060000D02*
X26392164Y12060000D01*
X26607836Y11340000D02*
X26392164Y11340000D01*
%TO.C,C6*%
X23390000Y14072164D02*
X23390000Y14287836D01*
X24110000Y14072164D02*
X24110000Y14287836D01*
%TD*%
M02*
