%TF.GenerationSoftware,KiCad,Pcbnew,9.0.7*%
%TF.CreationDate,2026-04-02T21:59:26+03:00*%
%TF.ProjectId,stm32,73746d33-322e-46b6-9963-61645f706362,rev?*%
%TF.SameCoordinates,PX5204180PY58c97e0*%
%TF.FileFunction,Soldermask,Top*%
%TF.FilePolarity,Negative*%
%FSLAX46Y46*%
G04 Gerber Fmt 4.6, Leading zero omitted, Abs format (unit mm)*
G04 Created by KiCad (PCBNEW 9.0.7) date 2026-04-02 21:59:26*
%MOMM*%
%LPD*%
G01*
G04 APERTURE LIST*
G04 Aperture macros list*
%AMRoundRect*
0 Rectangle with rounded corners*
0 $1 Rounding radius*
0 $2 $3 $4 $5 $6 $7 $8 $9 X,Y pos of 4 corners*
0 Add a 4 corners polygon primitive as box body*
4,1,4,$2,$3,$4,$5,$6,$7,$8,$9,$2,$3,0*
0 Add four circle primitives for the rounded corners*
1,1,$1+$1,$2,$3*
1,1,$1+$1,$4,$5*
1,1,$1+$1,$6,$7*
1,1,$1+$1,$8,$9*
0 Add four rect primitives between the rounded corners*
20,1,$1+$1,$2,$3,$4,$5,0*
20,1,$1+$1,$4,$5,$6,$7,0*
20,1,$1+$1,$6,$7,$8,$9,0*
20,1,$1+$1,$8,$9,$2,$3,0*%
G04 Aperture macros list end*
%ADD10RoundRect,0.190000X-0.740000X0.190000X-0.740000X-0.190000X0.740000X-0.190000X0.740000X0.190000X0*%
%ADD11RoundRect,0.290000X-1.140000X0.290000X-1.140000X-0.290000X1.140000X-0.290000X1.140000X0.290000X0*%
%ADD12RoundRect,0.175000X0.225000X-0.175000X0.225000X0.175000X-0.225000X0.175000X-0.225000X-0.175000X0*%
%ADD13RoundRect,0.175000X0.175000X0.225000X-0.175000X0.225000X-0.175000X-0.225000X0.175000X-0.225000X0*%
%ADD14RoundRect,0.180000X-0.210000X0.180000X-0.210000X-0.180000X0.210000X-0.180000X0.210000X0.180000X0*%
%ADD15C,2.000000*%
%ADD16RoundRect,0.187500X-0.187500X-0.212500X0.187500X-0.212500X0.187500X0.212500X-0.187500X0.212500X0*%
%ADD17RoundRect,0.180000X0.180000X0.210000X-0.180000X0.210000X-0.180000X-0.210000X0.180000X-0.210000X0*%
%ADD18RoundRect,0.175000X-0.225000X0.175000X-0.225000X-0.175000X0.225000X-0.175000X0.225000X0.175000X0*%
%ADD19RoundRect,0.190000X-0.552500X-0.190000X0.552500X-0.190000X0.552500X0.190000X-0.552500X0.190000X0*%
%ADD20RoundRect,0.180000X-0.180000X-0.210000X0.180000X-0.210000X0.180000X0.210000X-0.180000X0.210000X0*%
%ADD21RoundRect,0.265000X0.265000X0.290000X-0.265000X0.290000X-0.265000X-0.290000X0.265000X-0.290000X0*%
%ADD22RoundRect,0.108750X-0.108750X-0.321250X0.108750X-0.321250X0.108750X0.321250X-0.108750X0.321250X0*%
%ADD23RoundRect,0.060600X-0.244400X-0.141400X0.244400X-0.141400X0.244400X0.141400X-0.244400X0.141400X0*%
%ADD24RoundRect,0.180000X0.210000X-0.180000X0.210000X0.180000X-0.210000X0.180000X-0.210000X-0.180000X0*%
%ADD25RoundRect,0.080000X0.700000X0.750000X-0.700000X0.750000X-0.700000X-0.750000X0.700000X-0.750000X0*%
%ADD26RoundRect,0.050000X0.700000X0.575000X-0.700000X0.575000X-0.700000X-0.575000X0.700000X-0.575000X0*%
%ADD27RoundRect,0.190000X-0.190000X0.552500X-0.190000X-0.552500X0.190000X-0.552500X0.190000X0.552500X0*%
%ADD28RoundRect,0.240000X0.240000X-0.290000X0.240000X0.290000X-0.240000X0.290000X-0.240000X-0.290000X0*%
%ADD29C,2.534900*%
%ADD30C,1.150600*%
%ADD31C,0.947400*%
%ADD32RoundRect,0.175000X-0.175000X-0.225000X0.175000X-0.225000X0.175000X0.225000X-0.175000X0.225000X0*%
%ADD33RoundRect,0.102500X0.102500X-0.415000X0.102500X0.415000X-0.102500X0.415000X-0.102500X-0.415000X0*%
%ADD34RoundRect,0.102500X0.415000X-0.102500X0.415000X0.102500X-0.415000X0.102500X-0.415000X-0.102500X0*%
%ADD35RoundRect,0.102500X0.407500X-0.102500X0.407500X0.102500X-0.407500X0.102500X-0.407500X-0.102500X0*%
%ADD36RoundRect,0.080000X2.800000X-2.800000X2.800000X2.800000X-2.800000X2.800000X-2.800000X-2.800000X0*%
%ADD37RoundRect,0.265000X-0.265000X-0.290000X0.265000X-0.290000X0.265000X0.290000X-0.265000X0.290000X0*%
%ADD38C,0.810000*%
%ADD39RoundRect,0.190000X-0.465000X0.190000X-0.465000X-0.190000X0.465000X-0.190000X0.465000X0.190000X0*%
%ADD40RoundRect,0.115000X-0.540000X0.115000X-0.540000X-0.115000X0.540000X-0.115000X0.540000X0.115000X0*%
%ADD41RoundRect,0.190000X-0.390000X0.190000X-0.390000X-0.190000X0.390000X-0.190000X0.390000X0.190000X0*%
%ADD42O,2.260000X1.160000*%
%ADD43O,1.960000X1.160000*%
%ADD44RoundRect,0.187500X0.212500X-0.187500X0.212500X0.187500X-0.212500X0.187500X-0.212500X-0.187500X0*%
%ADD45C,0.860000*%
%ADD46C,4.560000*%
%ADD47RoundRect,0.190000X0.190000X0.440000X-0.190000X0.440000X-0.190000X-0.440000X0.190000X-0.440000X0*%
%ADD48RoundRect,0.290000X-0.290000X-0.290000X0.290000X-0.290000X0.290000X0.290000X-0.290000X0.290000X0*%
%ADD49RoundRect,0.273810X-0.776190X-0.301190X0.776190X-0.301190X0.776190X0.301190X-0.776190X0.301190X0*%
%ADD50RoundRect,0.273810X-0.876190X-0.301190X0.876190X-0.301190X0.876190X0.301190X-0.876190X0.301190X0*%
G04 APERTURE END LIST*
D10*
%TO.C,J2*%
X6350000Y7475000D03*
X6350000Y6225000D03*
X6350000Y4975000D03*
X6350000Y3725000D03*
D11*
X3150000Y9325000D03*
X3150000Y1875000D03*
%TD*%
D12*
%TO.C,R4*%
X34250000Y10600000D03*
X34250000Y11620000D03*
%TD*%
D13*
%TO.C,R2*%
X6760000Y11100000D03*
X5740000Y11100000D03*
%TD*%
D14*
%TO.C,C15*%
X37250000Y18080000D03*
X37250000Y17120000D03*
%TD*%
D15*
%TO.C,FM2*%
X40700000Y22400000D03*
%TD*%
D12*
%TO.C,R5*%
X35500000Y10600000D03*
X35500000Y11620000D03*
%TD*%
D16*
%TO.C,L3*%
X38515000Y18100000D03*
X39485000Y18100000D03*
%TD*%
D17*
%TO.C,C16*%
X40480000Y19600000D03*
X39520000Y19600000D03*
%TD*%
D15*
%TO.C,FM1*%
X1700000Y24400000D03*
%TD*%
D17*
%TO.C,C9*%
X27980000Y21850000D03*
X27020000Y21850000D03*
%TD*%
D18*
%TO.C,R3*%
X39100000Y12270000D03*
X39100000Y11250000D03*
%TD*%
D19*
%TO.C,U1*%
X9262500Y18350000D03*
X9262500Y17400000D03*
X9262500Y16450000D03*
X11537500Y16450000D03*
X11537500Y17400000D03*
X11537500Y18350000D03*
%TD*%
D20*
%TO.C,C3*%
X31770000Y11350000D03*
X32730000Y11350000D03*
%TD*%
D21*
%TO.C,C18*%
X11175000Y14300000D03*
X9625000Y14300000D03*
%TD*%
D22*
%TO.C,FLT1*%
X40500000Y18100000D03*
D23*
X41112500Y17872500D03*
D22*
X41725000Y18100000D03*
D23*
X41112500Y18327500D03*
%TD*%
D24*
%TO.C,C8*%
X25000000Y13700000D03*
X25000000Y14660000D03*
%TD*%
D20*
%TO.C,C11*%
X28520000Y11700000D03*
X29480000Y11700000D03*
%TD*%
D25*
%TO.C,SW1*%
X29600000Y4200000D03*
D26*
X21800000Y4200000D03*
%TD*%
D17*
%TO.C,C2*%
X24530000Y18000000D03*
X23570000Y18000000D03*
%TD*%
D27*
%TO.C,U3*%
X11250000Y12537500D03*
X10300000Y12537500D03*
X9350000Y12537500D03*
X9350000Y10262500D03*
X11250000Y10262500D03*
%TD*%
D20*
%TO.C,C17*%
X31680000Y5000000D03*
X32640000Y5000000D03*
%TD*%
D28*
%TO.C,Y1*%
X36050000Y22650000D03*
X36050000Y24050000D03*
X34950000Y24050000D03*
X34950000Y22650000D03*
%TD*%
D29*
%TO.C,J3*%
X20905000Y19770000D03*
D30*
X18365000Y19770000D03*
D29*
X15825000Y19770000D03*
X20905000Y16595000D03*
X15825000Y16595000D03*
D30*
X19381000Y14690000D03*
X17349000Y14690000D03*
D31*
X17730000Y18500000D03*
X19000000Y18500000D03*
X17730000Y17230000D03*
X19000000Y17230000D03*
X17730000Y15960000D03*
X19000000Y15960000D03*
%TD*%
D32*
%TO.C,R1*%
X5240000Y23850000D03*
X6260000Y23850000D03*
%TD*%
D14*
%TO.C,C10*%
X35500000Y19830000D03*
X35500000Y18870000D03*
%TD*%
%TO.C,C1*%
X35500000Y17330000D03*
X35500000Y16370000D03*
%TD*%
D33*
%TO.C,U2*%
X27650000Y13412500D03*
X28150000Y13412500D03*
X28650000Y13412500D03*
X29150000Y13412500D03*
X29650000Y13412500D03*
X30150000Y13412500D03*
X30650000Y13412500D03*
X31150000Y13412500D03*
X31650000Y13412500D03*
X32150000Y13412500D03*
X32650000Y13412500D03*
X33150000Y13412500D03*
D34*
X33837500Y14100000D03*
X33837500Y14600000D03*
X33837500Y15100000D03*
X33837500Y15600000D03*
X33837500Y16100000D03*
X33837500Y16600000D03*
X33837500Y17100000D03*
X33837500Y17600000D03*
X33837500Y18100000D03*
D35*
X33837500Y18600000D03*
D34*
X33837500Y19100000D03*
X33837500Y19600000D03*
D33*
X33150000Y20287500D03*
X32650000Y20287500D03*
X32150000Y20287500D03*
X31650000Y20287500D03*
X31150000Y20287500D03*
X30650000Y20287500D03*
X30150000Y20287500D03*
X29650000Y20287500D03*
X29150000Y20287500D03*
X28650000Y20287500D03*
X28150000Y20287500D03*
X27650000Y20287500D03*
D34*
X26962500Y19600000D03*
X26962500Y19100000D03*
X26962500Y18600000D03*
X26962500Y18100000D03*
X26962500Y17600000D03*
X26962500Y17100000D03*
X26962500Y16600000D03*
X26962500Y16100000D03*
X26962500Y15600000D03*
X26962500Y15100000D03*
X26962500Y14600000D03*
X26962500Y14100000D03*
D36*
X30400000Y16850000D03*
%TD*%
D20*
%TO.C,C12*%
X31220000Y8800000D03*
X32180000Y8800000D03*
%TD*%
D17*
%TO.C,C5*%
X27980000Y24600000D03*
X27020000Y24600000D03*
%TD*%
D15*
%TO.C,FM3*%
X40750000Y2950000D03*
%TD*%
D18*
%TO.C,R6*%
X32900000Y3920000D03*
X32900000Y2900000D03*
%TD*%
D21*
%TO.C,C19*%
X11250000Y8000000D03*
X9700000Y8000000D03*
%TD*%
D18*
%TO.C,R7*%
X31600000Y3920000D03*
X31600000Y2900000D03*
%TD*%
D37*
%TO.C,C14*%
X30975000Y22600000D03*
X32525000Y22600000D03*
%TD*%
D38*
%TO.C,J1*%
X5000000Y20550000D03*
X5000000Y14770000D03*
D39*
X6075000Y20860000D03*
X6075000Y20060000D03*
D40*
X6075000Y18910000D03*
X6075000Y17910000D03*
X6075000Y17410000D03*
X6075000Y16410000D03*
D39*
X6075000Y15260000D03*
X6075000Y14460000D03*
X6075000Y14460000D03*
X6075000Y15260000D03*
D40*
X6075000Y15910000D03*
X6075000Y16910000D03*
X6075000Y18410000D03*
X6075000Y19410000D03*
D39*
X6075000Y20060000D03*
D41*
X6075000Y20860000D03*
D42*
X5500000Y21980000D03*
D43*
X1320000Y21980000D03*
D42*
X5500000Y13340000D03*
D43*
X1320000Y13340000D03*
%TD*%
D44*
%TO.C,L1*%
X29250000Y21865000D03*
X29250000Y22835000D03*
%TD*%
D13*
%TO.C,C7*%
X28010000Y23100000D03*
X26990000Y23100000D03*
%TD*%
D44*
%TO.C,D1*%
X37850000Y11275000D03*
X37850000Y12245000D03*
%TD*%
D17*
%TO.C,C4*%
X20080000Y4250000D03*
X19120000Y4250000D03*
%TD*%
D45*
%TO.C,H3*%
X43200000Y22950000D03*
X43683274Y24116726D03*
X43683274Y21783274D03*
X44850000Y24600000D03*
D46*
X44850000Y22950000D03*
D45*
X44850000Y21300000D03*
X46016726Y24116726D03*
X46016726Y21783274D03*
X46500000Y22950000D03*
%TD*%
D47*
%TO.C,X1*%
X28400000Y9950000D03*
X27000000Y9950000D03*
%TD*%
D48*
%TO.C,J4*%
X43775000Y17300000D03*
D49*
X45300000Y18775000D03*
D50*
X45300000Y15825000D03*
%TD*%
D17*
%TO.C,C13*%
X26980000Y11700000D03*
X26020000Y11700000D03*
%TD*%
D45*
%TO.C,H1*%
X9250000Y23150000D03*
X9733274Y24316726D03*
X9733274Y21983274D03*
X10900000Y24800000D03*
D46*
X10900000Y23150000D03*
D45*
X10900000Y21500000D03*
X12066726Y24316726D03*
X12066726Y21983274D03*
X12550000Y23150000D03*
%TD*%
%TO.C,H2*%
X9900000Y3500000D03*
X10383274Y4666726D03*
X10383274Y2333274D03*
X11550000Y5150000D03*
D46*
X11550000Y3500000D03*
D45*
X11550000Y1850000D03*
X12716726Y4666726D03*
X12716726Y2333274D03*
X13200000Y3500000D03*
%TD*%
%TO.C,H4*%
X43250000Y3233274D03*
X43733274Y4400000D03*
X43733274Y2066548D03*
X44900000Y4883274D03*
D46*
X44900000Y3233274D03*
D45*
X44900000Y1583274D03*
X46066726Y4400000D03*
X46066726Y2066548D03*
X46550000Y3233274D03*
%TD*%
D24*
%TO.C,C6*%
X23750000Y13700000D03*
X23750000Y14660000D03*
%TD*%
D16*
%TO.C,L2*%
X29265000Y24100000D03*
X30235000Y24100000D03*
%TD*%
M02*
