%TF.GenerationSoftware,KiCad,Pcbnew,9.0.7*%
%TF.CreationDate,2026-04-02T21:59:26+03:00*%
%TF.ProjectId,stm32,73746d33-322e-46b6-9963-61645f706362,rev?*%
%TF.SameCoordinates,PX5204180PY58c97e0*%
%TF.FileFunction,Copper,L1,Top*%
%TF.FilePolarity,Positive*%
%FSLAX46Y46*%
G04 Gerber Fmt 4.6, Leading zero omitted, Abs format (unit mm)*
G04 Created by KiCad (PCBNEW 9.0.7) date 2026-04-02 21:59:26*
%MOMM*%
%LPD*%
G01*
G04 APERTURE LIST*
G04 Aperture macros list*
%AMRoundRect*
0 Rectangle with rounded corners*
0 $1 Rounding radius*
0 $2 $3 $4 $5 $6 $7 $8 $9 X,Y pos of 4 corners*
0 Add a 4 corners polygon primitive as box body*
4,1,4,$2,$3,$4,$5,$6,$7,$8,$9,$2,$3,0*
0 Add four circle primitives for the rounded corners*
1,1,$1+$1,$2,$3*
1,1,$1+$1,$4,$5*
1,1,$1+$1,$6,$7*
1,1,$1+$1,$8,$9*
0 Add four rect primitives between the rounded corners*
20,1,$1+$1,$2,$3,$4,$5,0*
20,1,$1+$1,$4,$5,$6,$7,0*
20,1,$1+$1,$6,$7,$8,$9,0*
20,1,$1+$1,$8,$9,$2,$3,0*%
G04 Aperture macros list end*
%TA.AperFunction,SMDPad,CuDef*%
%ADD10RoundRect,0.150000X-0.700000X0.150000X-0.700000X-0.150000X0.700000X-0.150000X0.700000X0.150000X0*%
%TD*%
%TA.AperFunction,SMDPad,CuDef*%
%ADD11RoundRect,0.250000X-1.100000X0.250000X-1.100000X-0.250000X1.100000X-0.250000X1.100000X0.250000X0*%
%TD*%
%TA.AperFunction,SMDPad,CuDef*%
%ADD12RoundRect,0.135000X0.185000X-0.135000X0.185000X0.135000X-0.185000X0.135000X-0.185000X-0.135000X0*%
%TD*%
%TA.AperFunction,SMDPad,CuDef*%
%ADD13RoundRect,0.135000X0.135000X0.185000X-0.135000X0.185000X-0.135000X-0.185000X0.135000X-0.185000X0*%
%TD*%
%TA.AperFunction,SMDPad,CuDef*%
%ADD14RoundRect,0.140000X-0.170000X0.140000X-0.170000X-0.140000X0.170000X-0.140000X0.170000X0.140000X0*%
%TD*%
%TA.AperFunction,SMDPad,CuDef*%
%ADD15C,1.000000*%
%TD*%
%TA.AperFunction,SMDPad,CuDef*%
%ADD16RoundRect,0.147500X-0.147500X-0.172500X0.147500X-0.172500X0.147500X0.172500X-0.147500X0.172500X0*%
%TD*%
%TA.AperFunction,SMDPad,CuDef*%
%ADD17RoundRect,0.140000X0.140000X0.170000X-0.140000X0.170000X-0.140000X-0.170000X0.140000X-0.170000X0*%
%TD*%
%TA.AperFunction,SMDPad,CuDef*%
%ADD18RoundRect,0.135000X-0.185000X0.135000X-0.185000X-0.135000X0.185000X-0.135000X0.185000X0.135000X0*%
%TD*%
%TA.AperFunction,SMDPad,CuDef*%
%ADD19RoundRect,0.150000X-0.512500X-0.150000X0.512500X-0.150000X0.512500X0.150000X-0.512500X0.150000X0*%
%TD*%
%TA.AperFunction,SMDPad,CuDef*%
%ADD20RoundRect,0.140000X-0.140000X-0.170000X0.140000X-0.170000X0.140000X0.170000X-0.140000X0.170000X0*%
%TD*%
%TA.AperFunction,SMDPad,CuDef*%
%ADD21RoundRect,0.225000X0.225000X0.250000X-0.225000X0.250000X-0.225000X-0.250000X0.225000X-0.250000X0*%
%TD*%
%TA.AperFunction,SMDPad,CuDef*%
%ADD22RoundRect,0.068750X-0.068750X-0.281250X0.068750X-0.281250X0.068750X0.281250X-0.068750X0.281250X0*%
%TD*%
%TA.AperFunction,SMDPad,CuDef*%
%ADD23RoundRect,0.036600X-0.188400X-0.085400X0.188400X-0.085400X0.188400X0.085400X-0.188400X0.085400X0*%
%TD*%
%TA.AperFunction,SMDPad,CuDef*%
%ADD24RoundRect,0.140000X0.170000X-0.140000X0.170000X0.140000X-0.170000X0.140000X-0.170000X-0.140000X0*%
%TD*%
%TA.AperFunction,SMDPad,CuDef*%
%ADD25R,1.400000X1.500000*%
%TD*%
%TA.AperFunction,SMDPad,CuDef*%
%ADD26R,1.400000X1.150000*%
%TD*%
%TA.AperFunction,SMDPad,CuDef*%
%ADD27RoundRect,0.150000X-0.150000X0.512500X-0.150000X-0.512500X0.150000X-0.512500X0.150000X0.512500X0*%
%TD*%
%TA.AperFunction,SMDPad,CuDef*%
%ADD28RoundRect,0.200000X0.200000X-0.250000X0.200000X0.250000X-0.200000X0.250000X-0.200000X-0.250000X0*%
%TD*%
%TA.AperFunction,ConnectorPad*%
%ADD29C,0.787400*%
%TD*%
%TA.AperFunction,SMDPad,CuDef*%
%ADD30RoundRect,0.135000X-0.135000X-0.185000X0.135000X-0.185000X0.135000X0.185000X-0.135000X0.185000X0*%
%TD*%
%TA.AperFunction,SMDPad,CuDef*%
%ADD31RoundRect,0.062500X0.062500X-0.375000X0.062500X0.375000X-0.062500X0.375000X-0.062500X-0.375000X0*%
%TD*%
%TA.AperFunction,SMDPad,CuDef*%
%ADD32RoundRect,0.062500X0.375000X-0.062500X0.375000X0.062500X-0.375000X0.062500X-0.375000X-0.062500X0*%
%TD*%
%TA.AperFunction,SMDPad,CuDef*%
%ADD33RoundRect,0.062500X0.367500X-0.062500X0.367500X0.062500X-0.367500X0.062500X-0.367500X-0.062500X0*%
%TD*%
%TA.AperFunction,HeatsinkPad*%
%ADD34R,5.600000X5.600000*%
%TD*%
%TA.AperFunction,SMDPad,CuDef*%
%ADD35RoundRect,0.225000X-0.225000X-0.250000X0.225000X-0.250000X0.225000X0.250000X-0.225000X0.250000X0*%
%TD*%
%TA.AperFunction,SMDPad,CuDef*%
%ADD36RoundRect,0.150000X-0.425000X0.150000X-0.425000X-0.150000X0.425000X-0.150000X0.425000X0.150000X0*%
%TD*%
%TA.AperFunction,SMDPad,CuDef*%
%ADD37RoundRect,0.075000X-0.500000X0.075000X-0.500000X-0.075000X0.500000X-0.075000X0.500000X0.075000X0*%
%TD*%
%TA.AperFunction,SMDPad,CuDef*%
%ADD38RoundRect,0.150000X-0.350000X0.150000X-0.350000X-0.150000X0.350000X-0.150000X0.350000X0.150000X0*%
%TD*%
%TA.AperFunction,HeatsinkPad*%
%ADD39O,2.100000X1.000000*%
%TD*%
%TA.AperFunction,HeatsinkPad*%
%ADD40O,1.800000X1.000000*%
%TD*%
%TA.AperFunction,SMDPad,CuDef*%
%ADD41RoundRect,0.147500X0.172500X-0.147500X0.172500X0.147500X-0.172500X0.147500X-0.172500X-0.147500X0*%
%TD*%
%TA.AperFunction,ComponentPad*%
%ADD42C,0.700000*%
%TD*%
%TA.AperFunction,ComponentPad*%
%ADD43C,4.400000*%
%TD*%
%TA.AperFunction,SMDPad,CuDef*%
%ADD44RoundRect,0.150000X0.150000X0.400000X-0.150000X0.400000X-0.150000X-0.400000X0.150000X-0.400000X0*%
%TD*%
%TA.AperFunction,SMDPad,CuDef*%
%ADD45RoundRect,0.250000X-0.250000X-0.250000X0.250000X-0.250000X0.250000X0.250000X-0.250000X0.250000X0*%
%TD*%
%TA.AperFunction,SMDPad,CuDef*%
%ADD46RoundRect,0.250000X-0.750000X-0.275000X0.750000X-0.275000X0.750000X0.275000X-0.750000X0.275000X0*%
%TD*%
%TA.AperFunction,SMDPad,CuDef*%
%ADD47RoundRect,0.250000X-0.850000X-0.275000X0.850000X-0.275000X0.850000X0.275000X-0.850000X0.275000X0*%
%TD*%
%TA.AperFunction,ViaPad*%
%ADD48C,0.700000*%
%TD*%
%TA.AperFunction,ViaPad*%
%ADD49C,0.900000*%
%TD*%
%TA.AperFunction,Conductor*%
%ADD50C,0.200000*%
%TD*%
%TA.AperFunction,Conductor*%
%ADD51C,0.500000*%
%TD*%
%TA.AperFunction,Conductor*%
%ADD52C,0.190000*%
%TD*%
%TA.AperFunction,Conductor*%
%ADD53C,0.400000*%
%TD*%
%TA.AperFunction,Conductor*%
%ADD54C,0.250000*%
%TD*%
%TA.AperFunction,Conductor*%
%ADD55C,0.300000*%
%TD*%
%TA.AperFunction,Conductor*%
%ADD56C,0.150000*%
%TD*%
%TA.AperFunction,Conductor*%
%ADD57C,0.220000*%
%TD*%
%TA.AperFunction,Conductor*%
%ADD58C,0.170000*%
%TD*%
G04 APERTURE END LIST*
D10*
%TO.P,J2,1,Pin_1*%
%TO.N,+3.3V*%
X6350000Y7475000D03*
%TO.P,J2,2,Pin_2*%
%TO.N,/UART_TXC*%
X6350000Y6225000D03*
%TO.P,J2,3,Pin_3*%
%TO.N,/UART_RXC*%
X6350000Y4975000D03*
%TO.P,J2,4,Pin_4*%
%TO.N,GND*%
X6350000Y3725000D03*
D11*
%TO.P,J2,MP*%
%TO.N,N/C*%
X3150000Y9325000D03*
X3150000Y1875000D03*
%TD*%
D12*
%TO.P,R4,1*%
%TO.N,/UART_TXC*%
X34250000Y10600000D03*
%TO.P,R4,2*%
%TO.N,/UART_TX*%
X34250000Y11620000D03*
%TD*%
D13*
%TO.P,R2,1*%
%TO.N,/USB_CC2*%
X6760000Y11100000D03*
%TO.P,R2,2*%
%TO.N,GND*%
X5740000Y11100000D03*
%TD*%
D14*
%TO.P,C15,1*%
%TO.N,/RF*%
X37250000Y18080000D03*
%TO.P,C15,2*%
%TO.N,GND*%
X37250000Y17120000D03*
%TD*%
D15*
%TO.P,FM2,*%
%TO.N,*%
X40700000Y22400000D03*
%TD*%
D12*
%TO.P,R5,1*%
%TO.N,/UART_RXC*%
X35500000Y10600000D03*
%TO.P,R5,2*%
%TO.N,/UART_RX*%
X35500000Y11620000D03*
%TD*%
D16*
%TO.P,L3,1,1*%
%TO.N,/RF*%
X38515000Y18100000D03*
%TO.P,L3,2,2*%
%TO.N,/RF_MATCH*%
X39485000Y18100000D03*
%TD*%
D17*
%TO.P,C16,1*%
%TO.N,/RF_MATCH*%
X40480000Y19600000D03*
%TO.P,C16,2*%
%TO.N,GND*%
X39520000Y19600000D03*
%TD*%
D15*
%TO.P,FM1,*%
%TO.N,*%
X1700000Y24400000D03*
%TD*%
D17*
%TO.P,C9,1*%
%TO.N,+3.3V*%
X27980000Y21850000D03*
%TO.P,C9,2*%
%TO.N,GND*%
X27020000Y21850000D03*
%TD*%
D18*
%TO.P,R3,1*%
%TO.N,GND*%
X39100000Y12270000D03*
%TO.P,R3,2*%
%TO.N,Net-(D1-K)*%
X39100000Y11250000D03*
%TD*%
D19*
%TO.P,U1,1,I/O1*%
%TO.N,/USBC_D-*%
X9262500Y18350000D03*
%TO.P,U1,2,GND*%
%TO.N,GND*%
X9262500Y17400000D03*
%TO.P,U1,3,I/O2*%
%TO.N,/USBC_D+*%
X9262500Y16450000D03*
%TO.P,U1,4,I/O2*%
%TO.N,/USB_D+*%
X11537500Y16450000D03*
%TO.P,U1,5,VBUS*%
%TO.N,+5V*%
X11537500Y17400000D03*
%TO.P,U1,6,I/O1*%
%TO.N,/USB_D-*%
X11537500Y18350000D03*
%TD*%
D20*
%TO.P,C3,1*%
%TO.N,+3.3V*%
X31770000Y11350000D03*
%TO.P,C3,2*%
%TO.N,GND*%
X32730000Y11350000D03*
%TD*%
D21*
%TO.P,C18,1*%
%TO.N,+5V*%
X11175000Y14300000D03*
%TO.P,C18,2*%
%TO.N,GND*%
X9625000Y14300000D03*
%TD*%
D22*
%TO.P,FLT1,1,IN*%
%TO.N,/RF_MATCH*%
X40500000Y18100000D03*
D23*
%TO.P,FLT1,2,GND*%
%TO.N,GND*%
X41112500Y17872500D03*
D22*
%TO.P,FLT1,3,OUT*%
%TO.N,/RF_ANT*%
X41725000Y18100000D03*
D23*
%TO.P,FLT1,4,GND*%
%TO.N,GND*%
X41112500Y18327500D03*
%TD*%
D24*
%TO.P,C8,1*%
%TO.N,+3.3V*%
X25000000Y13700000D03*
%TO.P,C8,2*%
%TO.N,GND*%
X25000000Y14660000D03*
%TD*%
D20*
%TO.P,C11,1*%
%TO.N,/LSE_OUT*%
X28520000Y11700000D03*
%TO.P,C11,2*%
%TO.N,GND*%
X29480000Y11700000D03*
%TD*%
D25*
%TO.P,SW1,1,1*%
%TO.N,/BSW*%
X29600000Y4200000D03*
D26*
%TO.P,SW1,2,2*%
%TO.N,+3.3V*%
X21800000Y4200000D03*
%TD*%
D17*
%TO.P,C2,1*%
%TO.N,+3.3V*%
X24530000Y18000000D03*
%TO.P,C2,2*%
%TO.N,GND*%
X23570000Y18000000D03*
%TD*%
D27*
%TO.P,U3,1,VIN*%
%TO.N,+5V*%
X11250000Y12537500D03*
%TO.P,U3,2,GND*%
%TO.N,GND*%
X10300000Y12537500D03*
%TO.P,U3,3,EN*%
%TO.N,+5V*%
X9350000Y12537500D03*
%TO.P,U3,4,NC*%
%TO.N,unconnected-(U3-NC-Pad4)*%
X9350000Y10262500D03*
%TO.P,U3,5,VOUT*%
%TO.N,+3.3V*%
X11250000Y10262500D03*
%TD*%
D20*
%TO.P,C17,1*%
%TO.N,/PH3*%
X31680000Y5000000D03*
%TO.P,C17,2*%
%TO.N,GND*%
X32640000Y5000000D03*
%TD*%
D28*
%TO.P,Y1,1,1*%
%TO.N,/HSE_OUT*%
X36050000Y22650000D03*
%TO.P,Y1,2,G*%
%TO.N,GND*%
X36050000Y24050000D03*
%TO.P,Y1,3,3*%
%TO.N,/HSE_IN*%
X34950000Y24050000D03*
%TO.P,Y1,4,G*%
%TO.N,GND*%
X34950000Y22650000D03*
%TD*%
D29*
%TO.P,J3,1,VCC*%
%TO.N,+3.3V*%
X17730000Y18500000D03*
%TO.P,J3,2,SWDIO*%
%TO.N,/SWD_DIO*%
X19000000Y18500000D03*
%TO.P,J3,3,~{RESET}*%
%TO.N,/SWD_NRST*%
X17730000Y17230000D03*
%TO.P,J3,4,SWCLK*%
%TO.N,/SWD_CLK*%
X19000000Y17230000D03*
%TO.P,J3,5,GND*%
%TO.N,GND*%
X17730000Y15960000D03*
%TO.P,J3,6,SWO*%
%TO.N,/SWD_TRC*%
X19000000Y15960000D03*
%TD*%
D30*
%TO.P,R1,1*%
%TO.N,/USB_CC1*%
X5240000Y23850000D03*
%TO.P,R1,2*%
%TO.N,GND*%
X6260000Y23850000D03*
%TD*%
D14*
%TO.P,C10,1*%
%TO.N,+3.3V*%
X35500000Y19830000D03*
%TO.P,C10,2*%
%TO.N,GND*%
X35500000Y18870000D03*
%TD*%
%TO.P,C1,1*%
%TO.N,+3.3V*%
X35500000Y17330000D03*
%TO.P,C1,2*%
%TO.N,GND*%
X35500000Y16370000D03*
%TD*%
D31*
%TO.P,U2,1,VBAT*%
%TO.N,+3.3V*%
X27650000Y13412500D03*
%TO.P,U2,2,PC14*%
%TO.N,/LSE_IN*%
X28150000Y13412500D03*
%TO.P,U2,3,PC15*%
%TO.N,/LSE_OUT*%
X28650000Y13412500D03*
%TO.P,U2,4,PH3*%
%TO.N,/PH3*%
X29150000Y13412500D03*
%TO.P,U2,5,PB8*%
%TO.N,unconnected-(U2-PB8-Pad5)*%
X29650000Y13412500D03*
%TO.P,U2,6,PB9*%
%TO.N,unconnected-(U2-PB9-Pad6)*%
X30150000Y13412500D03*
%TO.P,U2,7,NRST*%
%TO.N,/SWD_NRST*%
X30650000Y13412500D03*
%TO.P,U2,8,VDDA*%
%TO.N,+3.3V*%
X31150000Y13412500D03*
%TO.P,U2,9,PA0*%
%TO.N,unconnected-(U2-PA0-Pad9)*%
X31650000Y13412500D03*
%TO.P,U2,10,PA1*%
%TO.N,unconnected-(U2-PA1-Pad10)*%
X32150000Y13412500D03*
%TO.P,U2,11,PA2*%
%TO.N,/UART_TX*%
X32650000Y13412500D03*
%TO.P,U2,12,PA3*%
%TO.N,/UART_RX*%
X33150000Y13412500D03*
D32*
%TO.P,U2,13,PA4*%
%TO.N,unconnected-(U2-PA4-Pad13)*%
X33837500Y14100000D03*
%TO.P,U2,14,PA5*%
%TO.N,unconnected-(U2-PA5-Pad14)*%
X33837500Y14600000D03*
%TO.P,U2,15,PA6*%
%TO.N,unconnected-(U2-PA6-Pad15)*%
X33837500Y15100000D03*
%TO.P,U2,16,PA7*%
%TO.N,Net-(D1-A)*%
X33837500Y15600000D03*
%TO.P,U2,17,PA8*%
%TO.N,unconnected-(U2-PA8-Pad17)*%
X33837500Y16100000D03*
%TO.P,U2,18,PA9*%
%TO.N,unconnected-(U2-PA9-Pad18)*%
X33837500Y16600000D03*
%TO.P,U2,19,PB2*%
%TO.N,unconnected-(U2-PB2-Pad19)*%
X33837500Y17100000D03*
%TO.P,U2,20,VDD*%
%TO.N,+3.3V*%
X33837500Y17600000D03*
%TO.P,U2,21,RF1*%
%TO.N,/RF*%
X33837500Y18100000D03*
D33*
%TO.P,U2,22,VSSRF*%
%TO.N,GND*%
X33837500Y18600000D03*
D32*
%TO.P,U2,23,VDDRF*%
%TO.N,+3.3V*%
X33837500Y19100000D03*
%TO.P,U2,24,OSC_OUT*%
%TO.N,/HSE_OUT*%
X33837500Y19600000D03*
D31*
%TO.P,U2,25,OSC_IN*%
%TO.N,/HSE_IN*%
X33150000Y20287500D03*
%TO.P,U2,26,AT0*%
%TO.N,unconnected-(U2-AT0-Pad26)*%
X32650000Y20287500D03*
%TO.P,U2,27,AT1*%
%TO.N,unconnected-(U2-AT1-Pad27)*%
X32150000Y20287500D03*
%TO.P,U2,28,PB0*%
%TO.N,unconnected-(U2-PB0-Pad28)*%
X31650000Y20287500D03*
%TO.P,U2,29,PB1*%
%TO.N,unconnected-(U2-PB1-Pad29)*%
X31150000Y20287500D03*
%TO.P,U2,30,PE4*%
%TO.N,unconnected-(U2-PE4-Pad30)*%
X30650000Y20287500D03*
%TO.P,U2,31,VFBSMPS*%
%TO.N,/SMPSFB*%
X30150000Y20287500D03*
%TO.P,U2,32,VSSSMPS*%
%TO.N,GND*%
X29650000Y20287500D03*
%TO.P,U2,33,VLXSMPS*%
%TO.N,/SMPSLX*%
X29150000Y20287500D03*
%TO.P,U2,34,VDDSMPS*%
%TO.N,+3.3V*%
X28650000Y20287500D03*
%TO.P,U2,35,VDD*%
X28150000Y20287500D03*
%TO.P,U2,36,PA10*%
%TO.N,unconnected-(U2-PA10-Pad36)*%
X27650000Y20287500D03*
D32*
%TO.P,U2,37,PA11*%
%TO.N,/USB_D-*%
X26962500Y19600000D03*
%TO.P,U2,38,PA12*%
%TO.N,/USB_D+*%
X26962500Y19100000D03*
%TO.P,U2,39,PA13*%
%TO.N,/SWD_DIO*%
X26962500Y18600000D03*
%TO.P,U2,40,VDDUSB*%
%TO.N,+3.3V*%
X26962500Y18100000D03*
%TO.P,U2,41,PA14*%
%TO.N,/SWD_CLK*%
X26962500Y17600000D03*
%TO.P,U2,42,PA15*%
%TO.N,unconnected-(U2-PA15-Pad42)*%
X26962500Y17100000D03*
%TO.P,U2,43,PB3*%
%TO.N,/SWD_TRC*%
X26962500Y16600000D03*
%TO.P,U2,44,PB4*%
%TO.N,unconnected-(U2-PB4-Pad44)*%
X26962500Y16100000D03*
%TO.P,U2,45,PB5*%
%TO.N,unconnected-(U2-PB5-Pad45)*%
X26962500Y15600000D03*
%TO.P,U2,46,PB6*%
%TO.N,unconnected-(U2-PB6-Pad46)*%
X26962500Y15100000D03*
%TO.P,U2,47,PB7*%
%TO.N,unconnected-(U2-PB7-Pad47)*%
X26962500Y14600000D03*
%TO.P,U2,48,VDD*%
%TO.N,+3.3V*%
X26962500Y14100000D03*
D34*
%TO.P,U2,49,VSS*%
%TO.N,GND*%
X30400000Y16850000D03*
%TD*%
D20*
%TO.P,C12,1*%
%TO.N,/SWD_NRST*%
X31220000Y8800000D03*
%TO.P,C12,2*%
%TO.N,GND*%
X32180000Y8800000D03*
%TD*%
D17*
%TO.P,C5,1*%
%TO.N,+3.3V*%
X27980000Y24600000D03*
%TO.P,C5,2*%
%TO.N,GND*%
X27020000Y24600000D03*
%TD*%
D15*
%TO.P,FM3,*%
%TO.N,*%
X40750000Y2950000D03*
%TD*%
D18*
%TO.P,R6,1*%
%TO.N,/PH3*%
X32900000Y3920000D03*
%TO.P,R6,2*%
%TO.N,GND*%
X32900000Y2900000D03*
%TD*%
D21*
%TO.P,C19,1*%
%TO.N,+3.3V*%
X11250000Y8000000D03*
%TO.P,C19,2*%
%TO.N,GND*%
X9700000Y8000000D03*
%TD*%
D18*
%TO.P,R7,1*%
%TO.N,/PH3*%
X31600000Y3920000D03*
%TO.P,R7,2*%
%TO.N,/BSW*%
X31600000Y2900000D03*
%TD*%
D35*
%TO.P,C14,1*%
%TO.N,/SMPSFB*%
X30975000Y22600000D03*
%TO.P,C14,2*%
%TO.N,GND*%
X32525000Y22600000D03*
%TD*%
D36*
%TO.P,J1,A1,GND*%
%TO.N,GND*%
X6075000Y20860000D03*
%TO.P,J1,A4,VBUS*%
%TO.N,+5V*%
X6075000Y20060000D03*
D37*
%TO.P,J1,A5,CC1*%
%TO.N,/USB_CC1*%
X6075000Y18910000D03*
%TO.P,J1,A6,D+*%
%TO.N,/USBC_D+*%
X6075000Y17910000D03*
%TO.P,J1,A7,D-*%
%TO.N,/USBC_D-*%
X6075000Y17410000D03*
%TO.P,J1,A8,SBU1*%
%TO.N,unconnected-(J1-SBU1-PadA8)*%
X6075000Y16410000D03*
D36*
%TO.P,J1,A9,VBUS*%
%TO.N,+5V*%
X6075000Y15260000D03*
%TO.P,J1,A12,GND*%
%TO.N,GND*%
X6075000Y14460000D03*
%TO.P,J1,B1,GND*%
X6075000Y14460000D03*
%TO.P,J1,B4,VBUS*%
%TO.N,+5V*%
X6075000Y15260000D03*
D37*
%TO.P,J1,B5,CC2*%
%TO.N,/USB_CC2*%
X6075000Y15910000D03*
%TO.P,J1,B6,D+*%
%TO.N,/USBC_D+*%
X6075000Y16910000D03*
%TO.P,J1,B7,D-*%
%TO.N,/USBC_D-*%
X6075000Y18410000D03*
%TO.P,J1,B8,SBU2*%
%TO.N,unconnected-(J1-SBU2-PadB8)*%
X6075000Y19410000D03*
D36*
%TO.P,J1,B9,VBUS*%
%TO.N,+5V*%
X6075000Y20060000D03*
D38*
%TO.P,J1,B12,GND*%
%TO.N,GND*%
X6075000Y20860000D03*
D39*
%TO.P,J1,S1,SHIELD*%
X5500000Y21980000D03*
D40*
X1320000Y21980000D03*
D39*
X5500000Y13340000D03*
D40*
X1320000Y13340000D03*
%TD*%
D41*
%TO.P,L1,1,1*%
%TO.N,/SMPSLX*%
X29250000Y21865000D03*
%TO.P,L1,2,2*%
%TO.N,/SMPSLXL*%
X29250000Y22835000D03*
%TD*%
D13*
%TO.P,C7,1*%
%TO.N,+3.3V*%
X28010000Y23100000D03*
%TO.P,C7,2*%
%TO.N,GND*%
X26990000Y23100000D03*
%TD*%
D41*
%TO.P,D1,1,K*%
%TO.N,Net-(D1-K)*%
X37850000Y11275000D03*
%TO.P,D1,2,A*%
%TO.N,Net-(D1-A)*%
X37850000Y12245000D03*
%TD*%
D17*
%TO.P,C4,1*%
%TO.N,+3.3V*%
X20080000Y4250000D03*
%TO.P,C4,2*%
%TO.N,GND*%
X19120000Y4250000D03*
%TD*%
D42*
%TO.P,H3,1,1*%
%TO.N,GND*%
X43200000Y22950000D03*
X43683274Y24116726D03*
X43683274Y21783274D03*
X44850000Y24600000D03*
D43*
X44850000Y22950000D03*
D42*
X44850000Y21300000D03*
X46016726Y24116726D03*
X46016726Y21783274D03*
X46500000Y22950000D03*
%TD*%
D44*
%TO.P,X1,1,1*%
%TO.N,/LSE_OUT*%
X28400000Y9950000D03*
%TO.P,X1,2,2*%
%TO.N,/LSE_IN*%
X27000000Y9950000D03*
%TD*%
D45*
%TO.P,J4,1,In*%
%TO.N,/RF_ANT*%
X43775000Y17300000D03*
D46*
%TO.P,J4,2,Ext*%
%TO.N,GND*%
X45300000Y18775000D03*
D47*
X45300000Y15825000D03*
%TD*%
D17*
%TO.P,C13,1*%
%TO.N,/LSE_IN*%
X26980000Y11700000D03*
%TO.P,C13,2*%
%TO.N,GND*%
X26020000Y11700000D03*
%TD*%
D42*
%TO.P,H1,1,1*%
%TO.N,GND*%
X9250000Y23150000D03*
X9733274Y24316726D03*
X9733274Y21983274D03*
X10900000Y24800000D03*
D43*
X10900000Y23150000D03*
D42*
X10900000Y21500000D03*
X12066726Y24316726D03*
X12066726Y21983274D03*
X12550000Y23150000D03*
%TD*%
%TO.P,H2,1,1*%
%TO.N,GND*%
X9900000Y3500000D03*
X10383274Y4666726D03*
X10383274Y2333274D03*
X11550000Y5150000D03*
D43*
X11550000Y3500000D03*
D42*
X11550000Y1850000D03*
X12716726Y4666726D03*
X12716726Y2333274D03*
X13200000Y3500000D03*
%TD*%
%TO.P,H4,1,1*%
%TO.N,GND*%
X43250000Y3233274D03*
X43733274Y4400000D03*
X43733274Y2066548D03*
X44900000Y4883274D03*
D43*
X44900000Y3233274D03*
D42*
X44900000Y1583274D03*
X46066726Y4400000D03*
X46066726Y2066548D03*
X46550000Y3233274D03*
%TD*%
D24*
%TO.P,C6,1*%
%TO.N,+3.3V*%
X23750000Y13700000D03*
%TO.P,C6,2*%
%TO.N,GND*%
X23750000Y14660000D03*
%TD*%
D16*
%TO.P,L2,1,1*%
%TO.N,/SMPSLXL*%
X29265000Y24100000D03*
%TO.P,L2,2,2*%
%TO.N,/SMPSFB*%
X30235000Y24100000D03*
%TD*%
D48*
%TO.N,GND*%
X23750000Y15500000D03*
D49*
X22000000Y23400000D03*
X19400000Y23400000D03*
X19350000Y5950000D03*
D48*
X37250000Y23850000D03*
D49*
X45100000Y9700000D03*
D48*
X29000000Y15100000D03*
X32300000Y18500000D03*
X10300000Y11300000D03*
D49*
X8450000Y2100000D03*
D48*
X25500000Y10700000D03*
X8250000Y20800000D03*
X32500000Y23850000D03*
X35500000Y15350000D03*
D49*
X14300000Y6000000D03*
D48*
X29000000Y18600000D03*
X33200000Y9040000D03*
X46700000Y13900000D03*
D49*
X38600000Y23100000D03*
D48*
X33895000Y5035000D03*
X19050000Y3200000D03*
D49*
X16700000Y5900000D03*
X37400000Y21600000D03*
X16550000Y12900000D03*
X29000000Y1100000D03*
X18100000Y24700000D03*
X45000000Y8000000D03*
X46500000Y12100000D03*
X42000000Y12100000D03*
X1000000Y18100000D03*
X39000000Y9700000D03*
X20900000Y1100000D03*
D48*
X32400000Y6300000D03*
D49*
X3000000Y4100000D03*
X33000000Y25100000D03*
X39000000Y8100000D03*
D48*
X26000000Y21850000D03*
D49*
X38100000Y900000D03*
D48*
X8000000Y17350000D03*
X8000000Y14200000D03*
D49*
X1000000Y11100000D03*
X36000000Y3100000D03*
D48*
X45000000Y20100000D03*
X26000000Y24600000D03*
D49*
X39000000Y6100000D03*
D48*
X29000000Y17100000D03*
X43300000Y14000000D03*
X32900000Y1800000D03*
X29750000Y10700000D03*
X46600000Y20200000D03*
D49*
X30100000Y6000000D03*
X45100000Y6500000D03*
X1000000Y16100000D03*
X42000000Y6100000D03*
X24000000Y1100000D03*
D48*
X32800000Y10400000D03*
X30500000Y17100000D03*
D49*
X16700000Y23500000D03*
X3000000Y20100000D03*
D48*
X25000000Y15500000D03*
X15900000Y14500000D03*
D49*
X14900000Y24700000D03*
X36000000Y6100000D03*
X42000000Y15100000D03*
X3000000Y11100000D03*
X18450000Y9850000D03*
X39000000Y15100000D03*
X39000000Y25100000D03*
X38100000Y3000000D03*
X7100000Y1150000D03*
D48*
X36507517Y19079677D03*
X43300000Y20100000D03*
X39000000Y13350000D03*
X30500000Y18600000D03*
D49*
X21100000Y13150000D03*
D48*
X23350000Y18750000D03*
D49*
X21000000Y11100000D03*
D48*
X41650000Y19350000D03*
X32550000Y21450000D03*
X7750000Y13350000D03*
D49*
X42000000Y25100000D03*
X34600000Y1000000D03*
D48*
X38200000Y16600000D03*
X26000000Y23100000D03*
D49*
X42000000Y8100000D03*
X1000000Y20100000D03*
X1000000Y4100000D03*
D48*
X42200000Y16700000D03*
X4750000Y11100000D03*
D49*
X16000000Y11100000D03*
D48*
X30500000Y15100000D03*
D49*
X3000000Y7100000D03*
D48*
X39270000Y20580000D03*
X32000000Y15100000D03*
X32000000Y17100000D03*
D49*
X3000000Y16100000D03*
X40800000Y13600000D03*
D48*
X7400000Y23800000D03*
D49*
X1000000Y7100000D03*
X44000000Y12100000D03*
X42100000Y9800000D03*
X15000000Y1100000D03*
X21100000Y24900000D03*
D48*
X8000000Y3600000D03*
D49*
X17700000Y1100000D03*
D48*
X35000000Y21600000D03*
X45000000Y14200000D03*
X8500000Y8000000D03*
%TO.N,+3.3V*%
X29000000Y25100000D03*
X25900000Y13700000D03*
X36750000Y15750000D03*
X17600000Y20900000D03*
X23800000Y12800000D03*
X36550000Y20100000D03*
X20050000Y3200000D03*
X12600000Y8700000D03*
X25755000Y17955000D03*
X31750000Y10050000D03*
X12500000Y9850000D03*
X7400000Y8800000D03*
%TO.N,/PH3*%
X30000000Y9500000D03*
X31400000Y6300000D03*
%TD*%
D50*
%TO.N,GND*%
X15919839Y14500000D02*
X15900000Y14500000D01*
D51*
X39000000Y12260000D02*
X39000000Y13350000D01*
X6299000Y20860000D02*
X8190000Y20860000D01*
D50*
X17730000Y15960000D02*
X17379839Y15960000D01*
D51*
X27090000Y23100000D02*
X26000000Y23100000D01*
X32500000Y21500000D02*
X32550000Y21450000D01*
X32900000Y2900000D02*
X32900000Y1800000D01*
D52*
X33860000Y5000000D02*
X33895000Y5035000D01*
D51*
X8100000Y14300000D02*
X9625000Y14300000D01*
D52*
X41150000Y17350000D02*
X41150000Y17835000D01*
D53*
X35709677Y19079677D02*
X35500000Y18870000D01*
D51*
X10300000Y11300000D02*
X10300000Y12537500D01*
D54*
X32400000Y18600000D02*
X32300000Y18500000D01*
D51*
X27090000Y21850000D02*
X26000000Y21850000D01*
X39270000Y19850000D02*
X39270000Y20580000D01*
X25500000Y11180000D02*
X26020000Y11700000D01*
D50*
X29687500Y20287500D02*
X29687500Y19287500D01*
D51*
X23350000Y18750000D02*
X23570000Y18530000D01*
X6750000Y14350000D02*
X6410000Y14350000D01*
X7750000Y13350000D02*
X6750000Y14350000D01*
X5840000Y11100000D02*
X4750000Y11100000D01*
X38200000Y16600000D02*
X37770000Y16600000D01*
D52*
X41112500Y18712500D02*
X41112500Y18327500D01*
D51*
X29750000Y11430000D02*
X29480000Y11700000D01*
X32750000Y11010000D02*
X32750000Y10450000D01*
X23570000Y18530000D02*
X23570000Y18000000D01*
X32420000Y9040000D02*
X33200000Y9040000D01*
X9490000Y8400000D02*
X9390000Y8300000D01*
D52*
X41650000Y19250000D02*
X41112500Y18712500D01*
X41650000Y19350000D02*
X41650000Y19250000D01*
D51*
X9700000Y8400000D02*
X9490000Y8400000D01*
X36160000Y23850000D02*
X37250000Y23850000D01*
X32500000Y22940000D02*
X32500000Y21500000D01*
D52*
X41900000Y17000000D02*
X41500000Y17000000D01*
X41500000Y17000000D02*
X41150000Y17350000D01*
D55*
X45000000Y19050000D02*
X45000000Y20100000D01*
D52*
X41150000Y17835000D02*
X41112500Y17872500D01*
D50*
X29687500Y19287500D02*
X29000000Y18600000D01*
D51*
X8800000Y8300000D02*
X8500000Y8000000D01*
D52*
X42200000Y16700000D02*
X41900000Y17000000D01*
D51*
X45000000Y14200000D02*
X45000000Y15690000D01*
X39520000Y19600000D02*
X39270000Y19850000D01*
X29750000Y10700000D02*
X29750000Y11430000D01*
X27090000Y24600000D02*
X26000000Y24600000D01*
X37770000Y16600000D02*
X37250000Y17120000D01*
X8190000Y20860000D02*
X8250000Y20800000D01*
X23750000Y15500000D02*
X23750000Y14660000D01*
X32500000Y22760000D02*
X32500000Y23850000D01*
D50*
X17379839Y15960000D02*
X15919839Y14500000D01*
D53*
X36507517Y19079677D02*
X35709677Y19079677D01*
D51*
X33895000Y5035000D02*
X33825000Y4965000D01*
X19050000Y4290000D02*
X19050000Y3200000D01*
X35000000Y22440000D02*
X35000000Y21600000D01*
D54*
X33837500Y18600000D02*
X32400000Y18600000D01*
D51*
X32750000Y10450000D02*
X32800000Y10400000D01*
D54*
X35470000Y18900000D02*
X35500000Y18870000D01*
D51*
X9390000Y8300000D02*
X8800000Y8300000D01*
X25500000Y10700000D02*
X25500000Y11180000D01*
X6910000Y3600000D02*
X8000000Y3600000D01*
X6310000Y23800000D02*
X7400000Y23800000D01*
X8840000Y17350000D02*
X8000000Y17350000D01*
X25000000Y15500000D02*
X25000000Y14660000D01*
X8000000Y14200000D02*
X8100000Y14300000D01*
X35500000Y16440000D02*
X35500000Y15350000D01*
X32540000Y5000000D02*
X33860000Y5000000D01*
X32180000Y8800000D02*
X32420000Y9040000D01*
%TO.N,+3.3V*%
X28900000Y25000000D02*
X29000000Y25100000D01*
D55*
X17458700Y20758700D02*
X17600000Y20900000D01*
D51*
X28050000Y21200000D02*
X28050000Y21780000D01*
X25000000Y13700000D02*
X23750000Y13700000D01*
X20080000Y4250000D02*
X20080000Y3230000D01*
D55*
X25945000Y18100000D02*
X27000000Y18100000D01*
D54*
X34450000Y19100000D02*
X35180000Y19830000D01*
D55*
X26225000Y13700000D02*
X25900000Y13700000D01*
D50*
X31150000Y12750000D02*
X31400000Y12500000D01*
D51*
X20080000Y3230000D02*
X20050000Y3200000D01*
D54*
X33875000Y19100000D02*
X34450000Y19100000D01*
D51*
X7400000Y8500000D02*
X7025000Y8125000D01*
D55*
X25755000Y17955000D02*
X25800000Y17955000D01*
D51*
X31770000Y12130000D02*
X31770000Y11350000D01*
D54*
X35180000Y19830000D02*
X35500000Y19830000D01*
D50*
X31750000Y10050000D02*
X31750000Y11330000D01*
D51*
X28150000Y21100000D02*
X28050000Y21200000D01*
X35809999Y17330000D02*
X35500000Y17330000D01*
X27980000Y24600000D02*
X27980000Y24730000D01*
X25755000Y17955000D02*
X25755000Y18000000D01*
X25000000Y13700000D02*
X25900000Y13700000D01*
X25150000Y18000000D02*
X24530000Y18000000D01*
D55*
X17730000Y18500000D02*
X17458700Y18771300D01*
X28187500Y20287500D02*
X28650000Y20287500D01*
D51*
X31400000Y12500000D02*
X31770000Y12130000D01*
X12387500Y9962500D02*
X12500000Y9850000D01*
X36230000Y19830000D02*
X35500000Y19830000D01*
X7400000Y8800000D02*
X7400000Y8500000D01*
X23800000Y12800000D02*
X23800000Y13650000D01*
X25755000Y17955000D02*
X25195000Y17955000D01*
X7025000Y8125000D02*
X7000000Y8125000D01*
D55*
X25800000Y17955000D02*
X25945000Y18100000D01*
D51*
X28050000Y21780000D02*
X27980000Y21850000D01*
X31750000Y11330000D02*
X31770000Y11350000D01*
D55*
X28187500Y21062500D02*
X28187500Y20287500D01*
X26512500Y13412500D02*
X26225000Y13700000D01*
D51*
X36500000Y20100000D02*
X36230000Y19830000D01*
D55*
X27650000Y13412500D02*
X26512500Y13412500D01*
D51*
X23800000Y13650000D02*
X23750000Y13700000D01*
X35839999Y17300000D02*
X35809999Y17330000D01*
D55*
X28150000Y21100000D02*
X28187500Y21062500D01*
D50*
X31150000Y13412500D02*
X31150000Y12750000D01*
D51*
X12300000Y8400000D02*
X12600000Y8700000D01*
D55*
X27000000Y14100000D02*
X26512500Y13612500D01*
D51*
X36550000Y20100000D02*
X36500000Y20100000D01*
X20080000Y4250000D02*
X21750000Y4250000D01*
D55*
X17458700Y18771300D02*
X17458700Y20758700D01*
D51*
X11250000Y8400000D02*
X12300000Y8400000D01*
D55*
X33875000Y17600000D02*
X35230000Y17600000D01*
D51*
X27980000Y24730000D02*
X28250000Y25000000D01*
X27980000Y24600000D02*
X27980000Y21850000D01*
X11450000Y9962500D02*
X12387500Y9962500D01*
X28250000Y25000000D02*
X28900000Y25000000D01*
X36400000Y16100000D02*
X36400000Y16950000D01*
X25195000Y17955000D02*
X25150000Y18000000D01*
X36750000Y15750000D02*
X36400000Y16100000D01*
D55*
X26512500Y13612500D02*
X26512500Y13412500D01*
D51*
X7000000Y8125000D02*
X6350000Y7475000D01*
X36050000Y17300000D02*
X35839999Y17300000D01*
D55*
X35230000Y17600000D02*
X35500000Y17330000D01*
D51*
X36400000Y16950000D02*
X36050000Y17300000D01*
D56*
%TO.N,/LSE_OUT*%
X28437500Y11782500D02*
X28520000Y11700000D01*
X28687500Y13412500D02*
X28687500Y12994556D01*
X28687500Y12994556D02*
X28700000Y12982056D01*
X28600000Y11780000D02*
X28520000Y11700000D01*
X28500000Y10050000D02*
X28400000Y9950000D01*
X28520000Y11700000D02*
X28500000Y11680000D01*
D55*
X28400000Y11580000D02*
X28400000Y9950000D01*
D54*
X28700000Y11880000D02*
X28520000Y11700000D01*
X28700000Y12982056D02*
X28700000Y11880000D01*
D52*
%TO.N,/SWD_NRST*%
X31100000Y12000000D02*
X31100000Y8920000D01*
X15900000Y8400000D02*
X30900000Y8400000D01*
X16500000Y18200000D02*
X15100000Y18200000D01*
X31100000Y8920000D02*
X31220000Y8800000D01*
X13900000Y10400000D02*
X15900000Y8400000D01*
X31220000Y8720000D02*
X31220000Y8800000D01*
X17730000Y17230000D02*
X17470000Y17230000D01*
X30687500Y12412500D02*
X31100000Y12000000D01*
X30687500Y13412500D02*
X30687500Y12412500D01*
X15100000Y18200000D02*
X13900000Y17000000D01*
X13900000Y17000000D02*
X13900000Y10400000D01*
X17470000Y17230000D02*
X16500000Y18200000D01*
X30900000Y8400000D02*
X31220000Y8720000D01*
D56*
%TO.N,/LSE_IN*%
X28187500Y13412500D02*
X28187500Y12807500D01*
D55*
X26980000Y11700000D02*
X26980000Y9970000D01*
D56*
X28187500Y12807500D02*
X27230000Y11850000D01*
X26980000Y9970000D02*
X27000000Y9950000D01*
D51*
%TO.N,/SMPSFB*%
X30400000Y24100000D02*
X30975000Y23525000D01*
D54*
X30490000Y21390000D02*
X30620000Y21390000D01*
D51*
X30235000Y24100000D02*
X30400000Y24100000D01*
D55*
X30187500Y21087500D02*
X30490000Y21390000D01*
D51*
X30490000Y21390000D02*
X30975000Y21875000D01*
D54*
X30187500Y20287500D02*
X30187500Y21087500D01*
D51*
X30975000Y23525000D02*
X30975000Y22600000D01*
X30975000Y21875000D02*
X30975000Y22600000D01*
D56*
%TO.N,/RF*%
X37250000Y18080000D02*
X38495000Y18080000D01*
X37230000Y18100000D02*
X37250000Y18080000D01*
X33875000Y18100000D02*
X37230000Y18100000D01*
X38495000Y18080000D02*
X38515000Y18100000D01*
%TO.N,/RF_MATCH*%
X40500000Y18100000D02*
X40500000Y19580000D01*
X39485000Y18100000D02*
X40500000Y18100000D01*
X40500000Y19580000D02*
X40480000Y19600000D01*
D51*
%TO.N,/PH3*%
X31600000Y3920000D02*
X32900000Y3920000D01*
D54*
X29187500Y12889386D02*
X29187500Y13412500D01*
X29844000Y12456000D02*
X29620886Y12456000D01*
X30000000Y9400000D02*
X30000000Y9600000D01*
D51*
X31400000Y6100000D02*
X31680000Y5820000D01*
X31400000Y6300000D02*
X31400000Y6100000D01*
X31680000Y5820000D02*
X31680000Y5000000D01*
D54*
X30000000Y9600000D02*
X30646000Y10246000D01*
D51*
X31680000Y5000000D02*
X31680000Y4000000D01*
D54*
X29620886Y12456000D02*
X29187500Y12889386D01*
X30646000Y10246000D02*
X30646000Y11654000D01*
D51*
X31680000Y4000000D02*
X31600000Y3920000D01*
D54*
X30646000Y11654000D02*
X29844000Y12456000D01*
D51*
%TO.N,+5V*%
X11175000Y13400000D02*
X11175000Y12612500D01*
D55*
X10922900Y17400000D02*
X10400000Y17922900D01*
D51*
X7229956Y19800000D02*
X7018956Y20011000D01*
X10215000Y15260000D02*
X11175000Y14300000D01*
D55*
X10400000Y19000000D02*
X10300000Y19100000D01*
D51*
X11175000Y12612500D02*
X11250000Y12537500D01*
D52*
X9350000Y13199999D02*
X9646001Y13496000D01*
D51*
X9800000Y19800000D02*
X7229956Y19800000D01*
D55*
X10300000Y19300000D02*
X9900000Y19700000D01*
D51*
X10922900Y17400000D02*
X10376000Y16853100D01*
X11537500Y17400000D02*
X10922900Y17400000D01*
X11175000Y14300000D02*
X11175000Y13400000D01*
X7018956Y20011000D02*
X6348000Y20011000D01*
D52*
X11079000Y13496000D02*
X11175000Y13400000D01*
D51*
X6348000Y20011000D02*
X6299000Y20060000D01*
D52*
X9350000Y12537500D02*
X9350000Y13199999D01*
D55*
X10400000Y17922900D02*
X10400000Y19000000D01*
D51*
X6299000Y15260000D02*
X10215000Y15260000D01*
D55*
X10300000Y19100000D02*
X10300000Y19300000D01*
D51*
X10376000Y16853100D02*
X10376000Y15421000D01*
D52*
X9646001Y13496000D02*
X11079000Y13496000D01*
D51*
X9900000Y19700000D02*
X9800000Y19800000D01*
X11697500Y17350000D02*
X11637500Y17410000D01*
X10376000Y15421000D02*
X10215000Y15260000D01*
D56*
%TO.N,Net-(D1-A)*%
X37647944Y12245000D02*
X34292944Y15600000D01*
X37850000Y12245000D02*
X37647944Y12245000D01*
X34292944Y15600000D02*
X33875000Y15600000D01*
D51*
%TO.N,Net-(D1-K)*%
X39075000Y11275000D02*
X39100000Y11250000D01*
X37850000Y11275000D02*
X39075000Y11275000D01*
D56*
%TO.N,/RF_ANT*%
X42250000Y17575000D02*
X43475000Y17575000D01*
X41725000Y18100000D02*
X42250000Y17575000D01*
D52*
%TO.N,/USBC_D+*%
X6299000Y16910000D02*
X7172796Y16910000D01*
D57*
X9112500Y16600000D02*
X9262500Y16450000D01*
X7090000Y17910000D02*
X6299000Y17910000D01*
X7726204Y16689000D02*
X7339000Y17076204D01*
X9262500Y16450000D02*
X9023500Y16689000D01*
D52*
X7172796Y16910000D02*
X7339000Y17076204D01*
D57*
X7339000Y17661000D02*
X7090000Y17910000D01*
X7339000Y17076204D02*
X7339000Y17661000D01*
X9023500Y16689000D02*
X7726204Y16689000D01*
%TO.N,/USBC_D-*%
X5100000Y18000000D02*
X5100000Y17500000D01*
X5100000Y17500000D02*
X5190000Y17410000D01*
X6299000Y18410000D02*
X5510000Y18410000D01*
X9262500Y18350000D02*
X6369000Y18350000D01*
X6369000Y18350000D02*
X6364000Y18345000D01*
X6364000Y18345000D02*
X6299000Y18410000D01*
X5190000Y17410000D02*
X6075000Y17410000D01*
X5510000Y18410000D02*
X5100000Y18000000D01*
D52*
%TO.N,/UART_TXC*%
X34250000Y10600000D02*
X34250000Y8650000D01*
X8425000Y6225000D02*
X6350000Y6225000D01*
X8900000Y6700000D02*
X8425000Y6225000D01*
X33300000Y7700000D02*
X14100000Y7700000D01*
X14100000Y7700000D02*
X13100000Y6700000D01*
X34250000Y8650000D02*
X33300000Y7700000D01*
X13100000Y6700000D02*
X8900000Y6700000D01*
%TO.N,/UART_RXC*%
X13300000Y6300000D02*
X9052958Y6300000D01*
X8586958Y5834000D02*
X8583999Y5833999D01*
X9052958Y6300000D02*
X8586958Y5834000D01*
X7725000Y4975000D02*
X6350000Y4975000D01*
X35500000Y10600000D02*
X35500000Y8500000D01*
X35500000Y8500000D02*
X34200000Y7200000D01*
X34200000Y7200000D02*
X14200000Y7200000D01*
X8583999Y5833999D02*
X7725000Y4975000D01*
X14200000Y7200000D02*
X13300000Y6300000D01*
%TO.N,/SWD_DIO*%
X25500000Y18600000D02*
X22700000Y21400000D01*
X19216300Y20816300D02*
X19216300Y18716300D01*
X19800000Y21400000D02*
X19216300Y20816300D01*
X22700000Y21400000D02*
X19800000Y21400000D01*
X19216300Y18716300D02*
X19000000Y18500000D01*
X27000000Y18600000D02*
X25500000Y18600000D01*
%TO.N,/SWD_TRC*%
X26350000Y16600000D02*
X26050000Y16300000D01*
X26050000Y16300000D02*
X23000000Y16300000D01*
X23000000Y16300000D02*
X21600000Y14900000D01*
X19340000Y15960000D02*
X19000000Y15960000D01*
X21600000Y14900000D02*
X20400000Y14900000D01*
X26962500Y16600000D02*
X26350000Y16600000D01*
X20400000Y14900000D02*
X19340000Y15960000D01*
%TO.N,/SWD_CLK*%
X25600000Y16700000D02*
X23300000Y16700000D01*
X26500000Y17600000D02*
X25600000Y16700000D01*
X23300000Y16700000D02*
X21800000Y18200000D01*
X19970000Y18200000D02*
X19000000Y17230000D01*
X27000000Y17600000D02*
X26500000Y17600000D01*
X21800000Y18200000D02*
X19970000Y18200000D01*
D51*
%TO.N,/SMPSLX*%
X29187500Y21027500D02*
X29187500Y21802500D01*
X29187500Y21802500D02*
X29250000Y21865000D01*
D58*
X29187500Y20287500D02*
X29187500Y21027500D01*
D51*
%TO.N,/SMPSLXL*%
X29250000Y22835000D02*
X29250000Y24085000D01*
X29250000Y24085000D02*
X29265000Y24100000D01*
D52*
%TO.N,/UART_TX*%
X32687500Y13412500D02*
X32687500Y12862501D01*
X32687500Y12862501D02*
X33930001Y11620000D01*
X33930001Y11620000D02*
X34250000Y11620000D01*
%TO.N,/UART_RX*%
X33187500Y13412500D02*
X34200000Y12400000D01*
X34200000Y12400000D02*
X34720000Y12400000D01*
X34720000Y12400000D02*
X35500000Y11620000D01*
D51*
%TO.N,/BSW*%
X29610000Y4210000D02*
X29600000Y4200000D01*
X30900000Y2900000D02*
X31600000Y2900000D01*
X29600000Y4200000D02*
X30900000Y2900000D01*
D57*
%TO.N,/USB_D-*%
X14723370Y22385000D02*
X13215000Y20876630D01*
X12914240Y18350000D02*
X11537500Y18350000D01*
X13215000Y20876630D02*
X13215000Y18650760D01*
X25726630Y19535000D02*
X22876630Y22385000D01*
X11637500Y18360000D02*
X12000000Y18360000D01*
X13215000Y18650760D02*
X12914240Y18350000D01*
X22876630Y22385000D02*
X14723370Y22385000D01*
X26278749Y19535000D02*
X25726630Y19535000D01*
X27000000Y19600000D02*
X26343749Y19600000D01*
X26343749Y19600000D02*
X26278749Y19535000D01*
%TO.N,/USB_D+*%
X13586000Y18129890D02*
X11906110Y16450000D01*
X11906110Y16450000D02*
X11537500Y16450000D01*
X26343749Y19100000D02*
X26279749Y19164000D01*
X25572956Y19164000D02*
X22722956Y22014000D01*
X13586000Y20722956D02*
X13586000Y18129890D01*
X27000000Y19100000D02*
X26343749Y19100000D01*
X26279749Y19164000D02*
X25572956Y19164000D01*
X11637500Y16460000D02*
X12000000Y16460000D01*
X22722956Y22014000D02*
X14877044Y22014000D01*
X14877044Y22014000D02*
X13586000Y20722956D01*
D52*
%TO.N,/HSE_OUT*%
X34000000Y19600000D02*
X33875000Y19600000D01*
X36050000Y21650000D02*
X34000000Y19600000D01*
X36050000Y22650000D02*
X36050000Y21650000D01*
%TO.N,/HSE_IN*%
X33750000Y23350000D02*
X34450000Y24050000D01*
X33187500Y20287500D02*
X33750000Y20850000D01*
X34450000Y24050000D02*
X34950000Y24050000D01*
X33750000Y20850000D02*
X33750000Y23350000D01*
D56*
%TO.N,/USB_CC1*%
X5290000Y18910000D02*
X4000000Y20200000D01*
X4000000Y20200000D02*
X4000000Y23000000D01*
X4850000Y23850000D02*
X5240000Y23850000D01*
X4000000Y23000000D02*
X4850000Y23850000D01*
X6299000Y18910000D02*
X5290000Y18910000D01*
%TO.N,/USB_CC2*%
X3900000Y15000000D02*
X3900000Y12600000D01*
X6299000Y15910000D02*
X4810000Y15910000D01*
X5960000Y11900000D02*
X6760000Y11100000D01*
X3900000Y12600000D02*
X4600000Y11900000D01*
X4600000Y11900000D02*
X5960000Y11900000D01*
X4810000Y15910000D02*
X3900000Y15000000D01*
%TD*%
%TA.AperFunction,Conductor*%
%TO.N,+3.3V*%
G36*
X11717837Y10889024D02*
G01*
X11829818Y10820112D01*
X12964783Y10121672D01*
X12997988Y10075789D01*
X13000000Y10058649D01*
X13000000Y8439604D01*
X12978326Y8387278D01*
X12967048Y8378032D01*
X12118642Y7812428D01*
X12077594Y7800000D01*
X10774000Y7800000D01*
X10721674Y7821674D01*
X10700000Y7874000D01*
X10700000Y10820112D01*
X10721674Y10872438D01*
X10727562Y10878326D01*
X10779888Y10900000D01*
X11679055Y10900000D01*
X11717837Y10889024D01*
G37*
%TD.AperFunction*%
%TD*%
%TA.AperFunction,Conductor*%
%TO.N,+3.3V*%
G36*
X29328326Y25478326D02*
G01*
X29350000Y25426000D01*
X29350000Y24744500D01*
X29328326Y24692174D01*
X29276000Y24670500D01*
X29086176Y24670500D01*
X28992979Y24655740D01*
X28987439Y24653939D01*
X28986926Y24655518D01*
X28963949Y24650000D01*
X28450000Y24650000D01*
X28449999Y24650000D01*
X28449999Y24649999D01*
X28399999Y20900000D01*
X28400000Y20900000D01*
X28646726Y20900000D01*
X28699052Y20878326D01*
X28712408Y20860087D01*
X28716117Y20852940D01*
X28721108Y20834314D01*
X28767343Y20754232D01*
X28768109Y20752757D01*
X28768886Y20743739D01*
X28775794Y20709015D01*
X28774500Y20699183D01*
X28774500Y20699180D01*
X28774500Y20699179D01*
X28774500Y20333644D01*
X28774501Y19974500D01*
X28752827Y19922174D01*
X28700501Y19900500D01*
X28099500Y19900500D01*
X28047174Y19922174D01*
X28025500Y19974500D01*
X28025499Y20699178D01*
X28019499Y20744759D01*
X28019497Y20744764D01*
X28006933Y20771709D01*
X28000000Y20802982D01*
X28000000Y20900001D01*
X27776280Y21213208D01*
X27552559Y21526417D01*
X27539687Y21581001D01*
X27547774Y21632062D01*
X27554901Y21652183D01*
X27554536Y21652334D01*
X27556390Y21656811D01*
X27556389Y21656811D01*
X27556392Y21656814D01*
X27590500Y21784108D01*
X27590500Y21915892D01*
X27556392Y22043186D01*
X27556390Y22043190D01*
X27554535Y22047669D01*
X27554900Y22047821D01*
X27547772Y22067947D01*
X27536017Y22142174D01*
X27536017Y22142175D01*
X27499775Y22213303D01*
X27491718Y22245937D01*
X27485180Y22755949D01*
X27491324Y22786431D01*
X27491957Y22787885D01*
X27499582Y22803482D01*
X27500001Y22806362D01*
X27503258Y22813842D01*
X27504132Y22814686D01*
X27507022Y22821304D01*
X27556390Y22906810D01*
X27556390Y22906811D01*
X27556389Y22906811D01*
X27556392Y22906814D01*
X27590500Y23034108D01*
X27590500Y23165892D01*
X27590500Y23165894D01*
X27590499Y23165895D01*
X27556393Y23293182D01*
X27556392Y23293186D01*
X27507007Y23378722D01*
X27503799Y23384946D01*
X27500082Y23393080D01*
X27499582Y23396518D01*
X27483218Y23429989D01*
X27482831Y23430838D01*
X27482758Y23432868D01*
X27476145Y23460635D01*
X27467240Y24155244D01*
X27478803Y24191610D01*
X27477214Y24192419D01*
X27479857Y24197608D01*
X27479859Y24197609D01*
X27536017Y24307825D01*
X27547774Y24382060D01*
X27554901Y24402183D01*
X27554536Y24402334D01*
X27556390Y24406811D01*
X27556389Y24406811D01*
X27556392Y24406814D01*
X27590500Y24534108D01*
X27590500Y24665892D01*
X27556392Y24793186D01*
X27556390Y24793190D01*
X27554535Y24797669D01*
X27554900Y24797821D01*
X27547772Y24817947D01*
X27536017Y24892175D01*
X27536016Y24892177D01*
X27536016Y24892178D01*
X27506887Y24949346D01*
X27479859Y25002391D01*
X27477356Y25004894D01*
X27455688Y25056270D01*
X27450961Y25425052D01*
X27471963Y25477651D01*
X27524007Y25499994D01*
X27524955Y25500000D01*
X29276000Y25500000D01*
X29328326Y25478326D01*
G37*
%TD.AperFunction*%
%TD*%
%TA.AperFunction,Conductor*%
%TO.N,+3.3V*%
G36*
X24652968Y14171934D02*
G01*
X24707825Y14143983D01*
X24799265Y14129500D01*
X25200734Y14129501D01*
X25292175Y14143983D01*
X25347032Y14171935D01*
X25380627Y14180000D01*
X27275500Y14180000D01*
X27327826Y14158326D01*
X27349500Y14106000D01*
X27349500Y14025326D01*
X27364034Y13952260D01*
X27419399Y13869399D01*
X27502260Y13814034D01*
X27575326Y13799500D01*
X27700500Y13799500D01*
X27752826Y13777826D01*
X27774500Y13725500D01*
X27774500Y13000823D01*
X27780500Y12955242D01*
X27780502Y12955236D01*
X27788627Y12937811D01*
X27791095Y12881228D01*
X27773885Y12854214D01*
X27291346Y12371674D01*
X27239020Y12350000D01*
X23274000Y12350000D01*
X23221674Y12371674D01*
X23200000Y12424000D01*
X23200000Y13960396D01*
X23202915Y13967435D01*
X23201437Y13974908D01*
X23213427Y13992813D01*
X23221674Y14012722D01*
X23232952Y14021968D01*
X23237992Y14025328D01*
X23346990Y14097994D01*
X23353194Y14101704D01*
X23416384Y14135405D01*
X23462777Y14143199D01*
X23549265Y14129500D01*
X23950734Y14129501D01*
X24042175Y14143983D01*
X24097032Y14171935D01*
X24130627Y14180000D01*
X24619373Y14180000D01*
X24652968Y14171934D01*
G37*
%TD.AperFunction*%
%TD*%
%TA.AperFunction,Conductor*%
%TO.N,/SMPSFB*%
G36*
X30728326Y24578326D02*
G01*
X30750000Y24526000D01*
X30750000Y24100000D01*
X31728326Y23121674D01*
X31750000Y23069348D01*
X31750000Y21895735D01*
X31728326Y21843409D01*
X31709094Y21829547D01*
X31249979Y21599990D01*
X30300000Y21100001D01*
X30300000Y19974000D01*
X30278326Y19921674D01*
X30226000Y19900000D01*
X30172027Y19900000D01*
X30119701Y19921674D01*
X30098054Y19972001D01*
X30000000Y23600000D01*
X29874000Y23600000D01*
X29821674Y23621674D01*
X29800000Y23674000D01*
X29800000Y24526000D01*
X29821674Y24578326D01*
X29874000Y24600000D01*
X30676000Y24600000D01*
X30728326Y24578326D01*
G37*
%TD.AperFunction*%
%TD*%
%TA.AperFunction,Conductor*%
%TO.N,GND*%
G36*
X27238217Y25777826D02*
G01*
X27259891Y25725500D01*
X27248402Y25685898D01*
X27188247Y25590945D01*
X27188245Y25590942D01*
X27167227Y25538303D01*
X27164701Y25531756D01*
X27145486Y25421141D01*
X27145485Y25421135D01*
X27146485Y25343091D01*
X27145000Y25339373D01*
X27145000Y23870652D01*
X27137222Y23851876D01*
X27133988Y23831813D01*
X27123326Y23818326D01*
X27115000Y23810000D01*
X27115000Y22640000D01*
X27123326Y22631674D01*
X27145000Y22579348D01*
X27145000Y21140001D01*
X27202278Y21140001D01*
X27202279Y21140002D01*
X27289050Y21150420D01*
X27289053Y21150421D01*
X27357500Y21177414D01*
X27377411Y21177075D01*
X27396813Y21181567D01*
X27404761Y21176608D01*
X27414129Y21176448D01*
X27444865Y21151587D01*
X27476004Y21107992D01*
X27488781Y21052817D01*
X27458801Y21004765D01*
X27448289Y20998500D01*
X27373652Y20962012D01*
X27287988Y20876348D01*
X27234780Y20767511D01*
X27224500Y20696955D01*
X27224500Y20099500D01*
X27202826Y20047174D01*
X27150500Y20025500D01*
X26553059Y20025500D01*
X26553043Y20025498D01*
X26482489Y20015221D01*
X26477894Y20013800D01*
X26456044Y20010500D01*
X26289704Y20010500D01*
X26185306Y19982527D01*
X26185297Y19982523D01*
X26138343Y19955414D01*
X26101344Y19945500D01*
X25927317Y19945500D01*
X25874991Y19967174D01*
X24204444Y21637721D01*
X26340001Y21637721D01*
X26350419Y21550952D01*
X26350420Y21550948D01*
X26404877Y21412853D01*
X26494571Y21294573D01*
X26494572Y21294572D01*
X26612852Y21204878D01*
X26750944Y21150422D01*
X26837721Y21140001D01*
X26894999Y21140002D01*
X26895000Y21140002D01*
X26895000Y21725000D01*
X26340001Y21725000D01*
X26340001Y21637721D01*
X24204444Y21637721D01*
X23128683Y22713482D01*
X23035074Y22767527D01*
X22930675Y22795500D01*
X22930673Y22795500D01*
X14777413Y22795500D01*
X14669326Y22795500D01*
X14669324Y22795500D01*
X14572062Y22769439D01*
X14572063Y22769438D01*
X14564923Y22767525D01*
X14564921Y22767524D01*
X14471316Y22713482D01*
X14394886Y22637051D01*
X12952539Y21194705D01*
X12886518Y21128684D01*
X12832473Y21035075D01*
X12804500Y20930676D01*
X12804500Y18851447D01*
X12782826Y18799121D01*
X12765879Y18782174D01*
X12713553Y18760500D01*
X12455007Y18760500D01*
X12402681Y18782174D01*
X12395467Y18790557D01*
X12386086Y18803267D01*
X12372150Y18822150D01*
X12262882Y18902793D01*
X12262880Y18902794D01*
X12134704Y18947645D01*
X12134705Y18947645D01*
X12134700Y18947646D01*
X12134699Y18947646D01*
X12104266Y18950500D01*
X10970734Y18950500D01*
X10941908Y18947797D01*
X10940290Y18947645D01*
X10940275Y18947641D01*
X10940268Y18947643D01*
X10935819Y18947225D01*
X10935702Y18948463D01*
X10884531Y18957662D01*
X10852201Y19004165D01*
X10850500Y19019940D01*
X10850500Y19059311D01*
X10850499Y19059312D01*
X10847343Y19071089D01*
X10829134Y19139049D01*
X10819800Y19173883D01*
X10819798Y19173888D01*
X10783184Y19237305D01*
X10760414Y19276744D01*
X10750500Y19313744D01*
X10750500Y19359311D01*
X10750499Y19359312D01*
X10719800Y19473883D01*
X10719798Y19473888D01*
X10689999Y19525501D01*
X10689998Y19525502D01*
X10660489Y19576614D01*
X10459348Y19777755D01*
X10440195Y19810929D01*
X10436943Y19823066D01*
X10412984Y19912485D01*
X10340510Y20038015D01*
X10138015Y20240510D01*
X10094166Y20265826D01*
X10012482Y20312986D01*
X9872477Y20350500D01*
X9872475Y20350500D01*
X7488633Y20350500D01*
X7436307Y20372174D01*
X7356971Y20451510D01*
X7349540Y20455800D01*
X7231441Y20523984D01*
X7195849Y20533521D01*
X7183515Y20536826D01*
X7100992Y20558939D01*
X7056059Y20593418D01*
X7046673Y20639242D01*
X7050000Y20666941D01*
X7050000Y20735000D01*
X6200000Y20735000D01*
X6200000Y20734500D01*
X6178326Y20682174D01*
X6126000Y20660500D01*
X6024000Y20660500D01*
X5971674Y20682174D01*
X5950000Y20734500D01*
X5950000Y20786000D01*
X5971674Y20838326D01*
X6024000Y20860000D01*
X6075000Y20860000D01*
X6075000Y20911000D01*
X6096674Y20963326D01*
X6149000Y20985000D01*
X7050000Y20985000D01*
X7050000Y21053062D01*
X7039385Y21141444D01*
X6983922Y21282093D01*
X6892562Y21402568D01*
X6851222Y21433917D01*
X6822625Y21482804D01*
X6834408Y21533994D01*
X6847572Y21553695D01*
X6915412Y21717476D01*
X6915415Y21717487D01*
X6942768Y21855000D01*
X6324242Y21855000D01*
X6329556Y21864204D01*
X6350000Y21940504D01*
X6350000Y22019496D01*
X6329556Y22095796D01*
X6324242Y22105000D01*
X6942768Y22105000D01*
X6942768Y22105001D01*
X6915415Y22242514D01*
X6915412Y22242525D01*
X6847572Y22406306D01*
X6749076Y22553717D01*
X6623716Y22679077D01*
X6476304Y22777573D01*
X6476305Y22777573D01*
X6312524Y22845413D01*
X6312513Y22845416D01*
X6173256Y22873115D01*
X26320000Y22873115D01*
X26330325Y22787142D01*
X26384276Y22650327D01*
X26473140Y22533142D01*
X26473142Y22533140D01*
X26490340Y22520098D01*
X26518937Y22471211D01*
X26504589Y22416421D01*
X26497956Y22408813D01*
X26494573Y22405430D01*
X26404877Y22287148D01*
X26350421Y22149056D01*
X26340000Y22062279D01*
X26340000Y21975000D01*
X26895000Y21975000D01*
X26895000Y22300000D01*
X26886674Y22308326D01*
X26865000Y22360652D01*
X26865000Y22975000D01*
X26320000Y22975000D01*
X26320000Y22873115D01*
X6173256Y22873115D01*
X6138641Y22880000D01*
X5625000Y22880000D01*
X5625000Y22280000D01*
X5375000Y22280000D01*
X5375000Y22880000D01*
X4861359Y22880000D01*
X4687486Y22845416D01*
X4687475Y22845413D01*
X4523694Y22777573D01*
X4523691Y22777571D01*
X4500209Y22761881D01*
X4444660Y22750833D01*
X4397569Y22782301D01*
X4386521Y22837850D01*
X4406771Y22875735D01*
X4800926Y23269891D01*
X4853251Y23291564D01*
X4894235Y23278078D01*
X4894305Y23278209D01*
X4895078Y23277801D01*
X4897193Y23277105D01*
X4899206Y23275619D01*
X4986504Y23245072D01*
X5018045Y23234035D01*
X5023121Y23232259D01*
X5052543Y23229500D01*
X5427456Y23229501D01*
X5456879Y23232259D01*
X5456885Y23232261D01*
X5580792Y23275618D01*
X5580792Y23275619D01*
X5580794Y23275619D01*
X5629771Y23311767D01*
X5684741Y23325400D01*
X5732676Y23296941D01*
X5743141Y23283141D01*
X5860326Y23194277D01*
X5997141Y23140326D01*
X6083115Y23130000D01*
X6135000Y23130000D01*
X6385000Y23130000D01*
X6436885Y23130000D01*
X6522858Y23140326D01*
X6659673Y23194277D01*
X6776858Y23283141D01*
X6776859Y23283142D01*
X6810031Y23326886D01*
X26320000Y23326886D01*
X26320000Y23225000D01*
X26865000Y23225000D01*
X26865000Y23839348D01*
X26872777Y23858125D01*
X26876012Y23878187D01*
X26883254Y23883419D01*
X26886674Y23891674D01*
X26895000Y23900000D01*
X26895000Y24475000D01*
X26340001Y24475000D01*
X26340001Y24387721D01*
X26350419Y24300952D01*
X26350420Y24300948D01*
X26404877Y24162853D01*
X26494571Y24044573D01*
X26494572Y24044572D01*
X26612852Y23954878D01*
X26679532Y23928583D01*
X26720259Y23889224D01*
X26721226Y23832595D01*
X26681867Y23791868D01*
X26679532Y23790901D01*
X26590326Y23755724D01*
X26473141Y23666860D01*
X26473140Y23666859D01*
X26384276Y23549674D01*
X26330325Y23412859D01*
X26320000Y23326886D01*
X6810031Y23326886D01*
X6845614Y23373809D01*
X6845614Y23373810D01*
X6845615Y23373810D01*
X6865723Y23400327D01*
X6919674Y23537142D01*
X6930000Y23623115D01*
X6930000Y23725000D01*
X6385000Y23725000D01*
X6385000Y23130000D01*
X6135000Y23130000D01*
X6135000Y23975000D01*
X6385000Y23975000D01*
X6930000Y23975000D01*
X6930000Y24076886D01*
X6919674Y24162859D01*
X6865723Y24299674D01*
X6776859Y24416859D01*
X6776858Y24416860D01*
X6659673Y24505724D01*
X6522858Y24559675D01*
X6436885Y24570000D01*
X6385000Y24570000D01*
X6385000Y23975000D01*
X6135000Y23975000D01*
X6135000Y24570000D01*
X6083115Y24570000D01*
X5997141Y24559675D01*
X5860326Y24505724D01*
X5743141Y24416860D01*
X5743136Y24416855D01*
X5732674Y24403059D01*
X5683786Y24374464D01*
X5629770Y24388235D01*
X5580792Y24424383D01*
X5456884Y24467740D01*
X5456881Y24467741D01*
X5456879Y24467741D01*
X5427457Y24470500D01*
X5427450Y24470500D01*
X5052554Y24470500D01*
X5052540Y24470499D01*
X5023123Y24467742D01*
X5023117Y24467741D01*
X4899207Y24424382D01*
X4793577Y24346424D01*
X4793576Y24346423D01*
X4715618Y24240794D01*
X4709432Y24223114D01*
X4676586Y24183471D01*
X4619441Y24150477D01*
X4619439Y24150476D01*
X3769438Y23300475D01*
X3699525Y23230563D01*
X3650090Y23144939D01*
X3650088Y23144934D01*
X3642584Y23116929D01*
X3642585Y23116928D01*
X3631172Y23074332D01*
X3631171Y23074330D01*
X3624500Y23049436D01*
X3624500Y20150564D01*
X3632743Y20119803D01*
X3632743Y20119800D01*
X3650088Y20055067D01*
X3650092Y20055058D01*
X3699525Y19969438D01*
X5041887Y18627076D01*
X5063561Y18574750D01*
X5041887Y18522424D01*
X4847947Y18328482D01*
X4771518Y18252054D01*
X4717473Y18158445D01*
X4689500Y18054046D01*
X4689500Y17445955D01*
X4717473Y17341556D01*
X4742405Y17298373D01*
X4771518Y17247947D01*
X4819966Y17199500D01*
X4857297Y17162169D01*
X4857300Y17162165D01*
X4861518Y17157947D01*
X4937947Y17081518D01*
X4996616Y17047646D01*
X5031553Y17027475D01*
X5031554Y17027475D01*
X5031556Y17027474D01*
X5140641Y16998244D01*
X5140222Y16996681D01*
X5184206Y16971289D01*
X5199500Y16926238D01*
X5199500Y16799360D01*
X5210134Y16726374D01*
X5226694Y16692500D01*
X5230203Y16635971D01*
X5226694Y16627500D01*
X5210134Y16593627D01*
X5199500Y16520641D01*
X5199500Y16359500D01*
X5177826Y16307174D01*
X5125500Y16285500D01*
X4760563Y16285500D01*
X4743731Y16280990D01*
X4726898Y16276479D01*
X4693422Y16267509D01*
X4665060Y16259910D01*
X4579437Y16210475D01*
X3599525Y15230563D01*
X3550092Y15144943D01*
X3550088Y15144934D01*
X3537914Y15099501D01*
X3537915Y15099500D01*
X3525364Y15052658D01*
X3525361Y15052650D01*
X3524501Y15049443D01*
X3524500Y15049434D01*
X3524500Y12550563D01*
X3550088Y12455066D01*
X3550090Y12455061D01*
X3572094Y12416950D01*
X3599525Y12369438D01*
X3599526Y12369437D01*
X4299525Y11669438D01*
X4369438Y11599525D01*
X4455062Y11550090D01*
X4502813Y11537295D01*
X4526688Y11530898D01*
X4550563Y11524500D01*
X4550564Y11524500D01*
X4550565Y11524500D01*
X5015622Y11524500D01*
X5067948Y11502826D01*
X5089622Y11450500D01*
X5084463Y11423353D01*
X5080325Y11412861D01*
X5070000Y11326886D01*
X5070000Y11225000D01*
X5666000Y11225000D01*
X5718326Y11203326D01*
X5740000Y11151000D01*
X5740000Y11100000D01*
X5791000Y11100000D01*
X5843326Y11078326D01*
X5865000Y11026000D01*
X5865000Y10380000D01*
X5916885Y10380000D01*
X6002858Y10390326D01*
X6139673Y10444277D01*
X6256858Y10533141D01*
X6267321Y10546938D01*
X6316208Y10575537D01*
X6370229Y10561766D01*
X6419207Y10525618D01*
X6543115Y10482261D01*
X6543121Y10482259D01*
X6572543Y10479500D01*
X6947456Y10479501D01*
X6976879Y10482259D01*
X7100794Y10525619D01*
X7206423Y10603577D01*
X7284381Y10709206D01*
X7288280Y10720347D01*
X7311652Y10787142D01*
X7326392Y10829266D01*
X8749500Y10829266D01*
X8749500Y9695734D01*
X8752354Y9665301D01*
X8752354Y9665299D01*
X8752355Y9665296D01*
X8797206Y9537119D01*
X8797207Y9537117D01*
X8877846Y9427854D01*
X8877853Y9427847D01*
X8987116Y9347208D01*
X8987118Y9347207D01*
X9115295Y9302356D01*
X9115301Y9302354D01*
X9145734Y9299500D01*
X9145741Y9299500D01*
X9554258Y9299500D01*
X9554266Y9299500D01*
X9584699Y9302354D01*
X9712882Y9347207D01*
X9822150Y9427850D01*
X9828116Y9435933D01*
X9872250Y9495734D01*
X9902793Y9537118D01*
X9947646Y9665301D01*
X9950500Y9695734D01*
X9950500Y10829266D01*
X9947646Y10859699D01*
X9946650Y10862544D01*
X9902793Y10987882D01*
X9902792Y10987884D01*
X9822153Y11097147D01*
X9822146Y11097154D01*
X9712883Y11177793D01*
X9712881Y11177794D01*
X9584704Y11222645D01*
X9584705Y11222645D01*
X9584700Y11222646D01*
X9584699Y11222646D01*
X9554266Y11225500D01*
X9145734Y11225500D01*
X9115301Y11222646D01*
X9115299Y11222646D01*
X9115295Y11222645D01*
X8987118Y11177794D01*
X8987116Y11177793D01*
X8877853Y11097154D01*
X8877846Y11097147D01*
X8797207Y10987884D01*
X8797206Y10987882D01*
X8752355Y10859705D01*
X8752354Y10859701D01*
X8752354Y10859699D01*
X8749500Y10829266D01*
X7326392Y10829266D01*
X7327741Y10833121D01*
X7330500Y10862543D01*
X7330499Y11337456D01*
X7327741Y11366879D01*
X7323240Y11379741D01*
X7299642Y11447181D01*
X7284381Y11490794D01*
X7206423Y11596423D01*
X7197757Y11602819D01*
X7100792Y11674383D01*
X6976884Y11717740D01*
X6976881Y11717741D01*
X6976879Y11717741D01*
X6947457Y11720500D01*
X6947451Y11720500D01*
X6701190Y11720500D01*
X6648864Y11742174D01*
X6190563Y12200474D01*
X6190562Y12200475D01*
X6104939Y12249910D01*
X6086748Y12254784D01*
X6052906Y12263852D01*
X6029962Y12270000D01*
X6009437Y12275500D01*
X6009436Y12275500D01*
X6009435Y12275500D01*
X4786189Y12275500D01*
X4733863Y12297174D01*
X4696411Y12334626D01*
X4674737Y12386952D01*
X4696411Y12439278D01*
X4748737Y12460952D01*
X4763173Y12459530D01*
X4861359Y12440000D01*
X5375000Y12440000D01*
X5375000Y13040000D01*
X5625000Y13040000D01*
X5625000Y12440000D01*
X6138641Y12440000D01*
X6312513Y12474585D01*
X6312524Y12474588D01*
X6476305Y12542428D01*
X6623716Y12640924D01*
X6623718Y12640925D01*
X6749075Y12766282D01*
X6749076Y12766284D01*
X6847572Y12913695D01*
X6915412Y13077476D01*
X6915415Y13077487D01*
X6942768Y13215000D01*
X6324242Y13215000D01*
X6329556Y13224204D01*
X6350000Y13300504D01*
X6350000Y13379496D01*
X6329556Y13455796D01*
X6324242Y13465000D01*
X6942768Y13465000D01*
X6942768Y13465001D01*
X6915415Y13602514D01*
X6915412Y13602525D01*
X6847572Y13766306D01*
X6834407Y13786009D01*
X6823358Y13841558D01*
X6851223Y13886085D01*
X6892563Y13917434D01*
X6983922Y14037908D01*
X7039385Y14178557D01*
X7050000Y14266939D01*
X7050000Y14335000D01*
X6200000Y14335000D01*
X6200000Y13754000D01*
X6178326Y13701674D01*
X6126000Y13680000D01*
X6024000Y13680000D01*
X5971674Y13701674D01*
X5950000Y13754000D01*
X5950000Y14335000D01*
X5471649Y14335000D01*
X5453654Y14342454D01*
X5434356Y14345084D01*
X5428406Y14352912D01*
X5419323Y14356674D01*
X5411869Y14374669D01*
X5400084Y14390174D01*
X5401837Y14398887D01*
X5397649Y14409000D01*
X5407733Y14446293D01*
X5411114Y14452089D01*
X5412502Y14453476D01*
X5467118Y14548075D01*
X5467246Y14548293D01*
X5489681Y14565346D01*
X5512010Y14582479D01*
X5512267Y14582513D01*
X5512336Y14582565D01*
X5512496Y14582544D01*
X5531162Y14585000D01*
X7050000Y14585000D01*
X7050000Y14635500D01*
X7071674Y14687826D01*
X7124000Y14709500D01*
X8702533Y14709500D01*
X8754859Y14687826D01*
X8776533Y14635500D01*
X8776305Y14629694D01*
X8775000Y14613112D01*
X8775000Y14425000D01*
X9551000Y14425000D01*
X9603326Y14403326D01*
X9625000Y14351000D01*
X9625000Y14249000D01*
X9603326Y14196674D01*
X9551000Y14175000D01*
X8775000Y14175000D01*
X8775000Y13986890D01*
X8777789Y13951449D01*
X8821845Y13799809D01*
X8902228Y13663889D01*
X8998928Y13567189D01*
X9020602Y13514863D01*
X8998928Y13462537D01*
X8990545Y13455323D01*
X8877850Y13372151D01*
X8877846Y13372147D01*
X8797207Y13262884D01*
X8797206Y13262882D01*
X8752355Y13134705D01*
X8752354Y13134701D01*
X8752354Y13134699D01*
X8749500Y13104266D01*
X8749500Y11970734D01*
X8752354Y11940301D01*
X8752354Y11940299D01*
X8752355Y11940296D01*
X8797206Y11812119D01*
X8797207Y11812117D01*
X8877846Y11702854D01*
X8877853Y11702847D01*
X8987116Y11622208D01*
X8987118Y11622207D01*
X9115295Y11577356D01*
X9115301Y11577354D01*
X9145734Y11574500D01*
X9145741Y11574500D01*
X9554258Y11574500D01*
X9554266Y11574500D01*
X9584699Y11577354D01*
X9712882Y11622207D01*
X9712881Y11622207D01*
X9715097Y11622982D01*
X9771645Y11619807D01*
X9784251Y11612099D01*
X9877905Y11541079D01*
X10018556Y11485615D01*
X10106939Y11475000D01*
X10175000Y11475000D01*
X10175000Y12463500D01*
X10196674Y12515826D01*
X10249000Y12537500D01*
X10351000Y12537500D01*
X10403326Y12515826D01*
X10425000Y12463500D01*
X10425000Y11475000D01*
X10493061Y11475000D01*
X10581443Y11485615D01*
X10722094Y11541079D01*
X10815747Y11612098D01*
X10870537Y11626446D01*
X10884902Y11622982D01*
X11015295Y11577356D01*
X11015301Y11577354D01*
X11045734Y11574500D01*
X11045741Y11574500D01*
X11454258Y11574500D01*
X11454266Y11574500D01*
X11484699Y11577354D01*
X11612882Y11622207D01*
X11722150Y11702850D01*
X11802793Y11812118D01*
X11847646Y11940301D01*
X11850500Y11970734D01*
X11850500Y13104266D01*
X11847646Y13134699D01*
X11802793Y13262882D01*
X11739959Y13348020D01*
X11725500Y13391962D01*
X11725500Y13600571D01*
X11747174Y13652897D01*
X11754787Y13659535D01*
X11775078Y13674922D01*
X11862364Y13790025D01*
X11915359Y13924410D01*
X11925500Y14008856D01*
X11925500Y14591144D01*
X11915359Y14675590D01*
X11862364Y14809975D01*
X11775078Y14925078D01*
X11659975Y15012364D01*
X11659974Y15012365D01*
X11659972Y15012366D01*
X11525590Y15065359D01*
X11441145Y15075500D01*
X11441144Y15075500D01*
X11208677Y15075500D01*
X11156351Y15097174D01*
X10948174Y15305351D01*
X10926500Y15357677D01*
X10926500Y15775500D01*
X10948174Y15827826D01*
X11000500Y15849500D01*
X12104258Y15849500D01*
X12104266Y15849500D01*
X12134699Y15852354D01*
X12262882Y15897207D01*
X12372150Y15977850D01*
X12452793Y16087118D01*
X12497646Y16215301D01*
X12500500Y16245734D01*
X12500500Y16433205D01*
X12522173Y16485530D01*
X13838050Y17801407D01*
X13838053Y17801408D01*
X13914482Y17877837D01*
X13968525Y17971443D01*
X13983010Y18025500D01*
X13996500Y18075846D01*
X13996500Y18183933D01*
X13996500Y20522269D01*
X14018174Y20574595D01*
X15025405Y21581826D01*
X15077731Y21603500D01*
X17238050Y21603500D01*
X17290376Y21581826D01*
X17312050Y21529500D01*
X17290376Y21477174D01*
X17279167Y21467976D01*
X17237695Y21440265D01*
X17185331Y21405277D01*
X17185330Y21405275D01*
X17094725Y21314670D01*
X17094723Y21314669D01*
X17023533Y21208124D01*
X16974498Y21089743D01*
X16974497Y21089740D01*
X16949500Y20964068D01*
X16949500Y20835932D01*
X16961927Y20773454D01*
X16950877Y20717905D01*
X16903785Y20686440D01*
X16848236Y20697490D01*
X16837023Y20706692D01*
X16722679Y20821036D01*
X16722674Y20821041D01*
X16722671Y20821044D01*
X16722669Y20821045D01*
X16547202Y20948530D01*
X16353950Y21046996D01*
X16353946Y21046998D01*
X16147681Y21114018D01*
X16147668Y21114021D01*
X15933449Y21147950D01*
X15933447Y21147950D01*
X15716553Y21147950D01*
X15716551Y21147950D01*
X15502331Y21114021D01*
X15502318Y21114018D01*
X15296053Y21046998D01*
X15296049Y21046996D01*
X15102797Y20948530D01*
X14927330Y20821045D01*
X14773955Y20667670D01*
X14646470Y20492203D01*
X14548004Y20298951D01*
X14548002Y20298947D01*
X14480982Y20092682D01*
X14480979Y20092669D01*
X14447050Y19878449D01*
X14447050Y19661552D01*
X14480979Y19447332D01*
X14480982Y19447319D01*
X14548002Y19241054D01*
X14548004Y19241050D01*
X14646470Y19047798D01*
X14766565Y18882502D01*
X14773959Y18872326D01*
X14927326Y18718959D01*
X14959546Y18695550D01*
X14967764Y18682140D01*
X14980219Y18672537D01*
X14981976Y18658947D01*
X14989138Y18647261D01*
X14985466Y18631967D01*
X14987484Y18616368D01*
X14979554Y18607342D01*
X14975917Y18592188D01*
X14952902Y18571514D01*
X14948082Y18568747D01*
X14947343Y18568548D01*
X14873352Y18525830D01*
X14872920Y18525581D01*
X14872782Y18525500D01*
X14857156Y18516479D01*
X13583520Y17242843D01*
X13561385Y17204502D01*
X13561384Y17204500D01*
X13531455Y17152665D01*
X13531453Y17152661D01*
X13531452Y17152659D01*
X13531452Y17152658D01*
X13512391Y17081519D01*
X13504500Y17052069D01*
X13504500Y10452069D01*
X13504500Y10347931D01*
X13529429Y10254894D01*
X13531453Y10247340D01*
X13535839Y10239742D01*
X13535840Y10239742D01*
X13583518Y10157161D01*
X13583519Y10157160D01*
X13583521Y10157157D01*
X13625801Y10114877D01*
X13661372Y10079306D01*
X13661378Y10079301D01*
X15518853Y8221826D01*
X15540527Y8169500D01*
X15518853Y8117174D01*
X15466527Y8095500D01*
X14156615Y8095500D01*
X14156599Y8095501D01*
X14152069Y8095501D01*
X14047932Y8095501D01*
X14047930Y8095501D01*
X13947345Y8068550D01*
X13947338Y8068547D01*
X13919593Y8052527D01*
X13919592Y8052526D01*
X13857156Y8016479D01*
X13789678Y7949000D01*
X13783521Y7942843D01*
X13783519Y7942841D01*
X13360712Y7520033D01*
X12957853Y7117174D01*
X12905527Y7095500D01*
X11637119Y7095500D01*
X11584793Y7117174D01*
X11563119Y7169500D01*
X11584793Y7221826D01*
X11609972Y7238341D01*
X11614930Y7240296D01*
X11734975Y7287636D01*
X11850078Y7374922D01*
X11918549Y7465216D01*
X11967436Y7493811D01*
X11977512Y7494500D01*
X12077588Y7494500D01*
X12077594Y7494500D01*
X12166121Y7507608D01*
X12166128Y7507610D01*
X12207161Y7520033D01*
X12207163Y7520034D01*
X12207164Y7520035D01*
X12207169Y7520036D01*
X12288103Y7558237D01*
X13136509Y8123841D01*
X13160735Y8141779D01*
X13172013Y8151025D01*
X13199280Y8176305D01*
X13260571Y8270369D01*
X13282245Y8322695D01*
X13284870Y8329245D01*
X13305500Y8439604D01*
X13305500Y10058649D01*
X13303417Y10094266D01*
X13301405Y10111406D01*
X13293466Y10153396D01*
X13245478Y10254895D01*
X13212273Y10300778D01*
X13208071Y10306445D01*
X13124895Y10381854D01*
X13124893Y10381856D01*
X11877954Y11149203D01*
X11877953Y11149204D01*
X11877949Y11149206D01*
X11801031Y11182978D01*
X11801029Y11182979D01*
X11801026Y11182980D01*
X11762249Y11193954D01*
X11679055Y11205500D01*
X11679050Y11205500D01*
X11546272Y11205500D01*
X11521831Y11209653D01*
X11484705Y11222645D01*
X11484701Y11222646D01*
X11477090Y11223360D01*
X11454266Y11225500D01*
X11045734Y11225500D01*
X11025445Y11223598D01*
X11015298Y11222646D01*
X11015294Y11222645D01*
X10978169Y11209653D01*
X10953728Y11205500D01*
X10779881Y11205500D01*
X10775772Y11205453D01*
X10772832Y11205419D01*
X10772829Y11205419D01*
X10772823Y11205418D01*
X10662983Y11182247D01*
X10610592Y11160546D01*
X10604168Y11157799D01*
X10604159Y11157794D01*
X10511546Y11094352D01*
X10511538Y11094345D01*
X10505646Y11088452D01*
X10500719Y11083411D01*
X10500718Y11083409D01*
X10439428Y10989347D01*
X10439426Y10989342D01*
X10418463Y10938731D01*
X10417755Y10937021D01*
X10416232Y10933222D01*
X10415130Y10930472D01*
X10415129Y10930468D01*
X10394500Y10820116D01*
X10394500Y8828192D01*
X10372826Y8775866D01*
X10320500Y8754192D01*
X10282831Y8764497D01*
X10175192Y8828155D01*
X10023551Y8872211D01*
X9988110Y8875000D01*
X9825000Y8875000D01*
X9825000Y8074000D01*
X9803326Y8021674D01*
X9751000Y8000000D01*
X9700000Y8000000D01*
X9700000Y7949000D01*
X9678326Y7896674D01*
X9626000Y7875000D01*
X8850000Y7875000D01*
X8850000Y7686890D01*
X8852789Y7651449D01*
X8896845Y7499809D01*
X8977228Y7363889D01*
X9088888Y7252229D01*
X9121072Y7233195D01*
X9155078Y7187903D01*
X9147098Y7131831D01*
X9101806Y7097825D01*
X9083403Y7095500D01*
X8847931Y7095500D01*
X8747343Y7068548D01*
X8747342Y7068548D01*
X8747340Y7068547D01*
X8747338Y7068546D01*
X8688353Y7034490D01*
X8657159Y7016481D01*
X8657157Y7016480D01*
X8657157Y7016479D01*
X8463325Y6822646D01*
X8282853Y6642174D01*
X8230527Y6620500D01*
X7466077Y6620500D01*
X7413751Y6642174D01*
X7406537Y6650558D01*
X7372153Y6697147D01*
X7372146Y6697154D01*
X7262883Y6777793D01*
X7262884Y6777793D01*
X7256140Y6780152D01*
X7213908Y6817891D01*
X7210731Y6874439D01*
X7248470Y6916671D01*
X7256140Y6919848D01*
X7262882Y6922207D01*
X7372150Y7002850D01*
X7452793Y7112118D01*
X7497646Y7240301D01*
X7500500Y7270734D01*
X7500500Y7679266D01*
X7497646Y7709699D01*
X7484639Y7746871D01*
X7487814Y7803418D01*
X7502157Y7823634D01*
X7840510Y8161985D01*
X7912984Y8287515D01*
X7919843Y8313111D01*
X8850000Y8313111D01*
X8850000Y8125000D01*
X9575000Y8125000D01*
X9575000Y8875000D01*
X9411890Y8875000D01*
X9376448Y8872211D01*
X9224808Y8828155D01*
X9088888Y8747772D01*
X8977228Y8636112D01*
X8896845Y8500192D01*
X8852789Y8348552D01*
X8850000Y8313111D01*
X7919843Y8313111D01*
X7920349Y8315001D01*
X7950500Y8427525D01*
X7950500Y8439267D01*
X7952518Y8447730D01*
X7958005Y8455308D01*
X7962972Y8471680D01*
X7963506Y8472479D01*
X7976465Y8491873D01*
X8025501Y8610256D01*
X8050500Y8735931D01*
X8050500Y8864069D01*
X8037180Y8931029D01*
X8025502Y8989740D01*
X8025501Y8989743D01*
X8023437Y8994725D01*
X7976465Y9108127D01*
X7905276Y9214669D01*
X7814669Y9305276D01*
X7807208Y9310261D01*
X7779473Y9328793D01*
X7708127Y9376465D01*
X7708124Y9376467D01*
X7708123Y9376467D01*
X7589742Y9425502D01*
X7589739Y9425503D01*
X7491100Y9445123D01*
X7464069Y9450500D01*
X7335931Y9450500D01*
X7308900Y9445123D01*
X7210260Y9425503D01*
X7210257Y9425502D01*
X7091876Y9376467D01*
X6985331Y9305277D01*
X6985330Y9305275D01*
X6894725Y9214670D01*
X6894723Y9214669D01*
X6823533Y9108124D01*
X6774498Y8989743D01*
X6774497Y8989740D01*
X6749500Y8864068D01*
X6749500Y8735933D01*
X6759686Y8684724D01*
X6758207Y8677290D01*
X6761108Y8670287D01*
X6752847Y8650346D01*
X6748637Y8629175D01*
X6739434Y8617961D01*
X6728022Y8606549D01*
X6712696Y8594789D01*
X6661988Y8565513D01*
X6193649Y8097174D01*
X6141323Y8075500D01*
X5595734Y8075500D01*
X5565301Y8072646D01*
X5565299Y8072646D01*
X5565295Y8072645D01*
X5437118Y8027794D01*
X5437116Y8027793D01*
X5327853Y7947154D01*
X5327846Y7947147D01*
X5247207Y7837884D01*
X5247206Y7837882D01*
X5202355Y7709705D01*
X5202354Y7709701D01*
X5202354Y7709699D01*
X5199500Y7679266D01*
X5199500Y7270734D01*
X5202354Y7240301D01*
X5202354Y7240299D01*
X5202355Y7240296D01*
X5247206Y7112119D01*
X5247207Y7112117D01*
X5327846Y7002854D01*
X5327853Y7002847D01*
X5437116Y6922208D01*
X5437118Y6922207D01*
X5443861Y6919847D01*
X5486092Y6882107D01*
X5489267Y6825559D01*
X5451527Y6783328D01*
X5443861Y6780153D01*
X5437118Y6777794D01*
X5437116Y6777793D01*
X5327853Y6697154D01*
X5327846Y6697147D01*
X5247207Y6587884D01*
X5247206Y6587882D01*
X5202355Y6459705D01*
X5202354Y6459701D01*
X5202354Y6459699D01*
X5199500Y6429266D01*
X5199500Y6020734D01*
X5202354Y5990301D01*
X5202354Y5990299D01*
X5202355Y5990296D01*
X5247206Y5862119D01*
X5247207Y5862117D01*
X5327846Y5752854D01*
X5327853Y5752847D01*
X5437116Y5672208D01*
X5437118Y5672207D01*
X5443861Y5669847D01*
X5486092Y5632107D01*
X5489267Y5575559D01*
X5451527Y5533328D01*
X5443861Y5530153D01*
X5437118Y5527794D01*
X5437116Y5527793D01*
X5327853Y5447154D01*
X5327846Y5447147D01*
X5247207Y5337884D01*
X5247206Y5337882D01*
X5202355Y5209705D01*
X5202354Y5209701D01*
X5202354Y5209699D01*
X5199500Y5179266D01*
X5199500Y4770734D01*
X5202354Y4740301D01*
X5202354Y4740299D01*
X5202355Y4740296D01*
X5247206Y4612119D01*
X5247207Y4612117D01*
X5327846Y4502854D01*
X5327850Y4502850D01*
X5369817Y4471877D01*
X5399047Y4423366D01*
X5385414Y4368394D01*
X5370588Y4353374D01*
X5257437Y4267568D01*
X5166077Y4147093D01*
X5110614Y4006444D01*
X5100000Y3918062D01*
X5100000Y3850000D01*
X7600000Y3850000D01*
X7600000Y3918062D01*
X7589385Y4006445D01*
X7577052Y4037721D01*
X18440001Y4037721D01*
X18450419Y3950952D01*
X18450420Y3950948D01*
X18504877Y3812853D01*
X18594571Y3694573D01*
X18594572Y3694572D01*
X18712852Y3604878D01*
X18850944Y3550422D01*
X18937721Y3540001D01*
X18994999Y3540002D01*
X18995000Y3540002D01*
X18995000Y4125000D01*
X18440001Y4125000D01*
X18440001Y4037721D01*
X7577052Y4037721D01*
X7541252Y4128505D01*
X7533922Y4147093D01*
X7442562Y4267568D01*
X7329411Y4353374D01*
X7325137Y4360680D01*
X7317615Y4364560D01*
X7311297Y4384339D01*
X7300814Y4402261D01*
X7302958Y4410450D01*
X7300383Y4418512D01*
X7309208Y4434317D01*
X7315162Y4457051D01*
X7320120Y4462279D01*
X18440000Y4462279D01*
X18440000Y4375000D01*
X18995000Y4375000D01*
X18995000Y4960000D01*
X19245000Y4960000D01*
X19245000Y3540001D01*
X19302278Y3540001D01*
X19302279Y3540002D01*
X19370793Y3548228D01*
X19425329Y3532947D01*
X19453087Y3483578D01*
X19447982Y3446438D01*
X19424499Y3389747D01*
X19424497Y3389740D01*
X19399500Y3264068D01*
X19399500Y3135933D01*
X19424497Y3010261D01*
X19424498Y3010258D01*
X19470168Y2900000D01*
X19473535Y2891873D01*
X19544724Y2785331D01*
X19635331Y2694724D01*
X19741873Y2623535D01*
X19860256Y2574499D01*
X19860258Y2574499D01*
X19860260Y2574498D01*
X19902903Y2566016D01*
X19985931Y2549500D01*
X19985933Y2549500D01*
X20114067Y2549500D01*
X20114069Y2549500D01*
X20239744Y2574499D01*
X20358127Y2623535D01*
X20464669Y2694724D01*
X20555276Y2785331D01*
X20626465Y2891873D01*
X20675501Y3010256D01*
X20700500Y3135931D01*
X20700500Y3264069D01*
X20683506Y3349501D01*
X20675502Y3389740D01*
X20675500Y3389747D01*
X20636133Y3484788D01*
X20630500Y3513106D01*
X20630500Y3625500D01*
X20652174Y3677826D01*
X20704500Y3699500D01*
X20725501Y3699500D01*
X20777827Y3677826D01*
X20799501Y3625500D01*
X20799501Y3580137D01*
X20802414Y3555014D01*
X20802415Y3555008D01*
X20820917Y3513106D01*
X20847794Y3452235D01*
X20927235Y3372794D01*
X21030009Y3327415D01*
X21055135Y3324500D01*
X22544864Y3324501D01*
X22569991Y3327415D01*
X22672765Y3372794D01*
X22752206Y3452235D01*
X22797585Y3555009D01*
X22800500Y3580135D01*
X22800499Y4819864D01*
X22797585Y4844991D01*
X22752206Y4947765D01*
X22672765Y5027206D01*
X22569991Y5072585D01*
X22569990Y5072586D01*
X22569988Y5072586D01*
X22548659Y5075060D01*
X22544865Y5075500D01*
X22544864Y5075500D01*
X21055136Y5075500D01*
X21030013Y5072586D01*
X21030007Y5072585D01*
X20927234Y5027206D01*
X20847794Y4947766D01*
X20802247Y4844610D01*
X20761284Y4805497D01*
X20734552Y4800500D01*
X20470599Y4800500D01*
X20433773Y4812617D01*
X20433058Y4811262D01*
X20428156Y4813853D01*
X20302824Y4857709D01*
X20302825Y4857709D01*
X20302820Y4857710D01*
X20302819Y4857710D01*
X20273066Y4860500D01*
X19886934Y4860500D01*
X19857181Y4857710D01*
X19857179Y4857710D01*
X19857175Y4857709D01*
X19731843Y4813853D01*
X19726960Y4810249D01*
X19671987Y4796619D01*
X19638308Y4810828D01*
X19527147Y4895123D01*
X19389055Y4949579D01*
X19302278Y4960000D01*
X19245000Y4960000D01*
X18995000Y4960000D01*
X18994999Y4960001D01*
X18937722Y4960000D01*
X18937719Y4959999D01*
X18850951Y4949581D01*
X18850947Y4949580D01*
X18712852Y4895123D01*
X18594572Y4805429D01*
X18594571Y4805428D01*
X18504877Y4687148D01*
X18450421Y4549056D01*
X18440000Y4462279D01*
X7320120Y4462279D01*
X7326348Y4468847D01*
X7328207Y4470420D01*
X7372150Y4502850D01*
X7406536Y4549443D01*
X7455047Y4578673D01*
X7466077Y4579500D01*
X7777068Y4579500D01*
X7777069Y4579500D01*
X7877658Y4606452D01*
X7936647Y4640510D01*
X7967843Y4658521D01*
X8041479Y4732157D01*
X8041480Y4732160D01*
X8815911Y5506592D01*
X8825828Y5514203D01*
X8825683Y5514392D01*
X8825858Y5514526D01*
X8826432Y5514909D01*
X8829524Y5517307D01*
X8829894Y5517591D01*
X8829903Y5517601D01*
X8829908Y5517603D01*
X8868168Y5555891D01*
X8868191Y5555901D01*
X8868185Y5555907D01*
X9195105Y5882826D01*
X9247431Y5904500D01*
X13352068Y5904500D01*
X13352069Y5904500D01*
X13452658Y5931452D01*
X13540480Y5982157D01*
X13542843Y5983521D01*
X13616479Y6057157D01*
X13616480Y6057160D01*
X14342148Y6782826D01*
X14394474Y6804500D01*
X30816303Y6804500D01*
X30868629Y6782826D01*
X30890303Y6730500D01*
X30877832Y6689389D01*
X30831802Y6620500D01*
X30823533Y6608124D01*
X30774498Y6489743D01*
X30774497Y6489740D01*
X30749500Y6364068D01*
X30749500Y6235933D01*
X30774497Y6110261D01*
X30774498Y6110258D01*
X30823535Y5991873D01*
X30876044Y5913286D01*
X30885991Y5891334D01*
X30887013Y5887519D01*
X30959490Y5761985D01*
X31107826Y5613649D01*
X31129500Y5561323D01*
X31129500Y5343154D01*
X31125347Y5318713D01*
X31102291Y5252826D01*
X31102290Y5252821D01*
X31102072Y5250499D01*
X31099500Y5223066D01*
X31099500Y4776934D01*
X31101174Y4759083D01*
X31102290Y4747177D01*
X31118469Y4700945D01*
X31125347Y4681288D01*
X31129500Y4656848D01*
X31129500Y4422912D01*
X31107826Y4370586D01*
X31107207Y4370054D01*
X31103577Y4366424D01*
X31025617Y4260793D01*
X30982260Y4136885D01*
X30982260Y4136883D01*
X30982259Y4136879D01*
X30979501Y4107460D01*
X30979500Y4107452D01*
X30979500Y3777676D01*
X30957826Y3725350D01*
X30905500Y3703676D01*
X30853174Y3725350D01*
X30622173Y3956351D01*
X30600499Y4008677D01*
X30600499Y4994864D01*
X30597585Y5019987D01*
X30597585Y5019989D01*
X30597585Y5019991D01*
X30552206Y5122765D01*
X30472765Y5202206D01*
X30369991Y5247585D01*
X30369990Y5247586D01*
X30369988Y5247586D01*
X30348659Y5250060D01*
X30344865Y5250500D01*
X30344864Y5250500D01*
X28855136Y5250500D01*
X28830013Y5247586D01*
X28830007Y5247585D01*
X28727234Y5202206D01*
X28647794Y5122766D01*
X28602414Y5019989D01*
X28599500Y4994865D01*
X28599500Y3405137D01*
X28602414Y3380014D01*
X28602415Y3380008D01*
X28636458Y3302908D01*
X28647794Y3277235D01*
X28727235Y3197794D01*
X28830009Y3152415D01*
X28855135Y3149500D01*
X29841322Y3149501D01*
X29893648Y3127827D01*
X30561986Y2459490D01*
X30572224Y2453579D01*
X30572227Y2453576D01*
X30572228Y2453577D01*
X30687515Y2387016D01*
X30687516Y2387016D01*
X30687518Y2387015D01*
X30757520Y2368258D01*
X30827522Y2349501D01*
X30827523Y2349500D01*
X30827525Y2349500D01*
X30827526Y2349500D01*
X30972474Y2349500D01*
X31271276Y2349500D01*
X31295717Y2345347D01*
X31333114Y2332261D01*
X31333116Y2332261D01*
X31333121Y2332259D01*
X31362543Y2329500D01*
X31837456Y2329501D01*
X31866879Y2332259D01*
X31990794Y2375619D01*
X32096423Y2453577D01*
X32128096Y2496493D01*
X32176606Y2525723D01*
X32231578Y2512091D01*
X32246600Y2497263D01*
X32333140Y2383142D01*
X32333141Y2383141D01*
X32450326Y2294277D01*
X32587141Y2240326D01*
X32673115Y2230000D01*
X32775000Y2230000D01*
X33025000Y2230000D01*
X33126885Y2230000D01*
X33212858Y2240326D01*
X33349673Y2294277D01*
X33466858Y2383141D01*
X33466859Y2383142D01*
X33555723Y2500327D01*
X33609674Y2637142D01*
X33620000Y2723115D01*
X33620000Y2775000D01*
X33025000Y2775000D01*
X33025000Y2230000D01*
X32775000Y2230000D01*
X32775000Y2826000D01*
X32796674Y2878326D01*
X32849000Y2900000D01*
X32900000Y2900000D01*
X32900000Y2951000D01*
X32921674Y3003326D01*
X32974000Y3025000D01*
X33620000Y3025000D01*
X33620000Y3036612D01*
X39649500Y3036612D01*
X39649500Y2863389D01*
X39676597Y2692302D01*
X39676600Y2692289D01*
X39730125Y2527558D01*
X39730127Y2527554D01*
X39808767Y2373213D01*
X39905315Y2240326D01*
X39910586Y2233072D01*
X40033072Y2110586D01*
X40033075Y2110584D01*
X40033076Y2110583D01*
X40173212Y2008768D01*
X40327553Y1930128D01*
X40327557Y1930126D01*
X40492288Y1876601D01*
X40492294Y1876600D01*
X40492299Y1876598D01*
X40606359Y1858533D01*
X40663388Y1849500D01*
X40663389Y1849500D01*
X40836612Y1849500D01*
X40879383Y1856275D01*
X41007701Y1876598D01*
X41007708Y1876601D01*
X41007711Y1876601D01*
X41172442Y1930126D01*
X41172442Y1930127D01*
X41172445Y1930127D01*
X41326788Y2008768D01*
X41466928Y2110586D01*
X41589414Y2233072D01*
X41691232Y2373212D01*
X41769873Y2527555D01*
X41823402Y2692299D01*
X41850500Y2863389D01*
X41850500Y3036611D01*
X41823402Y3207701D01*
X41823400Y3207706D01*
X41823399Y3207712D01*
X41769874Y3372443D01*
X41769872Y3372447D01*
X41691232Y3526788D01*
X41589417Y3666924D01*
X41589416Y3666925D01*
X41589414Y3666928D01*
X41466928Y3789414D01*
X41466925Y3789417D01*
X41466923Y3789418D01*
X41326787Y3891233D01*
X41172446Y3969873D01*
X41172442Y3969875D01*
X41007711Y4023400D01*
X41007698Y4023403D01*
X40836612Y4050500D01*
X40836611Y4050500D01*
X40663389Y4050500D01*
X40663388Y4050500D01*
X40492301Y4023403D01*
X40492288Y4023400D01*
X40327557Y3969875D01*
X40327553Y3969873D01*
X40173212Y3891233D01*
X40033076Y3789418D01*
X39910582Y3666924D01*
X39808767Y3526788D01*
X39730127Y3372447D01*
X39730125Y3372443D01*
X39676600Y3207712D01*
X39676597Y3207699D01*
X39649500Y3036612D01*
X33620000Y3036612D01*
X33620000Y3076886D01*
X33609674Y3162859D01*
X33555723Y3299674D01*
X33466859Y3416859D01*
X33453059Y3427324D01*
X33424463Y3476212D01*
X33438233Y3530229D01*
X33474381Y3579206D01*
X33474707Y3580136D01*
X33508890Y3677826D01*
X33517741Y3703121D01*
X33520500Y3732543D01*
X33520499Y4107456D01*
X33517741Y4136879D01*
X33474381Y4260794D01*
X33396423Y4366423D01*
X33393752Y4368394D01*
X33325845Y4418512D01*
X33290794Y4444381D01*
X33290792Y4444382D01*
X33287538Y4445521D01*
X33285946Y4446944D01*
X33285889Y4446974D01*
X33285896Y4446989D01*
X33245309Y4483264D01*
X33242137Y4539812D01*
X33253022Y4560084D01*
X33255122Y4562854D01*
X33309578Y4700945D01*
X33320000Y4787722D01*
X33320000Y4875000D01*
X32714000Y4875000D01*
X32661674Y4896674D01*
X32640000Y4949000D01*
X32640000Y5000000D01*
X32589000Y5000000D01*
X32536674Y5021674D01*
X32515000Y5074000D01*
X32515000Y5125000D01*
X32765000Y5125000D01*
X33319999Y5125000D01*
X33319999Y5212278D01*
X33319998Y5212280D01*
X33309580Y5299049D01*
X33309579Y5299053D01*
X33255122Y5437148D01*
X33165428Y5555428D01*
X33165427Y5555429D01*
X33047147Y5645123D01*
X32909055Y5699579D01*
X32822278Y5710000D01*
X32765000Y5710000D01*
X32765000Y5125000D01*
X32515000Y5125000D01*
X32515000Y5710000D01*
X32514999Y5710001D01*
X32457722Y5710000D01*
X32457719Y5709999D01*
X32370951Y5699581D01*
X32370944Y5699579D01*
X32331646Y5684082D01*
X32275017Y5685050D01*
X32235659Y5725777D01*
X32230500Y5752923D01*
X32230500Y5892477D01*
X32230499Y5892478D01*
X32227645Y5903128D01*
X32192984Y6032485D01*
X32178739Y6057158D01*
X32120510Y6158015D01*
X32072174Y6206351D01*
X32050500Y6258677D01*
X32050500Y6364068D01*
X32025502Y6489740D01*
X32025501Y6489743D01*
X31976466Y6608124D01*
X31976465Y6608127D01*
X31922167Y6689389D01*
X31911119Y6744937D01*
X31942585Y6792029D01*
X31983697Y6804500D01*
X34252068Y6804500D01*
X34252069Y6804500D01*
X34352658Y6831452D01*
X34427218Y6874500D01*
X34442843Y6883521D01*
X34516479Y6957157D01*
X34516480Y6957160D01*
X35742840Y8183520D01*
X35742843Y8183521D01*
X35816479Y8257157D01*
X35849875Y8315001D01*
X35868548Y8347342D01*
X35895500Y8447930D01*
X35895501Y8447930D01*
X35895501Y8556598D01*
X35895500Y8556616D01*
X35895500Y10041737D01*
X35917174Y10094063D01*
X35925546Y10101269D01*
X35996423Y10153577D01*
X36074381Y10259206D01*
X36090912Y10306447D01*
X36116649Y10380000D01*
X36117741Y10383121D01*
X36120500Y10412543D01*
X36120499Y10787456D01*
X36117741Y10816879D01*
X36116608Y10820116D01*
X36084158Y10912853D01*
X36074381Y10940794D01*
X35996423Y11046423D01*
X35990953Y11050460D01*
X35961723Y11098970D01*
X35975355Y11153942D01*
X35990954Y11169541D01*
X35996423Y11173577D01*
X36074381Y11279206D01*
X36089301Y11321843D01*
X36109562Y11379747D01*
X36117741Y11403121D01*
X36120500Y11432543D01*
X36120499Y11807456D01*
X36117741Y11836879D01*
X36100623Y11885798D01*
X36087322Y11923812D01*
X36074381Y11960794D01*
X35996423Y12066423D01*
X35996422Y12066424D01*
X35890792Y12144383D01*
X35766884Y12187740D01*
X35766881Y12187741D01*
X35766879Y12187741D01*
X35737457Y12190500D01*
X35737451Y12190500D01*
X35519473Y12190500D01*
X35467147Y12212174D01*
X35040699Y12638622D01*
X35040697Y12638625D01*
X35004821Y12674501D01*
X34962843Y12716479D01*
X34952183Y12722634D01*
X34917750Y12742515D01*
X34917750Y12742514D01*
X34872662Y12768546D01*
X34872658Y12768548D01*
X34804322Y12786858D01*
X34772069Y12795500D01*
X34772068Y12795500D01*
X34394474Y12795500D01*
X34342148Y12817174D01*
X33611146Y13548175D01*
X33589472Y13600501D01*
X33611146Y13652827D01*
X33663472Y13674501D01*
X34246941Y13674501D01*
X34246948Y13674501D01*
X34300181Y13682256D01*
X34317504Y13684779D01*
X34317505Y13684780D01*
X34317509Y13684780D01*
X34426347Y13737988D01*
X34512012Y13823653D01*
X34565220Y13932491D01*
X34575500Y14003051D01*
X34575499Y14196948D01*
X34574266Y14205413D01*
X34565221Y14267505D01*
X34565220Y14267507D01*
X34565220Y14267509D01*
X34540779Y14317502D01*
X34537270Y14374027D01*
X34540781Y14382502D01*
X34544913Y14390952D01*
X34565220Y14432491D01*
X34575500Y14503051D01*
X34575499Y14607757D01*
X34597173Y14660081D01*
X34649498Y14681756D01*
X34701824Y14660082D01*
X34701825Y14660082D01*
X37207826Y12154081D01*
X37229500Y12101756D01*
X37229500Y12043549D01*
X37229501Y12043534D01*
X37232337Y12013274D01*
X37232338Y12013268D01*
X37276942Y11885800D01*
X37276943Y11885798D01*
X37337355Y11803942D01*
X37350988Y11748971D01*
X37337355Y11716058D01*
X37276943Y11634203D01*
X37276942Y11634201D01*
X37232339Y11506735D01*
X37232338Y11506731D01*
X37232338Y11506729D01*
X37229545Y11476934D01*
X37229500Y11476458D01*
X37229500Y11073548D01*
X37229501Y11073535D01*
X37232337Y11043274D01*
X37232338Y11043268D01*
X37276942Y10915800D01*
X37276943Y10915798D01*
X37357134Y10807142D01*
X37357141Y10807135D01*
X37465797Y10726944D01*
X37465799Y10726943D01*
X37593265Y10682340D01*
X37593271Y10682338D01*
X37623537Y10679500D01*
X38076462Y10679501D01*
X38106729Y10682338D01*
X38118880Y10686590D01*
X38215351Y10720347D01*
X38239792Y10724500D01*
X38699831Y10724500D01*
X38724272Y10720347D01*
X38832892Y10682339D01*
X38833121Y10682259D01*
X38862543Y10679500D01*
X39337456Y10679501D01*
X39366879Y10682259D01*
X39367111Y10682340D01*
X39413967Y10698736D01*
X39490794Y10725619D01*
X39596423Y10803577D01*
X39674381Y10909206D01*
X39676689Y10915800D01*
X39717739Y11033116D01*
X39717738Y11033116D01*
X39717741Y11033121D01*
X39720500Y11062543D01*
X39720499Y11437456D01*
X39717741Y11466879D01*
X39717740Y11466883D01*
X39674382Y11590793D01*
X39648398Y11626000D01*
X39638233Y11639772D01*
X39624600Y11694743D01*
X39653062Y11742679D01*
X39666859Y11753142D01*
X39755723Y11870327D01*
X39809674Y12007142D01*
X39820000Y12093115D01*
X39820000Y12145000D01*
X39174000Y12145000D01*
X39121674Y12166674D01*
X39100000Y12219000D01*
X39100000Y12270000D01*
X39049000Y12270000D01*
X38996674Y12291674D01*
X38975000Y12344000D01*
X38975000Y12395000D01*
X39225000Y12395000D01*
X39820000Y12395000D01*
X39820000Y12446886D01*
X39809674Y12532859D01*
X39755723Y12669674D01*
X39666859Y12786859D01*
X39666858Y12786860D01*
X39549673Y12875724D01*
X39412858Y12929675D01*
X39326885Y12940000D01*
X39225000Y12940000D01*
X39225000Y12395000D01*
X38975000Y12395000D01*
X38975000Y12940000D01*
X38873115Y12940000D01*
X38787141Y12929675D01*
X38650326Y12875724D01*
X38533141Y12786860D01*
X38533139Y12786858D01*
X38468801Y12702015D01*
X38419914Y12673418D01*
X38365124Y12687766D01*
X38350297Y12702788D01*
X38342863Y12712861D01*
X38342858Y12712866D01*
X38234202Y12793057D01*
X38234200Y12793058D01*
X38106734Y12837661D01*
X38106735Y12837661D01*
X38106730Y12837662D01*
X38106729Y12837662D01*
X38076463Y12840500D01*
X38076456Y12840500D01*
X37623547Y12840500D01*
X37623537Y12840499D01*
X37621532Y12840311D01*
X37567416Y12857020D01*
X37562317Y12861664D01*
X34578370Y15845611D01*
X34556696Y15897937D01*
X34564219Y15930445D01*
X34565220Y15932491D01*
X34575500Y16003051D01*
X34575499Y16187721D01*
X34790001Y16187721D01*
X34800419Y16100952D01*
X34800420Y16100948D01*
X34854877Y15962853D01*
X34944571Y15844573D01*
X34944572Y15844572D01*
X35062852Y15754878D01*
X35200944Y15700422D01*
X35287721Y15690001D01*
X35375000Y15690001D01*
X35375000Y16245000D01*
X34790001Y16245000D01*
X34790001Y16187721D01*
X34575499Y16187721D01*
X34575499Y16196948D01*
X34573529Y16210474D01*
X34565588Y16264985D01*
X34565588Y16264987D01*
X34565221Y16267504D01*
X34565220Y16267507D01*
X34565220Y16267509D01*
X34540779Y16317502D01*
X34537270Y16374027D01*
X34540781Y16382502D01*
X34543387Y16387831D01*
X34565220Y16432491D01*
X34575500Y16503051D01*
X34575499Y16696948D01*
X34575498Y16696954D01*
X34565221Y16767505D01*
X34565220Y16767507D01*
X34565220Y16767509D01*
X34540779Y16817502D01*
X34537270Y16874027D01*
X34540781Y16882502D01*
X34543620Y16888308D01*
X34565220Y16932491D01*
X34575500Y17003051D01*
X34575499Y17075501D01*
X34597172Y17127825D01*
X34649498Y17149500D01*
X34824976Y17149500D01*
X34877302Y17127826D01*
X34894823Y17099941D01*
X34936147Y16981845D01*
X34939749Y16976964D01*
X34953383Y16921992D01*
X34939173Y16888308D01*
X34854877Y16777148D01*
X34800421Y16639056D01*
X34790000Y16552279D01*
X34790000Y16495000D01*
X35426000Y16495000D01*
X35478326Y16473326D01*
X35500000Y16421000D01*
X35500000Y16370000D01*
X35551000Y16370000D01*
X35603326Y16348326D01*
X35625000Y16296000D01*
X35625000Y15690001D01*
X35712278Y15690001D01*
X35712279Y15690002D01*
X35799048Y15700420D01*
X35799056Y15700422D01*
X35913114Y15745401D01*
X35969743Y15744435D01*
X35992588Y15728887D01*
X36099508Y15621967D01*
X36119760Y15584078D01*
X36124497Y15560261D01*
X36124498Y15560258D01*
X36155936Y15484359D01*
X36173535Y15441873D01*
X36217684Y15375800D01*
X36239132Y15343699D01*
X36244724Y15335331D01*
X36335331Y15244724D01*
X36441873Y15173535D01*
X36560256Y15124499D01*
X36560258Y15124499D01*
X36560260Y15124498D01*
X36602903Y15116016D01*
X36685931Y15099500D01*
X36685933Y15099500D01*
X36814067Y15099500D01*
X36814069Y15099500D01*
X36939744Y15124499D01*
X37058127Y15173535D01*
X37164669Y15244724D01*
X37255276Y15335331D01*
X37326465Y15441873D01*
X37344063Y15484359D01*
X43800000Y15484359D01*
X43802900Y15447507D01*
X43848718Y15289801D01*
X43932317Y15148444D01*
X44048443Y15032318D01*
X44189800Y14948719D01*
X44347508Y14902901D01*
X44347505Y14902901D01*
X44384359Y14900000D01*
X45175000Y14900000D01*
X45425000Y14900000D01*
X46215641Y14900000D01*
X46252493Y14902901D01*
X46410199Y14948719D01*
X46551556Y15032318D01*
X46667682Y15148444D01*
X46751281Y15289801D01*
X46797099Y15447507D01*
X46800000Y15484359D01*
X46800000Y15700000D01*
X45425000Y15700000D01*
X45425000Y14900000D01*
X45175000Y14900000D01*
X45175000Y15700000D01*
X43800000Y15700000D01*
X43800000Y15484359D01*
X37344063Y15484359D01*
X37375501Y15560256D01*
X37400500Y15685931D01*
X37400500Y15814069D01*
X37378750Y15923410D01*
X37375502Y15939740D01*
X37375501Y15939743D01*
X37373721Y15944040D01*
X37326465Y16058127D01*
X37255276Y16164669D01*
X37164669Y16255276D01*
X37162349Y16256826D01*
X37129910Y16278501D01*
X37091040Y16304474D01*
X37059575Y16351564D01*
X37070624Y16407113D01*
X37117716Y16438579D01*
X37124218Y16439220D01*
X37125000Y16440001D01*
X37375000Y16440001D01*
X37462278Y16440001D01*
X37462279Y16440002D01*
X37549048Y16450420D01*
X37549052Y16450421D01*
X37687147Y16504878D01*
X37805427Y16594572D01*
X37805428Y16594573D01*
X37895122Y16712853D01*
X37949578Y16850945D01*
X37960000Y16937722D01*
X37960000Y16995000D01*
X37375000Y16995000D01*
X37375000Y16440001D01*
X37125000Y16440001D01*
X37125000Y17046000D01*
X37146674Y17098326D01*
X37199000Y17120000D01*
X37250000Y17120000D01*
X37250000Y17171000D01*
X37271674Y17223326D01*
X37324000Y17245000D01*
X37959999Y17245000D01*
X37959999Y17302278D01*
X37959998Y17302280D01*
X37949580Y17389049D01*
X37949579Y17389053D01*
X37895122Y17527148D01*
X37850655Y17585787D01*
X37844666Y17608659D01*
X37835619Y17630500D01*
X37837657Y17635423D01*
X37836308Y17640577D01*
X37848246Y17660985D01*
X37857293Y17682826D01*
X37862215Y17684866D01*
X37864906Y17689464D01*
X37909619Y17704500D01*
X37937925Y17704500D01*
X37990251Y17682826D01*
X37997465Y17674442D01*
X38047134Y17607142D01*
X38047141Y17607135D01*
X38155797Y17526944D01*
X38155799Y17526943D01*
X38283265Y17482340D01*
X38283271Y17482338D01*
X38313537Y17479500D01*
X38716462Y17479501D01*
X38746729Y17482338D01*
X38776267Y17492674D01*
X38874199Y17526942D01*
X38874199Y17526943D01*
X38874201Y17526943D01*
X38956058Y17587357D01*
X39011029Y17600990D01*
X39043940Y17587358D01*
X39089080Y17554043D01*
X39125800Y17526942D01*
X39253265Y17482340D01*
X39253271Y17482338D01*
X39283537Y17479500D01*
X39686462Y17479501D01*
X39716729Y17482338D01*
X39844201Y17526943D01*
X39952862Y17607138D01*
X39983179Y17648217D01*
X40031689Y17677447D01*
X40086661Y17663815D01*
X40109200Y17636774D01*
X40126580Y17601221D01*
X40126581Y17601220D01*
X40213720Y17514081D01*
X40324433Y17459957D01*
X40396205Y17449500D01*
X40603794Y17449501D01*
X40609160Y17450283D01*
X40663776Y17436597D01*
X40717787Y17396734D01*
X40842008Y17353267D01*
X40842007Y17353267D01*
X40871507Y17350501D01*
X40871509Y17350500D01*
X40990500Y17350500D01*
X40990500Y17798500D01*
X41012174Y17850826D01*
X41064500Y17872500D01*
X41160500Y17872500D01*
X41212826Y17850826D01*
X41234500Y17798500D01*
X41234500Y17350500D01*
X41353491Y17350500D01*
X41353492Y17350501D01*
X41382991Y17353267D01*
X41507212Y17396734D01*
X41561222Y17436596D01*
X41615837Y17450282D01*
X41616949Y17450121D01*
X41621205Y17449500D01*
X41813810Y17449501D01*
X41866136Y17427827D01*
X41949525Y17344438D01*
X42019438Y17274525D01*
X42105062Y17225090D01*
X42152813Y17212295D01*
X42176688Y17205898D01*
X42200563Y17199500D01*
X42200564Y17199500D01*
X42200565Y17199500D01*
X42900500Y17199500D01*
X42952826Y17177826D01*
X42974500Y17125500D01*
X42974500Y17006898D01*
X42974500Y17006896D01*
X42974499Y17006896D01*
X42982807Y16937722D01*
X42985123Y16918436D01*
X42991660Y16901860D01*
X43040638Y16777659D01*
X43105217Y16692500D01*
X43132078Y16657078D01*
X43252658Y16565639D01*
X43393436Y16510123D01*
X43464764Y16501558D01*
X43481896Y16499500D01*
X43801365Y16499500D01*
X43853691Y16477826D01*
X43875365Y16425500D01*
X43865060Y16387831D01*
X43848718Y16360199D01*
X43802900Y16202494D01*
X43800000Y16165642D01*
X43800000Y15950000D01*
X46800000Y15950000D01*
X46800000Y16165642D01*
X46797099Y16202494D01*
X46751281Y16360200D01*
X46667682Y16501557D01*
X46551557Y16617682D01*
X46436330Y16685828D01*
X46402325Y16731121D01*
X46400000Y16749523D01*
X46400000Y17909619D01*
X46421674Y17961945D01*
X46436333Y17973315D01*
X46451556Y17982318D01*
X46567682Y18098444D01*
X46651281Y18239801D01*
X46697099Y18397507D01*
X46700000Y18434359D01*
X46700000Y18650000D01*
X43900000Y18650000D01*
X43900000Y18434359D01*
X43902900Y18397507D01*
X43948718Y18239802D01*
X43965060Y18212169D01*
X43973040Y18156097D01*
X43939034Y18110805D01*
X43901365Y18100500D01*
X43481896Y18100500D01*
X43393436Y18089877D01*
X43252658Y18034362D01*
X43161898Y17965536D01*
X43117185Y17950500D01*
X42436189Y17950500D01*
X42383863Y17972174D01*
X42184673Y18171364D01*
X42162999Y18223690D01*
X42162999Y18416287D01*
X42162999Y18416294D01*
X42154374Y18475500D01*
X42152544Y18488062D01*
X42152542Y18488069D01*
X42123647Y18547174D01*
X42098419Y18598780D01*
X42011280Y18685919D01*
X42011279Y18685920D01*
X41900568Y18740043D01*
X41864681Y18745272D01*
X41828795Y18750500D01*
X41828794Y18750500D01*
X41621213Y18750500D01*
X41621198Y18750498D01*
X41615828Y18749716D01*
X41561223Y18763404D01*
X41507212Y18803267D01*
X41382991Y18846734D01*
X41382992Y18846734D01*
X41353492Y18849500D01*
X41234500Y18849500D01*
X41234500Y18401500D01*
X41212826Y18349174D01*
X41160500Y18327500D01*
X41064500Y18327500D01*
X41012174Y18349174D01*
X40990500Y18401500D01*
X40990500Y18849500D01*
X40949500Y18849500D01*
X40897174Y18871174D01*
X40875500Y18923500D01*
X40875500Y19033733D01*
X40897174Y19086059D01*
X40905547Y19093265D01*
X40934999Y19115001D01*
X40935472Y19115642D01*
X43900000Y19115642D01*
X43900000Y18900000D01*
X45175000Y18900000D01*
X45425000Y18900000D01*
X46700000Y18900000D01*
X46700000Y19115642D01*
X46697099Y19152494D01*
X46651281Y19310200D01*
X46567682Y19451557D01*
X46451556Y19567683D01*
X46310199Y19651282D01*
X46152491Y19697100D01*
X46152494Y19697100D01*
X46115641Y19700000D01*
X45425000Y19700000D01*
X45425000Y18900000D01*
X45175000Y18900000D01*
X45175000Y19700000D01*
X44484359Y19700000D01*
X44447506Y19697100D01*
X44289800Y19651282D01*
X44148443Y19567683D01*
X44032317Y19451557D01*
X43948718Y19310200D01*
X43902900Y19152494D01*
X43900000Y19115642D01*
X40935472Y19115642D01*
X40970316Y19162853D01*
X40990176Y19189763D01*
X41013852Y19221843D01*
X41019263Y19237305D01*
X41050288Y19325971D01*
X41057710Y19347181D01*
X41060500Y19376934D01*
X41060500Y19823066D01*
X41057710Y19852819D01*
X41056688Y19855741D01*
X41013853Y19978156D01*
X40934999Y20084999D01*
X40934998Y20085000D01*
X40828155Y20163854D01*
X40702824Y20207709D01*
X40702825Y20207709D01*
X40702820Y20207710D01*
X40702819Y20207710D01*
X40673066Y20210500D01*
X40286934Y20210500D01*
X40257181Y20207710D01*
X40257179Y20207710D01*
X40257175Y20207709D01*
X40131843Y20163853D01*
X40126960Y20160249D01*
X40071987Y20146619D01*
X40038308Y20160828D01*
X39927147Y20245123D01*
X39789055Y20299579D01*
X39702278Y20310000D01*
X39645000Y20310000D01*
X39645000Y18890001D01*
X39702278Y18890001D01*
X39702279Y18890002D01*
X39789048Y18900420D01*
X39789052Y18900421D01*
X39927147Y18954878D01*
X40005787Y19014512D01*
X40060576Y19028859D01*
X40109464Y19000261D01*
X40124500Y18955548D01*
X40124500Y18611644D01*
X40116980Y18579141D01*
X40109198Y18563224D01*
X40066743Y18525736D01*
X40010215Y18529247D01*
X39983179Y18551783D01*
X39952862Y18592862D01*
X39952860Y18592863D01*
X39952860Y18592864D01*
X39952858Y18592866D01*
X39844202Y18673057D01*
X39844200Y18673058D01*
X39716734Y18717661D01*
X39716735Y18717661D01*
X39716730Y18717662D01*
X39716729Y18717662D01*
X39686463Y18720500D01*
X39686457Y18720500D01*
X39283547Y18720500D01*
X39283534Y18720499D01*
X39253273Y18717663D01*
X39253267Y18717662D01*
X39125799Y18673058D01*
X39125797Y18673057D01*
X39043942Y18612645D01*
X38988971Y18599012D01*
X38956058Y18612645D01*
X38874202Y18673057D01*
X38874200Y18673058D01*
X38746734Y18717661D01*
X38746735Y18717661D01*
X38746730Y18717662D01*
X38746729Y18717662D01*
X38716463Y18720500D01*
X38716457Y18720500D01*
X38313547Y18720500D01*
X38313534Y18720499D01*
X38283273Y18717663D01*
X38283267Y18717662D01*
X38155799Y18673058D01*
X38155797Y18673057D01*
X38047141Y18592866D01*
X38047134Y18592859D01*
X37967944Y18485558D01*
X37962958Y18482554D01*
X37960730Y18477174D01*
X37939296Y18468296D01*
X37919433Y18456327D01*
X37908404Y18455500D01*
X37831029Y18455500D01*
X37778703Y18477174D01*
X37771489Y18485557D01*
X37734999Y18534999D01*
X37734998Y18535000D01*
X37628155Y18613854D01*
X37502824Y18657709D01*
X37502825Y18657709D01*
X37502820Y18657710D01*
X37502819Y18657710D01*
X37473066Y18660500D01*
X37026934Y18660500D01*
X36997181Y18657710D01*
X36997179Y18657710D01*
X36997175Y18657709D01*
X36871844Y18613854D01*
X36765003Y18535001D01*
X36765001Y18535000D01*
X36743272Y18505557D01*
X36694761Y18476326D01*
X36683732Y18475500D01*
X36258838Y18475500D01*
X36206512Y18497174D01*
X36184838Y18549500D01*
X36189997Y18576646D01*
X36199578Y18600944D01*
X36199578Y18600946D01*
X36210000Y18687722D01*
X36210000Y18745000D01*
X35574000Y18745000D01*
X35521674Y18766674D01*
X35500000Y18819000D01*
X35500000Y18921000D01*
X35521674Y18973326D01*
X35574000Y18995000D01*
X36209999Y18995000D01*
X36209999Y19052278D01*
X36209998Y19052280D01*
X36199580Y19139049D01*
X36199578Y19139057D01*
X36184082Y19178352D01*
X36185048Y19234981D01*
X36225774Y19274340D01*
X36252922Y19279500D01*
X36302477Y19279500D01*
X36302477Y19279501D01*
X36442485Y19317016D01*
X36469872Y19332828D01*
X36564951Y19387721D01*
X38840001Y19387721D01*
X38850419Y19300952D01*
X38850420Y19300948D01*
X38904877Y19162853D01*
X38994571Y19044573D01*
X38994572Y19044572D01*
X39112852Y18954878D01*
X39250944Y18900422D01*
X39337721Y18890001D01*
X39394999Y18890002D01*
X39395000Y18890002D01*
X39395000Y19475000D01*
X38840001Y19475000D01*
X38840001Y19387721D01*
X36564951Y19387721D01*
X36568015Y19389490D01*
X36615617Y19437094D01*
X36653503Y19457345D01*
X36739744Y19474499D01*
X36858127Y19523535D01*
X36964669Y19594724D01*
X37055276Y19685331D01*
X37126465Y19791873D01*
X37134917Y19812279D01*
X38840000Y19812279D01*
X38840000Y19725000D01*
X39395000Y19725000D01*
X39395000Y20310000D01*
X39394999Y20310001D01*
X39337722Y20310000D01*
X39337719Y20309999D01*
X39250951Y20299581D01*
X39250947Y20299580D01*
X39112852Y20245123D01*
X38994572Y20155429D01*
X38994571Y20155428D01*
X38904877Y20037148D01*
X38850421Y19899056D01*
X38840000Y19812279D01*
X37134917Y19812279D01*
X37175501Y19910256D01*
X37200500Y20035931D01*
X37200500Y20164069D01*
X37176630Y20284067D01*
X37175502Y20289740D01*
X37175501Y20289743D01*
X37171426Y20299580D01*
X37126465Y20408127D01*
X37055276Y20514669D01*
X36964669Y20605276D01*
X36858127Y20676465D01*
X36858124Y20676467D01*
X36858123Y20676467D01*
X36739742Y20725502D01*
X36739739Y20725503D01*
X36643131Y20744719D01*
X36614069Y20750500D01*
X36485931Y20750500D01*
X36456869Y20744719D01*
X36360260Y20725503D01*
X36360257Y20725502D01*
X36241876Y20676467D01*
X36135331Y20605277D01*
X36135330Y20605275D01*
X36044725Y20514670D01*
X36044723Y20514669D01*
X36022984Y20482133D01*
X35977049Y20413388D01*
X35970748Y20409177D01*
X35967848Y20402174D01*
X35947905Y20393914D01*
X35929959Y20381922D01*
X35915522Y20380500D01*
X35843153Y20380500D01*
X35818712Y20384653D01*
X35752824Y20407709D01*
X35752821Y20407710D01*
X35752819Y20407710D01*
X35723066Y20410500D01*
X35723060Y20410500D01*
X35548473Y20410500D01*
X35496147Y20432174D01*
X35474473Y20484500D01*
X35496147Y20536826D01*
X35684824Y20725503D01*
X36292840Y21333520D01*
X36292843Y21333521D01*
X36366479Y21407157D01*
X36398416Y21462474D01*
X36418548Y21497342D01*
X36445500Y21597930D01*
X36445501Y21597930D01*
X36445501Y21706598D01*
X36445500Y21706616D01*
X36445500Y21887359D01*
X36467174Y21939685D01*
X36488013Y21953075D01*
X36487689Y21953670D01*
X36492325Y21956203D01*
X36492331Y21956204D01*
X36607546Y22042454D01*
X36693796Y22157669D01*
X36744091Y22292517D01*
X36750500Y22352127D01*
X36750500Y22486612D01*
X39599500Y22486612D01*
X39599500Y22313389D01*
X39626597Y22142302D01*
X39626600Y22142289D01*
X39680125Y21977558D01*
X39680127Y21977554D01*
X39758767Y21823213D01*
X39846783Y21702069D01*
X39860586Y21683072D01*
X39983072Y21560586D01*
X39983075Y21560584D01*
X39983076Y21560583D01*
X40123212Y21458768D01*
X40277553Y21380128D01*
X40277557Y21380126D01*
X40442288Y21326601D01*
X40442294Y21326600D01*
X40442299Y21326598D01*
X40517616Y21314669D01*
X40613388Y21299500D01*
X40613389Y21299500D01*
X40786612Y21299500D01*
X40829383Y21306275D01*
X40957701Y21326598D01*
X40957708Y21326601D01*
X40957711Y21326601D01*
X41122442Y21380126D01*
X41122442Y21380127D01*
X41122445Y21380127D01*
X41276788Y21458768D01*
X41416928Y21560586D01*
X41539414Y21683072D01*
X41641232Y21823212D01*
X41719873Y21977555D01*
X41740960Y22042454D01*
X41773399Y22142289D01*
X41773399Y22142292D01*
X41773402Y22142299D01*
X41800500Y22313389D01*
X41800500Y22486611D01*
X41773402Y22657701D01*
X41773400Y22657706D01*
X41773399Y22657712D01*
X41719874Y22822443D01*
X41719872Y22822447D01*
X41641232Y22976788D01*
X41539417Y23116924D01*
X41539416Y23116925D01*
X41539414Y23116928D01*
X41416928Y23239414D01*
X41416925Y23239417D01*
X41416923Y23239418D01*
X41276787Y23341233D01*
X41122446Y23419873D01*
X41122442Y23419875D01*
X40957711Y23473400D01*
X40957698Y23473403D01*
X40786612Y23500500D01*
X40786611Y23500500D01*
X40613389Y23500500D01*
X40613388Y23500500D01*
X40442301Y23473403D01*
X40442288Y23473400D01*
X40277557Y23419875D01*
X40277553Y23419873D01*
X40123212Y23341233D01*
X39983076Y23239418D01*
X39860582Y23116924D01*
X39758767Y22976788D01*
X39680127Y22822447D01*
X39680125Y22822443D01*
X39626600Y22657712D01*
X39626597Y22657699D01*
X39599500Y22486612D01*
X36750500Y22486612D01*
X36750499Y22650000D01*
X36750499Y22947873D01*
X36747583Y22975000D01*
X36744091Y23007483D01*
X36719158Y23074332D01*
X36693797Y23142330D01*
X36693794Y23142336D01*
X36622590Y23237450D01*
X36608582Y23292327D01*
X36636782Y23340506D01*
X36677921Y23372073D01*
X36677922Y23372073D01*
X36774099Y23497413D01*
X36834556Y23643370D01*
X36850000Y23760679D01*
X36850000Y23925000D01*
X36124000Y23925000D01*
X36071674Y23946674D01*
X36050000Y23999000D01*
X36050000Y24050000D01*
X35999000Y24050000D01*
X35946674Y24071674D01*
X35925000Y24124000D01*
X35925000Y24175000D01*
X36175000Y24175000D01*
X36849999Y24175000D01*
X36849999Y24339322D01*
X36834556Y24456629D01*
X36834555Y24456633D01*
X36774099Y24602588D01*
X36677924Y24727925D01*
X36552587Y24824100D01*
X36406630Y24884557D01*
X36289321Y24900000D01*
X36175000Y24900000D01*
X36175000Y24175000D01*
X35925000Y24175000D01*
X35925000Y24900000D01*
X35810678Y24900000D01*
X35693371Y24884557D01*
X35693367Y24884556D01*
X35547412Y24824100D01*
X35458775Y24756087D01*
X35404067Y24741429D01*
X35387867Y24745461D01*
X35359377Y24756087D01*
X35257483Y24794091D01*
X35197873Y24800500D01*
X34702127Y24800500D01*
X34642514Y24794091D01*
X34507670Y24743798D01*
X34507669Y24743797D01*
X34392454Y24657546D01*
X34306203Y24542331D01*
X34306202Y24542330D01*
X34259093Y24416023D01*
X34226787Y24377813D01*
X34225292Y24376949D01*
X34225264Y24376933D01*
X34207156Y24366479D01*
X33507157Y23666479D01*
X33433518Y23592840D01*
X33413213Y23557669D01*
X33381453Y23502661D01*
X33381452Y23502659D01*
X33381452Y23502658D01*
X33359270Y23419873D01*
X33359269Y23419872D01*
X33354500Y23402071D01*
X33354500Y23308035D01*
X33332826Y23255709D01*
X33280500Y23234035D01*
X33228174Y23255709D01*
X33136111Y23347772D01*
X33000191Y23428155D01*
X32848551Y23472211D01*
X32813110Y23475000D01*
X32650000Y23475000D01*
X32650000Y21725000D01*
X32813110Y21725000D01*
X32848551Y21727790D01*
X33000191Y21771846D01*
X33136111Y21852229D01*
X33228174Y21944291D01*
X33280500Y21965965D01*
X33332826Y21944291D01*
X33354500Y21891965D01*
X33354500Y21095394D01*
X33332826Y21043068D01*
X33280500Y21021394D01*
X33269834Y21022167D01*
X33246960Y21025499D01*
X33246953Y21025500D01*
X33246949Y21025500D01*
X33246943Y21025500D01*
X33053051Y21025500D01*
X32982495Y21015222D01*
X32982486Y21015219D01*
X32932499Y20990782D01*
X32875971Y20987273D01*
X32867501Y20990782D01*
X32817514Y21015219D01*
X32817509Y21015220D01*
X32817495Y21015222D01*
X32746949Y21025500D01*
X32746948Y21025500D01*
X32553051Y21025500D01*
X32482495Y21015222D01*
X32482486Y21015219D01*
X32432499Y20990782D01*
X32375971Y20987273D01*
X32367501Y20990782D01*
X32317514Y21015219D01*
X32317509Y21015220D01*
X32317495Y21015222D01*
X32246949Y21025500D01*
X32246948Y21025500D01*
X32053051Y21025500D01*
X31982495Y21015222D01*
X31982486Y21015219D01*
X31932499Y20990782D01*
X31875971Y20987273D01*
X31867501Y20990782D01*
X31817514Y21015219D01*
X31817509Y21015220D01*
X31817495Y21015222D01*
X31746949Y21025500D01*
X31746948Y21025500D01*
X31553051Y21025500D01*
X31482495Y21015222D01*
X31482486Y21015219D01*
X31432499Y20990782D01*
X31375971Y20987273D01*
X31367501Y20990782D01*
X31317514Y21015219D01*
X31317509Y21015220D01*
X31246953Y21025500D01*
X31113866Y21025500D01*
X31061540Y21047174D01*
X31039866Y21099500D01*
X31061540Y21151826D01*
X31079395Y21164981D01*
X31388788Y21327819D01*
X31390081Y21328482D01*
X31845718Y21556299D01*
X31887726Y21581715D01*
X31906958Y21595577D01*
X31949280Y21632436D01*
X32010571Y21726500D01*
X32010573Y21726506D01*
X32011704Y21728241D01*
X32058429Y21760249D01*
X32094350Y21758905D01*
X32201448Y21727790D01*
X32236890Y21725000D01*
X32400000Y21725000D01*
X32400000Y23475000D01*
X32236890Y23475000D01*
X32201448Y23472211D01*
X32049805Y23428154D01*
X31976101Y23384566D01*
X31920029Y23376586D01*
X31886107Y23395935D01*
X31077174Y24204868D01*
X31055500Y24257194D01*
X31055500Y24526008D01*
X31055493Y24526571D01*
X31055419Y24533056D01*
X31032245Y24642909D01*
X31010571Y24695235D01*
X31004870Y24708147D01*
X30939299Y24799280D01*
X30939298Y24799281D01*
X30845234Y24860572D01*
X30845229Y24860574D01*
X30794717Y24881496D01*
X30792909Y24882245D01*
X30786359Y24884870D01*
X30786355Y24884871D01*
X30676003Y24905500D01*
X30676000Y24905500D01*
X29874000Y24905500D01*
X29873993Y24905500D01*
X29869884Y24905453D01*
X29866944Y24905419D01*
X29866941Y24905419D01*
X29866935Y24905418D01*
X29757091Y24882246D01*
X29753823Y24881233D01*
X29753418Y24882541D01*
X29701163Y24882555D01*
X29661125Y24922614D01*
X29655500Y24950914D01*
X29655500Y25426008D01*
X29655493Y25426571D01*
X29655419Y25433056D01*
X29632245Y25542909D01*
X29610571Y25595235D01*
X29604870Y25608147D01*
X29551530Y25682281D01*
X29538563Y25737414D01*
X29568379Y25785568D01*
X29611598Y25799500D01*
X46952407Y25799500D01*
X46996362Y25799500D01*
X47003615Y25799144D01*
X47129216Y25786774D01*
X47143440Y25783943D01*
X47260716Y25748367D01*
X47274118Y25742816D01*
X47382192Y25685050D01*
X47394255Y25676990D01*
X47488987Y25599244D01*
X47499244Y25588987D01*
X47576989Y25494255D01*
X47585048Y25482194D01*
X47642817Y25374117D01*
X47648369Y25360714D01*
X47683943Y25243441D01*
X47686773Y25229214D01*
X47695603Y25139562D01*
X47699144Y25103617D01*
X47699500Y25096363D01*
X47699500Y1103639D01*
X47699144Y1096386D01*
X47699144Y1096385D01*
X47686773Y970787D01*
X47683943Y956560D01*
X47648369Y839287D01*
X47642817Y825884D01*
X47585048Y717807D01*
X47576989Y705746D01*
X47499244Y611014D01*
X47488987Y600757D01*
X47394256Y523012D01*
X47382194Y514952D01*
X47274117Y457183D01*
X47260714Y451631D01*
X47143440Y416057D01*
X47129213Y413227D01*
X47037521Y404196D01*
X47003624Y400857D01*
X46996374Y400501D01*
X46952406Y400501D01*
X46952403Y400501D01*
X46946436Y400500D01*
X46946435Y400501D01*
X46946435Y400500D01*
X1003639Y400500D01*
X996386Y400856D01*
X975832Y402881D01*
X870786Y413227D01*
X856559Y416057D01*
X739286Y451631D01*
X725883Y457183D01*
X617806Y514952D01*
X605745Y523011D01*
X511013Y600756D01*
X500755Y611014D01*
X423010Y705746D01*
X414951Y717807D01*
X357182Y825884D01*
X351630Y839287D01*
X316055Y956565D01*
X313227Y970783D01*
X300856Y1096386D01*
X300500Y1103639D01*
X300500Y1581896D01*
X1499499Y1581896D01*
X1510123Y1493437D01*
X1565638Y1352659D01*
X1565639Y1352658D01*
X1657078Y1232078D01*
X1777658Y1140639D01*
X1918436Y1085123D01*
X1989764Y1076558D01*
X2006896Y1074500D01*
X2006898Y1074500D01*
X4293104Y1074500D01*
X4308722Y1076376D01*
X4381564Y1085123D01*
X4522342Y1140639D01*
X4642922Y1232078D01*
X4734361Y1352658D01*
X4789877Y1493436D01*
X4800500Y1581898D01*
X4800500Y2168102D01*
X4789877Y2256564D01*
X4734361Y2397342D01*
X4642922Y2517922D01*
X4630221Y2527554D01*
X4522341Y2609362D01*
X4437079Y2642985D01*
X4381564Y2664877D01*
X4352076Y2668418D01*
X4293104Y2675500D01*
X4293102Y2675500D01*
X2006898Y2675500D01*
X2006896Y2675500D01*
X1918436Y2664877D01*
X1777658Y2609362D01*
X1657078Y2517923D01*
X1657077Y2517922D01*
X1565638Y2397342D01*
X1510123Y2256564D01*
X1507303Y2233077D01*
X1499500Y2168102D01*
X1499500Y1581898D01*
X1499500Y1581896D01*
X1499499Y1581896D01*
X300500Y1581896D01*
X300500Y3531939D01*
X5100000Y3531939D01*
X5110614Y3443557D01*
X5166077Y3302908D01*
X5257435Y3182436D01*
X5377907Y3091078D01*
X5518556Y3035615D01*
X5606939Y3025000D01*
X6225000Y3025000D01*
X6475000Y3025000D01*
X7093061Y3025000D01*
X7181443Y3035615D01*
X7322092Y3091078D01*
X7442564Y3182436D01*
X7533922Y3302908D01*
X7589385Y3443557D01*
X7600000Y3531939D01*
X7600000Y3600000D01*
X6475000Y3600000D01*
X6475000Y3025000D01*
X6225000Y3025000D01*
X6225000Y3600000D01*
X5100000Y3600000D01*
X5100000Y3531939D01*
X300500Y3531939D01*
X300500Y9031896D01*
X1499499Y9031896D01*
X1509185Y8951247D01*
X1510123Y8943436D01*
X1532015Y8887921D01*
X1565638Y8802659D01*
X1647679Y8694473D01*
X1657078Y8682078D01*
X1777658Y8590639D01*
X1918436Y8535123D01*
X1989764Y8526558D01*
X2006896Y8524500D01*
X2006898Y8524500D01*
X4293104Y8524500D01*
X4308722Y8526376D01*
X4381564Y8535123D01*
X4522342Y8590639D01*
X4642922Y8682078D01*
X4734361Y8802658D01*
X4789877Y8943436D01*
X4799439Y9023064D01*
X4800500Y9031896D01*
X4800500Y9618105D01*
X4797686Y9641533D01*
X4789877Y9706564D01*
X4734361Y9847342D01*
X4642922Y9967922D01*
X4593663Y10005277D01*
X4522341Y10059362D01*
X4416048Y10101278D01*
X4381564Y10114877D01*
X4352076Y10118418D01*
X4293104Y10125500D01*
X4293102Y10125500D01*
X2006898Y10125500D01*
X2006896Y10125500D01*
X1918436Y10114877D01*
X1777658Y10059362D01*
X1657078Y9967923D01*
X1657077Y9967922D01*
X1565638Y9847342D01*
X1510123Y9706564D01*
X1501105Y9631464D01*
X1499500Y9618102D01*
X1499500Y9031898D01*
X1499500Y9031896D01*
X1499499Y9031896D01*
X300500Y9031896D01*
X300500Y10873115D01*
X5070000Y10873115D01*
X5080325Y10787142D01*
X5134276Y10650327D01*
X5223140Y10533142D01*
X5223141Y10533141D01*
X5340326Y10444277D01*
X5477141Y10390326D01*
X5563115Y10380000D01*
X5615000Y10380000D01*
X5615000Y10975000D01*
X5070000Y10975000D01*
X5070000Y10873115D01*
X300500Y10873115D01*
X300500Y12533072D01*
X322174Y12585398D01*
X374500Y12607072D01*
X415612Y12594601D01*
X493695Y12542428D01*
X493694Y12542428D01*
X657475Y12474588D01*
X657486Y12474585D01*
X831359Y12440000D01*
X1195000Y12440000D01*
X1195000Y13040000D01*
X1445000Y13040000D01*
X1445000Y12440000D01*
X1808641Y12440000D01*
X1982513Y12474585D01*
X1982524Y12474588D01*
X2146305Y12542428D01*
X2293716Y12640924D01*
X2293718Y12640925D01*
X2419075Y12766282D01*
X2419076Y12766284D01*
X2517572Y12913695D01*
X2585412Y13077476D01*
X2585415Y13077487D01*
X2612768Y13215000D01*
X1994242Y13215000D01*
X1999556Y13224204D01*
X2020000Y13300504D01*
X2020000Y13379496D01*
X1999556Y13455796D01*
X1994242Y13465000D01*
X2612768Y13465000D01*
X2612768Y13465001D01*
X2585415Y13602514D01*
X2585412Y13602525D01*
X2517572Y13766306D01*
X2419076Y13913717D01*
X2293716Y14039077D01*
X2146304Y14137573D01*
X2146305Y14137573D01*
X1982524Y14205413D01*
X1982513Y14205416D01*
X1808641Y14240000D01*
X1445000Y14240000D01*
X1445000Y13640000D01*
X1195000Y13640000D01*
X1195000Y14240000D01*
X831359Y14240000D01*
X657486Y14205416D01*
X657475Y14205413D01*
X493694Y14137573D01*
X415612Y14085400D01*
X360063Y14074351D01*
X312971Y14105817D01*
X300500Y14146929D01*
X300500Y21173072D01*
X322174Y21225398D01*
X374500Y21247072D01*
X415612Y21234601D01*
X493695Y21182428D01*
X493694Y21182428D01*
X657475Y21114588D01*
X657486Y21114585D01*
X831359Y21080000D01*
X1195000Y21080000D01*
X1195000Y21680000D01*
X1445000Y21680000D01*
X1445000Y21080000D01*
X1808641Y21080000D01*
X1982513Y21114585D01*
X1982524Y21114588D01*
X2146305Y21182428D01*
X2293716Y21280924D01*
X2293718Y21280925D01*
X2419075Y21406282D01*
X2419076Y21406284D01*
X2517572Y21553695D01*
X2585412Y21717476D01*
X2585415Y21717487D01*
X2612768Y21855000D01*
X1994242Y21855000D01*
X1999556Y21864204D01*
X2020000Y21940504D01*
X2020000Y22019496D01*
X1999556Y22095796D01*
X1994242Y22105000D01*
X2612768Y22105000D01*
X2612768Y22105001D01*
X2585415Y22242514D01*
X2585412Y22242525D01*
X2517572Y22406306D01*
X2419076Y22553717D01*
X2293716Y22679077D01*
X2146304Y22777573D01*
X2146305Y22777573D01*
X1982524Y22845413D01*
X1982513Y22845416D01*
X1808641Y22880000D01*
X1445000Y22880000D01*
X1445000Y22280000D01*
X1195000Y22280000D01*
X1195000Y22880000D01*
X831359Y22880000D01*
X657486Y22845416D01*
X657475Y22845413D01*
X493694Y22777573D01*
X415612Y22725400D01*
X360063Y22714351D01*
X312971Y22745817D01*
X300500Y22786929D01*
X300500Y24486612D01*
X599500Y24486612D01*
X599500Y24313389D01*
X626597Y24142302D01*
X626600Y24142289D01*
X680125Y23977558D01*
X680127Y23977554D01*
X758767Y23823213D01*
X853723Y23692517D01*
X860586Y23683072D01*
X983072Y23560586D01*
X983075Y23560584D01*
X983076Y23560583D01*
X1123212Y23458768D01*
X1277553Y23380128D01*
X1277557Y23380126D01*
X1442288Y23326601D01*
X1442294Y23326600D01*
X1442299Y23326598D01*
X1535945Y23311766D01*
X1613388Y23299500D01*
X1613389Y23299500D01*
X1786612Y23299500D01*
X1864055Y23311766D01*
X1957701Y23326598D01*
X1957708Y23326601D01*
X1957711Y23326601D01*
X2122442Y23380126D01*
X2122442Y23380127D01*
X2122445Y23380127D01*
X2276788Y23458768D01*
X2416928Y23560586D01*
X2539414Y23683072D01*
X2641232Y23823212D01*
X2719873Y23977555D01*
X2743412Y24050000D01*
X2773399Y24142289D01*
X2773399Y24142292D01*
X2773402Y24142299D01*
X2800500Y24313389D01*
X2800500Y24486611D01*
X2773402Y24657701D01*
X2773400Y24657706D01*
X2773399Y24657712D01*
X2729889Y24791622D01*
X2723176Y24812279D01*
X26340000Y24812279D01*
X26340000Y24725000D01*
X26895000Y24725000D01*
X26895000Y25310000D01*
X26894999Y25310001D01*
X26837722Y25310000D01*
X26837719Y25309999D01*
X26750951Y25299581D01*
X26750947Y25299580D01*
X26612852Y25245123D01*
X26494572Y25155429D01*
X26494571Y25155428D01*
X26404877Y25037148D01*
X26350421Y24899056D01*
X26340000Y24812279D01*
X2723176Y24812279D01*
X2719873Y24822445D01*
X2700446Y24860572D01*
X2641232Y24976788D01*
X2539417Y25116924D01*
X2539416Y25116925D01*
X2539414Y25116928D01*
X2416928Y25239414D01*
X2416925Y25239417D01*
X2416923Y25239418D01*
X2276787Y25341233D01*
X2122446Y25419873D01*
X2122442Y25419875D01*
X1957711Y25473400D01*
X1957698Y25473403D01*
X1786612Y25500500D01*
X1786611Y25500500D01*
X1613389Y25500500D01*
X1613388Y25500500D01*
X1442301Y25473403D01*
X1442288Y25473400D01*
X1277557Y25419875D01*
X1277553Y25419873D01*
X1123212Y25341233D01*
X983076Y25239418D01*
X860582Y25116924D01*
X758767Y24976788D01*
X680127Y24822447D01*
X680125Y24822443D01*
X626600Y24657712D01*
X626597Y24657699D01*
X599500Y24486612D01*
X300500Y24486612D01*
X300500Y25096363D01*
X300856Y25103616D01*
X302168Y25116933D01*
X313227Y25229220D01*
X316054Y25243434D01*
X351632Y25360722D01*
X357178Y25374110D01*
X414954Y25482200D01*
X423006Y25494251D01*
X500756Y25588989D01*
X511013Y25599245D01*
X521860Y25608147D01*
X605749Y25676994D01*
X617800Y25685046D01*
X725890Y25742822D01*
X739278Y25748368D01*
X856566Y25783946D01*
X870780Y25786773D01*
X996386Y25799144D01*
X1003639Y25799500D01*
X1047595Y25799500D01*
X25960438Y25799500D01*
X27185891Y25799500D01*
X27238217Y25777826D01*
G37*
%TD.AperFunction*%
%TA.AperFunction,Conductor*%
G36*
X32312984Y12671972D02*
G01*
X32337429Y12665782D01*
X32340570Y12662250D01*
X32342628Y12661524D01*
X32344276Y12658082D01*
X32357280Y12643458D01*
X32371021Y12619658D01*
X32448872Y12541807D01*
X32448878Y12541802D01*
X32840514Y12150166D01*
X32862188Y12097840D01*
X32855000Y12080487D01*
X32855000Y11475000D01*
X33409998Y11475000D01*
X33410512Y11475514D01*
X33410512Y11475515D01*
X33410513Y11475515D01*
X33435558Y11485889D01*
X33462837Y11497189D01*
X33462839Y11497189D01*
X33493489Y11484494D01*
X33515164Y11475516D01*
X33610933Y11379747D01*
X33610938Y11379741D01*
X33644377Y11346302D01*
X33661898Y11318417D01*
X33674835Y11281447D01*
X33675619Y11279206D01*
X33713045Y11228496D01*
X33753576Y11173578D01*
X33759048Y11169539D01*
X33788277Y11121026D01*
X33774642Y11066055D01*
X33759048Y11050461D01*
X33753576Y11046423D01*
X33675617Y10940793D01*
X33632260Y10816885D01*
X33632260Y10816883D01*
X33632259Y10816879D01*
X33629501Y10787460D01*
X33629500Y10787452D01*
X33629500Y10412555D01*
X33629501Y10412541D01*
X33632258Y10383124D01*
X33632259Y10383118D01*
X33675618Y10259208D01*
X33675619Y10259206D01*
X33753577Y10153577D01*
X33824443Y10101276D01*
X33853673Y10052767D01*
X33854500Y10041737D01*
X33854500Y8844473D01*
X33832826Y8792147D01*
X33157853Y8117174D01*
X33105527Y8095500D01*
X32728899Y8095500D01*
X32676573Y8117174D01*
X32654899Y8169500D01*
X32676573Y8221826D01*
X32684186Y8228464D01*
X32705427Y8244572D01*
X32705428Y8244573D01*
X32795122Y8362853D01*
X32849578Y8500945D01*
X32860000Y8587722D01*
X32860000Y8675000D01*
X32254000Y8675000D01*
X32201674Y8696674D01*
X32180000Y8749000D01*
X32180000Y8851000D01*
X32201674Y8903326D01*
X32254000Y8925000D01*
X32859999Y8925000D01*
X32859999Y9012278D01*
X32859998Y9012280D01*
X32849580Y9099049D01*
X32849579Y9099053D01*
X32795122Y9237148D01*
X32705428Y9355428D01*
X32705427Y9355429D01*
X32587147Y9445123D01*
X32449055Y9499579D01*
X32362278Y9510000D01*
X32308597Y9510000D01*
X32256271Y9531674D01*
X32234597Y9584000D01*
X32254256Y9631464D01*
X32252969Y9632520D01*
X32255271Y9635327D01*
X32255276Y9635331D01*
X32326465Y9741873D01*
X32375501Y9860256D01*
X32400500Y9985931D01*
X32400500Y10114069D01*
X32375501Y10239742D01*
X32375501Y10239743D01*
X32372354Y10247340D01*
X32326465Y10358127D01*
X32255276Y10464669D01*
X32172174Y10547771D01*
X32150500Y10600097D01*
X32150500Y10686590D01*
X32172174Y10738916D01*
X32224500Y10760590D01*
X32269213Y10745554D01*
X32322852Y10704878D01*
X32460944Y10650422D01*
X32547721Y10640001D01*
X32855000Y10640001D01*
X32912278Y10640001D01*
X32912279Y10640002D01*
X32999048Y10650420D01*
X32999052Y10650421D01*
X33137147Y10704878D01*
X33255427Y10794572D01*
X33255428Y10794573D01*
X33345122Y10912853D01*
X33399578Y11050945D01*
X33410000Y11137722D01*
X33410000Y11225000D01*
X32855000Y11225000D01*
X32855000Y10640001D01*
X32547721Y10640001D01*
X32604999Y10640002D01*
X32605000Y10640002D01*
X32605000Y12060000D01*
X32604999Y12060001D01*
X32547722Y12060000D01*
X32547719Y12059999D01*
X32460951Y12049581D01*
X32460944Y12049579D01*
X32421646Y12034082D01*
X32365017Y12035050D01*
X32325659Y12075777D01*
X32320500Y12102923D01*
X32320500Y12202477D01*
X32320499Y12202478D01*
X32309948Y12241853D01*
X32282984Y12342485D01*
X32272623Y12360431D01*
X32270872Y12363463D01*
X32240000Y12416936D01*
X32210510Y12468015D01*
X32130350Y12548175D01*
X32120218Y12572635D01*
X32108783Y12596518D01*
X32109492Y12598531D01*
X32108676Y12600501D01*
X32118809Y12624965D01*
X32127610Y12649935D01*
X32129501Y12650779D01*
X32130350Y12652827D01*
X32178693Y12674394D01*
X32180671Y12674501D01*
X32246948Y12674501D01*
X32285869Y12680171D01*
X32289211Y12680351D01*
X32312984Y12671972D01*
G37*
%TD.AperFunction*%
%TA.AperFunction,Conductor*%
G36*
X14444157Y16880187D02*
G01*
X14465832Y16827862D01*
X14464921Y16816284D01*
X14447050Y16703449D01*
X14447050Y16486552D01*
X14480979Y16272332D01*
X14480982Y16272319D01*
X14548002Y16066054D01*
X14548004Y16066050D01*
X14646470Y15872798D01*
X14771709Y15700422D01*
X14773959Y15697326D01*
X14927326Y15543959D01*
X14927329Y15543957D01*
X14927330Y15543956D01*
X15102797Y15416471D01*
X15296049Y15318005D01*
X15296053Y15318003D01*
X15502318Y15250983D01*
X15502324Y15250982D01*
X15502329Y15250980D01*
X15609441Y15234015D01*
X15716551Y15217050D01*
X15716553Y15217050D01*
X15933449Y15217050D01*
X16019136Y15230622D01*
X16147671Y15250980D01*
X16147678Y15250983D01*
X16147681Y15250983D01*
X16353946Y15318003D01*
X16353946Y15318004D01*
X16353949Y15318004D01*
X16547203Y15416471D01*
X16722674Y15543959D01*
X16871035Y15692321D01*
X16923360Y15713994D01*
X16975686Y15692320D01*
X16991727Y15668312D01*
X17026632Y15584043D01*
X17086966Y15493747D01*
X17589285Y15996063D01*
X17641611Y16017737D01*
X17693937Y15996063D01*
X17730000Y15960000D01*
X17876124Y15960000D01*
X17928450Y15938326D01*
X18373032Y15493746D01*
X18380948Y15494526D01*
X18414677Y15517064D01*
X18470226Y15506016D01*
X18481436Y15496817D01*
X18557473Y15420780D01*
X18671173Y15344808D01*
X18671174Y15344808D01*
X18671175Y15344807D01*
X18784781Y15297750D01*
X18797509Y15292478D01*
X18841974Y15283634D01*
X18889065Y15252169D01*
X18900115Y15196620D01*
X18879864Y15158731D01*
X18848302Y15127169D01*
X18773250Y15014846D01*
X18721556Y14890045D01*
X18721553Y14890035D01*
X18700661Y14785000D01*
X18695200Y14757545D01*
X18695200Y14622455D01*
X18703109Y14582693D01*
X18721553Y14489966D01*
X18721556Y14489956D01*
X18773250Y14365155D01*
X18847187Y14254500D01*
X18848305Y14252828D01*
X18943828Y14157305D01*
X19056152Y14082252D01*
X19056153Y14082252D01*
X19056154Y14082251D01*
X19137272Y14048651D01*
X19180960Y14030555D01*
X19313455Y14004200D01*
X19313457Y14004200D01*
X19448543Y14004200D01*
X19448545Y14004200D01*
X19581040Y14030555D01*
X19705848Y14082252D01*
X19818172Y14157305D01*
X19913695Y14252828D01*
X19988748Y14365152D01*
X20040445Y14489960D01*
X20049014Y14533044D01*
X20080478Y14580135D01*
X20136027Y14591185D01*
X20158589Y14582694D01*
X20247343Y14531452D01*
X20347931Y14504500D01*
X20347933Y14504500D01*
X21652068Y14504500D01*
X21652069Y14504500D01*
X21752658Y14531452D01*
X21821199Y14571025D01*
X21842843Y14583521D01*
X21916479Y14657157D01*
X21916480Y14657160D01*
X22101599Y14842279D01*
X23040000Y14842279D01*
X23040000Y14785000D01*
X23625000Y14785000D01*
X23875000Y14785000D01*
X24875000Y14785000D01*
X25125000Y14785000D01*
X25709999Y14785000D01*
X25709999Y14842278D01*
X25709998Y14842280D01*
X25699580Y14929049D01*
X25699579Y14929053D01*
X25645122Y15067148D01*
X25555428Y15185428D01*
X25555427Y15185429D01*
X25437147Y15275123D01*
X25299055Y15329579D01*
X25212278Y15340000D01*
X25125000Y15340000D01*
X25125000Y14785000D01*
X24875000Y14785000D01*
X24875000Y15340000D01*
X24787721Y15340000D01*
X24787719Y15339999D01*
X24700951Y15329581D01*
X24700947Y15329580D01*
X24562852Y15275123D01*
X24444572Y15185429D01*
X24433963Y15171438D01*
X24385075Y15142842D01*
X24330285Y15157190D01*
X24316037Y15171438D01*
X24305427Y15185429D01*
X24187147Y15275123D01*
X24049055Y15329579D01*
X23962278Y15340000D01*
X23875000Y15340000D01*
X23875000Y14785000D01*
X23625000Y14785000D01*
X23625000Y15340000D01*
X23537721Y15340000D01*
X23537719Y15339999D01*
X23450951Y15329581D01*
X23450947Y15329580D01*
X23312852Y15275123D01*
X23194572Y15185429D01*
X23194571Y15185428D01*
X23104877Y15067148D01*
X23050421Y14929056D01*
X23040000Y14842279D01*
X22101599Y14842279D01*
X23142147Y15882826D01*
X23194473Y15904500D01*
X26102067Y15904500D01*
X26102069Y15904500D01*
X26172642Y15923410D01*
X26194161Y15920577D01*
X26215821Y15921921D01*
X26221405Y15916990D01*
X26228793Y15916017D01*
X26258274Y15884431D01*
X26259218Y15882500D01*
X26262727Y15825972D01*
X26259218Y15817501D01*
X26234781Y15767515D01*
X26234780Y15767510D01*
X26224500Y15696954D01*
X26224500Y15503052D01*
X26234778Y15432496D01*
X26234781Y15432487D01*
X26259218Y15382499D01*
X26262727Y15325971D01*
X26259218Y15317501D01*
X26234781Y15267515D01*
X26234780Y15267510D01*
X26224500Y15196954D01*
X26224500Y15003052D01*
X26234778Y14932496D01*
X26234781Y14932487D01*
X26259218Y14882499D01*
X26262727Y14825971D01*
X26259218Y14817501D01*
X26234781Y14767515D01*
X26234780Y14767510D01*
X26224500Y14696954D01*
X26224500Y14696949D01*
X26224500Y14607755D01*
X26224501Y14559501D01*
X26202827Y14507174D01*
X26150502Y14485500D01*
X25784000Y14485500D01*
X25731674Y14507174D01*
X25727323Y14517677D01*
X25710000Y14535000D01*
X23040001Y14535000D01*
X23040001Y14477721D01*
X23050419Y14390952D01*
X23050421Y14390945D01*
X23067578Y14347437D01*
X23066610Y14290809D01*
X23053474Y14270493D01*
X23048593Y14265129D01*
X23039265Y14258221D01*
X23027987Y14248975D01*
X23000725Y14223700D01*
X22975030Y14184270D01*
X22971018Y14179859D01*
X22971005Y14179854D01*
X22947610Y14144917D01*
X22940026Y14133005D01*
X22932743Y14113611D01*
X22932744Y14113610D01*
X22932286Y14112393D01*
X22931184Y14109728D01*
X22931272Y14109692D01*
X22921602Y14083934D01*
X22920661Y14084323D01*
X22917746Y14077284D01*
X22915130Y14070755D01*
X22913616Y14062662D01*
X22911344Y14056609D01*
X22911343Y14056602D01*
X22900567Y14027898D01*
X22900839Y14001961D01*
X22899583Y13987589D01*
X22894500Y13960400D01*
X22894500Y12423993D01*
X22894581Y12416950D01*
X22894582Y12416936D01*
X22917754Y12307092D01*
X22917755Y12307091D01*
X22939429Y12254765D01*
X22945130Y12241853D01*
X23010701Y12150720D01*
X23104765Y12089429D01*
X23157091Y12067755D01*
X23163641Y12065130D01*
X23274000Y12044500D01*
X25272460Y12044500D01*
X25324786Y12022826D01*
X25346460Y11970500D01*
X25345932Y11961677D01*
X25340000Y11912280D01*
X25340000Y11825000D01*
X25946000Y11825000D01*
X25998326Y11803326D01*
X26020000Y11751000D01*
X26020000Y11700000D01*
X26071000Y11700000D01*
X26123326Y11678326D01*
X26145000Y11626000D01*
X26145000Y10990001D01*
X26202278Y10990001D01*
X26202279Y10990002D01*
X26289048Y11000420D01*
X26289052Y11000421D01*
X26428353Y11055354D01*
X26484982Y11054387D01*
X26524341Y11013660D01*
X26529500Y10986513D01*
X26529500Y10698736D01*
X26515040Y10654794D01*
X26447207Y10562884D01*
X26447206Y10562882D01*
X26402355Y10434705D01*
X26402354Y10434701D01*
X26402354Y10434699D01*
X26399500Y10404266D01*
X26399500Y9495734D01*
X26402354Y9465301D01*
X26402354Y9465299D01*
X26402355Y9465296D01*
X26447206Y9337119D01*
X26447207Y9337117D01*
X26527846Y9227854D01*
X26527853Y9227847D01*
X26637116Y9147208D01*
X26637118Y9147207D01*
X26765295Y9102356D01*
X26765301Y9102354D01*
X26795734Y9099500D01*
X26795741Y9099500D01*
X27204258Y9099500D01*
X27204266Y9099500D01*
X27234699Y9102354D01*
X27362882Y9147207D01*
X27472150Y9227850D01*
X27552793Y9337118D01*
X27597646Y9465301D01*
X27600500Y9495734D01*
X27600500Y10404266D01*
X27597646Y10434699D01*
X27552793Y10562882D01*
X27551419Y10564744D01*
X27472153Y10672147D01*
X27472150Y10672150D01*
X27460555Y10680708D01*
X27431326Y10729220D01*
X27430500Y10740247D01*
X27430500Y11184554D01*
X27444960Y11228496D01*
X27513851Y11321842D01*
X27513852Y11321843D01*
X27557710Y11447181D01*
X27560500Y11476934D01*
X27560500Y11618812D01*
X27582173Y11671137D01*
X27813174Y11902139D01*
X27865500Y11923812D01*
X27917826Y11902138D01*
X27939500Y11849812D01*
X27939500Y11476934D01*
X27940443Y11466883D01*
X27942290Y11447180D01*
X27945347Y11438445D01*
X27949500Y11414004D01*
X27949500Y10724452D01*
X27930028Y10677434D01*
X27931143Y10676611D01*
X27927851Y10672151D01*
X27927850Y10672150D01*
X27911813Y10650420D01*
X27847206Y10562881D01*
X27802355Y10434705D01*
X27802354Y10434701D01*
X27802354Y10434699D01*
X27799500Y10404266D01*
X27799500Y9495734D01*
X27802354Y9465301D01*
X27802354Y9465299D01*
X27802355Y9465296D01*
X27847206Y9337119D01*
X27847207Y9337117D01*
X27927846Y9227854D01*
X27927853Y9227847D01*
X28037116Y9147208D01*
X28037118Y9147207D01*
X28165295Y9102356D01*
X28165301Y9102354D01*
X28195734Y9099500D01*
X28195741Y9099500D01*
X28604258Y9099500D01*
X28604266Y9099500D01*
X28634699Y9102354D01*
X28762882Y9147207D01*
X28872150Y9227850D01*
X28952793Y9337118D01*
X28997646Y9465301D01*
X29000500Y9495734D01*
X29000500Y10404266D01*
X28997646Y10434699D01*
X28952793Y10562882D01*
X28872150Y10672150D01*
X28872148Y10672152D01*
X28868857Y10676611D01*
X28869971Y10677434D01*
X28850500Y10724452D01*
X28850500Y11074506D01*
X28872174Y11126832D01*
X28924500Y11148506D01*
X28969213Y11133470D01*
X29072852Y11054878D01*
X29210944Y11000422D01*
X29297721Y10990001D01*
X29354999Y10990002D01*
X29355000Y10990002D01*
X29355000Y11626000D01*
X29376674Y11678326D01*
X29429000Y11700000D01*
X29531000Y11700000D01*
X29583326Y11678326D01*
X29605000Y11626000D01*
X29605000Y10990001D01*
X29662278Y10990001D01*
X29662279Y10990002D01*
X29749048Y11000420D01*
X29749052Y11000421D01*
X29887147Y11054878D01*
X30005427Y11144572D01*
X30005428Y11144573D01*
X30087536Y11252849D01*
X30136423Y11281447D01*
X30191213Y11267100D01*
X30219811Y11218213D01*
X30220500Y11208136D01*
X30220500Y10452900D01*
X30198826Y10400574D01*
X29967807Y10169556D01*
X29929918Y10149304D01*
X29810260Y10125503D01*
X29810257Y10125502D01*
X29691876Y10076467D01*
X29585331Y10005277D01*
X29585330Y10005275D01*
X29494725Y9914670D01*
X29494723Y9914669D01*
X29423533Y9808124D01*
X29374498Y9689743D01*
X29374497Y9689740D01*
X29360248Y9618102D01*
X29349500Y9564069D01*
X29349500Y9435931D01*
X29351575Y9425502D01*
X29374497Y9310261D01*
X29374498Y9310258D01*
X29414092Y9214669D01*
X29423535Y9191873D01*
X29432700Y9178157D01*
X29494722Y9085333D01*
X29494724Y9085331D01*
X29585331Y8994724D01*
X29680660Y8931028D01*
X29712125Y8883937D01*
X29701076Y8828388D01*
X29653984Y8796922D01*
X29639547Y8795500D01*
X16094473Y8795500D01*
X16042147Y8817174D01*
X14317174Y10542147D01*
X14295500Y10594473D01*
X14295500Y11487721D01*
X25340001Y11487721D01*
X25350419Y11400952D01*
X25350420Y11400948D01*
X25404877Y11262853D01*
X25494571Y11144573D01*
X25494572Y11144572D01*
X25612852Y11054878D01*
X25750944Y11000422D01*
X25837721Y10990001D01*
X25894999Y10990002D01*
X25895000Y10990002D01*
X25895000Y11575000D01*
X25340001Y11575000D01*
X25340001Y11487721D01*
X14295500Y11487721D01*
X14295500Y14757545D01*
X16663200Y14757545D01*
X16663200Y14622455D01*
X16671109Y14582693D01*
X16689553Y14489966D01*
X16689556Y14489956D01*
X16741250Y14365155D01*
X16815187Y14254500D01*
X16816305Y14252828D01*
X16911828Y14157305D01*
X17024152Y14082252D01*
X17024153Y14082252D01*
X17024154Y14082251D01*
X17105272Y14048651D01*
X17148960Y14030555D01*
X17281455Y14004200D01*
X17281457Y14004200D01*
X17416543Y14004200D01*
X17416545Y14004200D01*
X17549040Y14030555D01*
X17673848Y14082252D01*
X17786172Y14157305D01*
X17881695Y14252828D01*
X17956748Y14365152D01*
X18008445Y14489960D01*
X18034800Y14622455D01*
X18034800Y14757545D01*
X18008445Y14890040D01*
X17956748Y15014848D01*
X17911520Y15082535D01*
X17900471Y15138083D01*
X17931936Y15185175D01*
X17958616Y15196226D01*
X17961512Y15196803D01*
X17961514Y15196803D01*
X18105957Y15256633D01*
X18196254Y15316968D01*
X18196254Y15316969D01*
X17730000Y15783224D01*
X17344251Y15397474D01*
X17291925Y15375800D01*
X17281455Y15375800D01*
X17243895Y15368329D01*
X17148965Y15349447D01*
X17148955Y15349444D01*
X17024154Y15297750D01*
X16911831Y15222698D01*
X16816302Y15127169D01*
X16741250Y15014846D01*
X16689556Y14890045D01*
X16689553Y14890035D01*
X16668661Y14785000D01*
X16663200Y14757545D01*
X14295500Y14757545D01*
X14295500Y16805527D01*
X14317173Y16857852D01*
X14339506Y16880186D01*
X14391830Y16901860D01*
X14444157Y16880187D01*
G37*
%TD.AperFunction*%
%TA.AperFunction,Conductor*%
G36*
X29702827Y20265826D02*
G01*
X29724500Y20213501D01*
X29724501Y19878052D01*
X29724502Y19878047D01*
X29724502Y19878044D01*
X29734778Y19807496D01*
X29734779Y19807493D01*
X29734780Y19807491D01*
X29767481Y19740601D01*
X29768529Y19723724D01*
X29775000Y19708101D01*
X29775000Y19450639D01*
X29775001Y19450638D01*
X29799455Y19452930D01*
X29799456Y19452930D01*
X29931051Y19498977D01*
X29983843Y19537940D01*
X30038454Y19551627D01*
X30053051Y19549500D01*
X30246948Y19549501D01*
X30317504Y19559779D01*
X30317505Y19559780D01*
X30317509Y19559780D01*
X30367499Y19584220D01*
X30424025Y19587730D01*
X30432493Y19584223D01*
X30482491Y19559780D01*
X30553051Y19549500D01*
X30746948Y19549501D01*
X30817504Y19559779D01*
X30817505Y19559780D01*
X30817509Y19559780D01*
X30867499Y19584220D01*
X30924025Y19587730D01*
X30932493Y19584223D01*
X30982491Y19559780D01*
X31053051Y19549500D01*
X31246948Y19549501D01*
X31317504Y19559779D01*
X31317505Y19559780D01*
X31317509Y19559780D01*
X31367499Y19584220D01*
X31424025Y19587730D01*
X31432493Y19584223D01*
X31482491Y19559780D01*
X31553051Y19549500D01*
X31746948Y19549501D01*
X31817504Y19559779D01*
X31817505Y19559780D01*
X31817509Y19559780D01*
X31867499Y19584220D01*
X31924025Y19587730D01*
X31932493Y19584223D01*
X31982491Y19559780D01*
X32053051Y19549500D01*
X32246948Y19549501D01*
X32317504Y19559779D01*
X32317505Y19559780D01*
X32317509Y19559780D01*
X32367499Y19584220D01*
X32424025Y19587730D01*
X32432493Y19584223D01*
X32482491Y19559780D01*
X32553051Y19549500D01*
X32746948Y19549501D01*
X32817504Y19559779D01*
X32817505Y19559780D01*
X32817509Y19559780D01*
X32867499Y19584220D01*
X32921728Y19588477D01*
X32927279Y19586772D01*
X32982491Y19559780D01*
X33044619Y19550729D01*
X33050051Y19549060D01*
X33067830Y19534365D01*
X33087645Y19522558D01*
X33090524Y19515608D01*
X33093706Y19512977D01*
X33094328Y19506422D01*
X33101549Y19488989D01*
X33109778Y19432497D01*
X33109781Y19432487D01*
X33134218Y19382499D01*
X33137727Y19325971D01*
X33134218Y19317501D01*
X33109781Y19267515D01*
X33109780Y19267510D01*
X33099500Y19196954D01*
X33099500Y19003060D01*
X33099502Y19003041D01*
X33102863Y18979968D01*
X33089177Y18925361D01*
X33056479Y18881055D01*
X33056475Y18881049D01*
X33010431Y18749463D01*
X33010430Y18749457D01*
X33008138Y18725000D01*
X33258099Y18725000D01*
X33290600Y18717481D01*
X33357491Y18684780D01*
X33428051Y18674500D01*
X33763500Y18674501D01*
X33815826Y18652827D01*
X33837500Y18600501D01*
X33837500Y18599500D01*
X33815826Y18547174D01*
X33763500Y18525500D01*
X33428059Y18525500D01*
X33428043Y18525498D01*
X33357495Y18515222D01*
X33357489Y18515220D01*
X33290599Y18482519D01*
X33258099Y18475000D01*
X33008139Y18475000D01*
X33008137Y18474999D01*
X33010429Y18450545D01*
X33010429Y18450544D01*
X33056477Y18318949D01*
X33089175Y18274644D01*
X33102862Y18220035D01*
X33099501Y18196962D01*
X33099500Y18196944D01*
X33099500Y18003052D01*
X33109778Y17932496D01*
X33109781Y17932487D01*
X33134218Y17882499D01*
X33137727Y17825971D01*
X33134218Y17817501D01*
X33109781Y17767515D01*
X33109780Y17767510D01*
X33099500Y17696954D01*
X33099500Y17503052D01*
X33109778Y17432496D01*
X33109781Y17432487D01*
X33134218Y17382499D01*
X33137727Y17325971D01*
X33134218Y17317501D01*
X33109781Y17267515D01*
X33109780Y17267510D01*
X33099500Y17196954D01*
X33099500Y17003052D01*
X33109778Y16932496D01*
X33109781Y16932487D01*
X33134218Y16882499D01*
X33137727Y16825971D01*
X33134218Y16817501D01*
X33109781Y16767515D01*
X33109780Y16767510D01*
X33099500Y16696954D01*
X33099500Y16503052D01*
X33109778Y16432496D01*
X33109781Y16432487D01*
X33134218Y16382499D01*
X33137727Y16325971D01*
X33134218Y16317501D01*
X33109781Y16267515D01*
X33109780Y16267510D01*
X33099500Y16196954D01*
X33099500Y16003052D01*
X33109778Y15932496D01*
X33109781Y15932487D01*
X33134218Y15882499D01*
X33137727Y15825971D01*
X33134218Y15817501D01*
X33109781Y15767515D01*
X33109780Y15767510D01*
X33099500Y15696954D01*
X33099500Y15503052D01*
X33109778Y15432496D01*
X33109781Y15432487D01*
X33134218Y15382499D01*
X33137727Y15325971D01*
X33134218Y15317501D01*
X33109781Y15267515D01*
X33109780Y15267510D01*
X33099500Y15196954D01*
X33099500Y15003052D01*
X33109778Y14932496D01*
X33109781Y14932487D01*
X33134218Y14882499D01*
X33137727Y14825971D01*
X33134218Y14817501D01*
X33109781Y14767515D01*
X33109780Y14767510D01*
X33099500Y14696954D01*
X33099500Y14503052D01*
X33109778Y14432496D01*
X33109781Y14432487D01*
X33134218Y14382499D01*
X33138475Y14328272D01*
X33136767Y14322714D01*
X33109780Y14267509D01*
X33100729Y14205389D01*
X33099059Y14199950D01*
X33084365Y14182173D01*
X33072556Y14162354D01*
X33065605Y14159476D01*
X33062976Y14156294D01*
X33056422Y14155672D01*
X33038989Y14148451D01*
X32982495Y14140222D01*
X32982486Y14140219D01*
X32932499Y14115782D01*
X32875971Y14112273D01*
X32867501Y14115782D01*
X32817514Y14140219D01*
X32817509Y14140220D01*
X32785441Y14144892D01*
X32746949Y14150500D01*
X32746948Y14150500D01*
X32553051Y14150500D01*
X32482495Y14140222D01*
X32482486Y14140219D01*
X32432499Y14115782D01*
X32375971Y14112273D01*
X32367501Y14115782D01*
X32317514Y14140219D01*
X32317509Y14140220D01*
X32285441Y14144892D01*
X32246949Y14150500D01*
X32246948Y14150500D01*
X32053051Y14150500D01*
X31982495Y14140222D01*
X31982486Y14140219D01*
X31932499Y14115782D01*
X31875971Y14112273D01*
X31867501Y14115782D01*
X31817514Y14140219D01*
X31817509Y14140220D01*
X31785441Y14144892D01*
X31746949Y14150500D01*
X31746948Y14150500D01*
X31553051Y14150500D01*
X31482495Y14140222D01*
X31482486Y14140219D01*
X31432499Y14115782D01*
X31375971Y14112273D01*
X31367501Y14115782D01*
X31317514Y14140219D01*
X31317509Y14140220D01*
X31285441Y14144892D01*
X31246949Y14150500D01*
X31246948Y14150500D01*
X31053051Y14150500D01*
X30982495Y14140222D01*
X30982486Y14140219D01*
X30932499Y14115782D01*
X30875971Y14112273D01*
X30867501Y14115782D01*
X30817514Y14140219D01*
X30817509Y14140220D01*
X30785441Y14144892D01*
X30746949Y14150500D01*
X30746948Y14150500D01*
X30553051Y14150500D01*
X30482495Y14140222D01*
X30482486Y14140219D01*
X30432499Y14115782D01*
X30375971Y14112273D01*
X30367501Y14115782D01*
X30317514Y14140219D01*
X30317509Y14140220D01*
X30285441Y14144892D01*
X30246949Y14150500D01*
X30246948Y14150500D01*
X30053051Y14150500D01*
X29982495Y14140222D01*
X29982486Y14140219D01*
X29932499Y14115782D01*
X29875971Y14112273D01*
X29867501Y14115782D01*
X29817514Y14140219D01*
X29817509Y14140220D01*
X29785441Y14144892D01*
X29746949Y14150500D01*
X29746948Y14150500D01*
X29553051Y14150500D01*
X29482495Y14140222D01*
X29482486Y14140219D01*
X29432499Y14115782D01*
X29375971Y14112273D01*
X29367501Y14115782D01*
X29317514Y14140219D01*
X29317509Y14140220D01*
X29285441Y14144892D01*
X29246949Y14150500D01*
X29246948Y14150500D01*
X29053051Y14150500D01*
X28982495Y14140222D01*
X28982486Y14140219D01*
X28932499Y14115782D01*
X28875971Y14112273D01*
X28867501Y14115782D01*
X28817514Y14140219D01*
X28817509Y14140220D01*
X28785441Y14144892D01*
X28746949Y14150500D01*
X28746948Y14150500D01*
X28553051Y14150500D01*
X28482495Y14140222D01*
X28482486Y14140219D01*
X28432499Y14115782D01*
X28375971Y14112273D01*
X28367501Y14115782D01*
X28317514Y14140219D01*
X28317509Y14140220D01*
X28285441Y14144892D01*
X28246949Y14150500D01*
X28246948Y14150500D01*
X28053051Y14150500D01*
X27982495Y14140222D01*
X27982486Y14140219D01*
X27932499Y14115782D01*
X27878272Y14111525D01*
X27872713Y14113233D01*
X27817509Y14140220D01*
X27755386Y14149271D01*
X27749949Y14150941D01*
X27732170Y14165636D01*
X27712353Y14177444D01*
X27709474Y14184395D01*
X27706293Y14187024D01*
X27705670Y14193579D01*
X27698450Y14211013D01*
X27690221Y14267504D01*
X27690220Y14267507D01*
X27690220Y14267509D01*
X27665779Y14317502D01*
X27662270Y14374027D01*
X27665781Y14382502D01*
X27669913Y14390952D01*
X27690220Y14432491D01*
X27700500Y14503051D01*
X27700499Y14696948D01*
X27699005Y14707207D01*
X27690221Y14767505D01*
X27690220Y14767507D01*
X27690220Y14767509D01*
X27665779Y14817502D01*
X27662270Y14874027D01*
X27665781Y14882502D01*
X27666890Y14884769D01*
X27690220Y14932491D01*
X27700500Y15003051D01*
X27700499Y15196948D01*
X27697571Y15217050D01*
X27690221Y15267505D01*
X27690220Y15267507D01*
X27690220Y15267509D01*
X27665779Y15317502D01*
X27662270Y15374027D01*
X27665781Y15382502D01*
X27690219Y15432489D01*
X27690218Y15432489D01*
X27690220Y15432491D01*
X27700500Y15503051D01*
X27700499Y15696948D01*
X27700443Y15697331D01*
X27690221Y15767505D01*
X27690220Y15767507D01*
X27690220Y15767509D01*
X27665779Y15817502D01*
X27662270Y15874027D01*
X27665780Y15882499D01*
X27690220Y15932491D01*
X27700500Y16003051D01*
X27700499Y16196948D01*
X27698529Y16210474D01*
X27690221Y16267505D01*
X27690220Y16267507D01*
X27690220Y16267509D01*
X27665779Y16317502D01*
X27662270Y16374027D01*
X27665781Y16382502D01*
X27668387Y16387831D01*
X27690220Y16432491D01*
X27700500Y16503051D01*
X27700499Y16696948D01*
X27700498Y16696954D01*
X27690221Y16767505D01*
X27690220Y16767507D01*
X27690220Y16767509D01*
X27665779Y16817502D01*
X27662270Y16874027D01*
X27665781Y16882502D01*
X27668620Y16888308D01*
X27690220Y16932491D01*
X27700500Y17003051D01*
X27700499Y17196948D01*
X27699044Y17206938D01*
X27690221Y17267505D01*
X27690220Y17267507D01*
X27690220Y17267509D01*
X27665779Y17317502D01*
X27662270Y17374027D01*
X27665781Y17382502D01*
X27669203Y17389500D01*
X27690220Y17432491D01*
X27700500Y17503051D01*
X27700499Y17696948D01*
X27699399Y17704500D01*
X27690221Y17767505D01*
X27690220Y17767507D01*
X27690220Y17767509D01*
X27665779Y17817502D01*
X27662270Y17874027D01*
X27665781Y17882502D01*
X27666909Y17884808D01*
X27690220Y17932491D01*
X27700500Y18003051D01*
X27700499Y18196948D01*
X27696694Y18223066D01*
X27690221Y18267505D01*
X27690220Y18267507D01*
X27690220Y18267509D01*
X27665779Y18317502D01*
X27662270Y18374027D01*
X27665781Y18382502D01*
X27682302Y18416294D01*
X27690220Y18432491D01*
X27700500Y18503051D01*
X27700499Y18696948D01*
X27700116Y18699580D01*
X27690221Y18767505D01*
X27690220Y18767507D01*
X27690220Y18767509D01*
X27665779Y18817502D01*
X27662270Y18874027D01*
X27665781Y18882502D01*
X27669448Y18890001D01*
X27690220Y18932491D01*
X27700500Y19003051D01*
X27700499Y19196948D01*
X27700498Y19196954D01*
X27690221Y19267505D01*
X27690220Y19267507D01*
X27690220Y19267509D01*
X27665779Y19317502D01*
X27661523Y19371729D01*
X27663227Y19377278D01*
X27690220Y19432491D01*
X27699271Y19494622D01*
X27700940Y19500052D01*
X27715635Y19517832D01*
X27727442Y19537646D01*
X27734392Y19540525D01*
X27737023Y19543707D01*
X27743578Y19544330D01*
X27761011Y19551550D01*
X27797028Y19556797D01*
X27817503Y19559779D01*
X27817503Y19559780D01*
X27817509Y19559780D01*
X27867499Y19584220D01*
X27924025Y19587730D01*
X27932493Y19584223D01*
X27982491Y19559780D01*
X28053051Y19549500D01*
X28246948Y19549501D01*
X28317504Y19559779D01*
X28317505Y19559780D01*
X28317509Y19559780D01*
X28367499Y19584220D01*
X28424026Y19587729D01*
X28432499Y19584219D01*
X28482488Y19559781D01*
X28482489Y19559781D01*
X28482491Y19559780D01*
X28553051Y19549500D01*
X28746948Y19549501D01*
X28817504Y19559779D01*
X28817505Y19559780D01*
X28817509Y19559780D01*
X28867499Y19584220D01*
X28924025Y19587730D01*
X28932493Y19584223D01*
X28982491Y19559780D01*
X29053051Y19549500D01*
X29246948Y19549501D01*
X29261543Y19551628D01*
X29316155Y19537941D01*
X29368948Y19498977D01*
X29500537Y19452932D01*
X29500543Y19452931D01*
X29525000Y19450638D01*
X29525000Y19708101D01*
X29532518Y19740600D01*
X29565220Y19807491D01*
X29575500Y19878051D01*
X29575499Y20213502D01*
X29597173Y20265826D01*
X29649499Y20287500D01*
X29650501Y20287500D01*
X29702827Y20265826D01*
G37*
%TD.AperFunction*%
%TA.AperFunction,Conductor*%
G36*
X22557853Y20982826D02*
G01*
X24806440Y18734239D01*
X24828114Y18681913D01*
X24806440Y18629587D01*
X24754114Y18607913D01*
X24747213Y18608236D01*
X24723066Y18610500D01*
X24336934Y18610500D01*
X24307181Y18607710D01*
X24307179Y18607710D01*
X24307175Y18607709D01*
X24181843Y18563853D01*
X24176960Y18560249D01*
X24121987Y18546619D01*
X24088308Y18560828D01*
X23977147Y18645123D01*
X23839055Y18699579D01*
X23752278Y18710000D01*
X23695000Y18710000D01*
X23695000Y17290001D01*
X23752278Y17290001D01*
X23752279Y17290002D01*
X23839048Y17300420D01*
X23839052Y17300421D01*
X23977147Y17354878D01*
X24088308Y17439173D01*
X24143098Y17453520D01*
X24176964Y17439749D01*
X24181844Y17436147D01*
X24307175Y17392292D01*
X24307181Y17392290D01*
X24336934Y17389500D01*
X24336941Y17389500D01*
X24723059Y17389500D01*
X24723066Y17389500D01*
X24752819Y17392290D01*
X24878157Y17436148D01*
X24878159Y17436150D01*
X24883058Y17438738D01*
X24883773Y17437384D01*
X24920599Y17449500D01*
X24949728Y17449500D01*
X24978048Y17443867D01*
X24982512Y17442018D01*
X24982515Y17442016D01*
X24982518Y17442016D01*
X24982521Y17442014D01*
X25035468Y17427827D01*
X25122522Y17404501D01*
X25122523Y17404500D01*
X25122525Y17404500D01*
X25122526Y17404500D01*
X25267474Y17404500D01*
X25385566Y17404500D01*
X25416950Y17397515D01*
X25422023Y17395139D01*
X25446873Y17378535D01*
X25538687Y17340505D01*
X25540193Y17339799D01*
X25558247Y17320032D01*
X25577176Y17301103D01*
X25577176Y17299307D01*
X25578388Y17297979D01*
X25577176Y17271235D01*
X25577176Y17244466D01*
X25575874Y17242519D01*
X25575824Y17241400D01*
X25574036Y17239768D01*
X25561135Y17220459D01*
X25457853Y17117175D01*
X25405528Y17095500D01*
X23494474Y17095500D01*
X23442148Y17117174D01*
X23395646Y17163676D01*
X23373972Y17216002D01*
X23395646Y17268328D01*
X23442899Y17287901D01*
X23445000Y17290002D01*
X23445000Y17875000D01*
X22890001Y17875000D01*
X22890001Y17847972D01*
X22868327Y17795646D01*
X22816001Y17773972D01*
X22763675Y17795646D01*
X22347042Y18212279D01*
X22890000Y18212279D01*
X22890000Y18125000D01*
X23445000Y18125000D01*
X23445000Y18710000D01*
X23444999Y18710001D01*
X23387722Y18710000D01*
X23387719Y18709999D01*
X23300951Y18699581D01*
X23300947Y18699580D01*
X23162852Y18645123D01*
X23044572Y18555429D01*
X23044571Y18555428D01*
X22954877Y18437148D01*
X22900421Y18299056D01*
X22890000Y18212279D01*
X22347042Y18212279D01*
X22120699Y18438622D01*
X22120697Y18438625D01*
X22082148Y18477174D01*
X22042843Y18516479D01*
X22042840Y18516481D01*
X22042839Y18516482D01*
X21988367Y18547931D01*
X21988366Y18547933D01*
X21952662Y18568546D01*
X21952658Y18568548D01*
X21852067Y18595501D01*
X21848096Y18596023D01*
X21799047Y18624342D01*
X21784389Y18679050D01*
X21805429Y18721715D01*
X21956041Y18872326D01*
X22083529Y19047797D01*
X22181996Y19241051D01*
X22186422Y19254673D01*
X22249017Y19447319D01*
X22249017Y19447322D01*
X22249020Y19447329D01*
X22276063Y19618069D01*
X22282950Y19661552D01*
X22282950Y19878449D01*
X22257677Y20038015D01*
X22249020Y20092671D01*
X22249018Y20092676D01*
X22249017Y20092682D01*
X22181997Y20298947D01*
X22181995Y20298951D01*
X22083529Y20492203D01*
X21956044Y20667670D01*
X21956043Y20667671D01*
X21956041Y20667674D01*
X21802674Y20821041D01*
X21802671Y20821044D01*
X21802669Y20821045D01*
X21734417Y20870633D01*
X21704824Y20918924D01*
X21718046Y20973996D01*
X21766337Y21003589D01*
X21777913Y21004500D01*
X22505527Y21004500D01*
X22557853Y20982826D01*
G37*
%TD.AperFunction*%
%TA.AperFunction,Conductor*%
G36*
X8258449Y17917826D02*
G01*
X8280123Y17865500D01*
X8267255Y17827242D01*
X8268560Y17826508D01*
X8266079Y17822097D01*
X8210614Y17681444D01*
X8200000Y17593062D01*
X8200000Y17525000D01*
X9188500Y17525000D01*
X9240826Y17503326D01*
X9262500Y17451000D01*
X9262500Y17349000D01*
X9240826Y17296674D01*
X9188500Y17275000D01*
X8200000Y17275000D01*
X8200000Y17206938D01*
X8199999Y17206938D01*
X8202956Y17182323D01*
X8187676Y17127786D01*
X8138307Y17100028D01*
X8129484Y17099500D01*
X7926890Y17099500D01*
X7874564Y17121174D01*
X7771174Y17224565D01*
X7749500Y17276891D01*
X7749500Y17714957D01*
X7749500Y17715043D01*
X7749297Y17715799D01*
X7721525Y17819447D01*
X7714594Y17831452D01*
X7712144Y17835695D01*
X7709690Y17843628D01*
X7711600Y17864187D01*
X7708906Y17884653D01*
X7714135Y17891468D01*
X7714930Y17900022D01*
X7730817Y17913209D01*
X7743385Y17929586D01*
X7753966Y17932422D01*
X7758512Y17936194D01*
X7765591Y17935537D01*
X7780384Y17939500D01*
X8206123Y17939500D01*
X8258449Y17917826D01*
G37*
%TD.AperFunction*%
%TA.AperFunction,Conductor*%
G36*
X35053326Y22628326D02*
G01*
X35075000Y22576000D01*
X35075000Y21800001D01*
X35189321Y21800001D01*
X35306628Y21815444D01*
X35306632Y21815445D01*
X35452587Y21875901D01*
X35452591Y21875903D01*
X35535452Y21939484D01*
X35558475Y21945654D01*
X35580500Y21954776D01*
X35585221Y21952821D01*
X35590159Y21954143D01*
X35610801Y21942225D01*
X35632826Y21933102D01*
X35634782Y21928380D01*
X35639208Y21925824D01*
X35654500Y21880776D01*
X35654500Y21844474D01*
X35632826Y21792148D01*
X33887852Y20047174D01*
X33835526Y20025500D01*
X33663472Y20025500D01*
X33611146Y20047174D01*
X33589472Y20099500D01*
X33611146Y20151826D01*
X33783572Y20324252D01*
X33992840Y20533520D01*
X33992843Y20533521D01*
X34066479Y20607157D01*
X34118548Y20697343D01*
X34145500Y20797931D01*
X34145500Y21984196D01*
X34167174Y22036522D01*
X34219500Y22058196D01*
X34271826Y22036522D01*
X34278208Y22029244D01*
X34322073Y21972078D01*
X34322074Y21972077D01*
X34447412Y21875901D01*
X34593369Y21815444D01*
X34710678Y21800001D01*
X34825000Y21800001D01*
X34825000Y22576000D01*
X34846674Y22628326D01*
X34899000Y22650000D01*
X35001000Y22650000D01*
X35053326Y22628326D01*
G37*
%TD.AperFunction*%
%TD*%
M02*
