M48
; DRILL file {KiCad 9.0.7} date 2026-04-02T21:58:55+0300
; FORMAT={-:-/ absolute / metric / decimal}
; #@! TF.CreationDate,2026-04-02T21:58:55+03:00
; #@! TF.GenerationSoftware,Kicad,Pcbnew,9.0.7
; #@! TF.FileFunction,Plated,1,4,PTH
FMAT,2
METRIC
; #@! TA.AperFunction,Plated,PTH,ViaDrill
T1C0.250
; #@! TA.AperFunction,Plated,PTH,ViaDrill
T2C0.400
; #@! TA.AperFunction,Plated,PTH,ComponentDrill
T3C0.400
; #@! TA.AperFunction,Plated,PTH,ComponentDrill
T4C0.600
; #@! TA.AperFunction,Plated,PTH,ComponentDrill
T5C2.200
%
G90
G05
T1
X4.75Y11.1
X7.4Y23.8
X7.4Y8.8
X7.75Y13.35
X8.0Y17.35
X8.0Y14.2
X8.0Y3.6
X8.25Y20.8
X8.5Y8.0
X10.3Y11.3
X12.5Y9.85
X12.6Y8.7
X15.9Y14.5
X17.6Y20.9
X19.05Y3.2
X20.05Y3.2
X23.35Y18.75
X23.75Y15.5
X23.8Y12.8
X25.0Y15.5
X25.5Y10.7
X25.755Y17.955
X25.9Y13.7
X26.0Y24.6
X26.0Y23.1
X26.0Y21.85
X29.0Y25.1
X29.0Y18.6
X29.0Y17.1
X29.0Y15.1
X29.75Y10.7
X30.0Y9.5
X30.5Y18.6
X30.5Y17.1
X30.5Y15.1
X31.4Y6.3
X31.75Y10.05
X32.0Y17.1
X32.0Y15.1
X32.3Y18.5
X32.4Y6.3
X32.5Y23.85
X32.55Y21.45
X32.8Y10.4
X32.9Y1.8
X33.2Y9.04
X33.895Y5.035
X35.0Y21.6
X35.5Y15.35
X36.508Y19.08
X36.55Y20.1
X36.75Y15.75
X37.25Y23.85
X38.2Y16.6
X39.0Y13.35
X39.27Y20.58
X41.65Y19.35
X42.2Y16.7
X43.3Y20.1
X43.3Y14.0
X45.0Y20.1
X45.0Y14.2
X46.6Y20.2
X46.7Y13.9
T2
X1.0Y20.1
X1.0Y18.1
X1.0Y16.1
X1.0Y11.1
X1.0Y7.1
X1.0Y4.1
X3.0Y20.1
X3.0Y16.1
X3.0Y11.1
X3.0Y7.1
X3.0Y4.1
X7.1Y1.15
X8.45Y2.1
X14.3Y6.0
X14.9Y24.7
X15.0Y1.1
X16.0Y11.1
X16.55Y12.9
X16.7Y23.5
X16.7Y5.9
X17.7Y1.1
X18.1Y24.7
X18.45Y9.85
X19.35Y5.95
X19.4Y23.4
X20.9Y1.1
X21.0Y11.1
X21.1Y24.9
X21.1Y13.15
X22.0Y23.4
X24.0Y1.1
X29.0Y1.1
X30.1Y6.0
X33.0Y25.1
X34.6Y1.0
X36.0Y6.1
X36.0Y3.1
X37.4Y21.6
X38.1Y3.0
X38.1Y0.9
X38.6Y23.1
X39.0Y25.1
X39.0Y15.1
X39.0Y9.7
X39.0Y8.1
X39.0Y6.1
X40.8Y13.6
X42.0Y25.1
X42.0Y15.1
X42.0Y12.1
X42.0Y8.1
X42.0Y6.1
X42.1Y9.8
X44.0Y12.1
X45.0Y8.0
X45.1Y9.7
X45.1Y6.5
X46.5Y12.1
T3
X9.25Y23.15
X9.733Y24.317
X9.733Y21.983
X9.9Y3.5
X10.383Y4.667
X10.383Y2.333
X10.9Y24.8
X10.9Y21.5
X11.55Y5.15
X11.55Y1.85
X12.067Y24.317
X12.067Y21.983
X12.55Y23.15
X12.717Y4.667
X12.717Y2.333
X13.2Y3.5
X43.2Y22.95
X43.25Y3.233
X43.683Y24.117
X43.683Y21.783
X43.733Y4.4
X43.733Y2.067
X44.85Y24.6
X44.85Y21.3
X44.9Y4.883
X44.9Y1.583
X46.017Y24.117
X46.017Y21.783
X46.067Y4.4
X46.067Y2.067
X46.5Y22.95
X46.55Y3.233
T5
X10.9Y23.15
X11.55Y3.5
X44.85Y22.95
X44.9Y3.233
T4
G00X1.72Y21.98
M15
G01X0.92Y21.98
M16
G05
G00X1.72Y13.34
M15
G01X0.92Y13.34
M16
G05
G00X6.05Y21.98
M15
G01X4.95Y21.98
M16
G05
G00X6.05Y13.34
M15
G01X4.95Y13.34
M16
G05
M30
